<?xml version="1.0" standalone="no"?>
<!DOCTYPE svg PUBLIC "-//W3C//DTD SVG 1.1//EN" "http://www.w3.org/Graphics/SVG/1.1/DTD/svg11.dtd" >
<svg xmlns="http://www.w3.org/2000/svg">
<metadata></metadata>
<defs>
<font id="the_cinthia_editoregular" horiz-adv-x="530" >
<font-face units-per-em="2048" ascent="1638" descent="-410" />
<missing-glyph horiz-adv-x="370" />
<glyph horiz-adv-x="0" />
<glyph unicode="&#xd;" horiz-adv-x="370" />
<glyph unicode=" "  horiz-adv-x="370" />
<glyph unicode="&#x09;" horiz-adv-x="370" />
<glyph unicode="&#xa0;" horiz-adv-x="370" />
<glyph unicode="!" horiz-adv-x="837" d="M104 84q8 33 20 65.5t28 71.5q4 12 22.5 15.5t37.5 0t35.5 -13.5t16.5 -28q-4 -41 -12 -80t-31 -84q-10 -20 -32.5 -26.5t-44 -0.5t-35 25.5t-5.5 54.5zM168 311q-2 6 20.5 82t57.5 188.5t78 243.5t81.5 248t67.5 202t35 103q10 29 54 43.5t88 8t71 -32t4 -76.5 q-2 -6 -30.5 -75.5t-69.5 -173t-91.5 -223.5t-95.5 -226.5t-82 -185.5t-51 -99q-16 -16 -38.5 -25.5t-43 -12.5t-37 0t-18.5 11z" />
<glyph unicode="#" horiz-adv-x="616" d="M103 1083.5q-5 18.5 3 22.5q4 2 28 -4t59 -17q6 23 13 41.5t11 34.5q-10 4 -20.5 7t-16.5 8q-29 16 -35 34.5t5 22.5q4 2 28.5 -4t59.5 -17q18 45 33.5 60.5t23.5 10.5t10 -24.5t-6 -39.5q-4 -12 -8 -23q25 -6 47 -13t39 -14q0 2 2 5q20 55 36.5 73.5t27 14t12.5 -24.5 t-6 -41q-4 -6 -8.5 -18.5t-8.5 -26.5q45 -18 60.5 -32.5t10.5 -24t-24.5 -11.5t-40.5 4q-4 2 -10 4.5t-14 4.5q-6 -16 -12.5 -36t-12.5 -36q45 -18 60.5 -32.5t10.5 -24t-24.5 -11.5t-40.5 5q-6 2 -26 10q-4 -10 -7.5 -17.5t-7.5 -13.5q-16 -29 -34.5 -34t-22.5 5 q-2 4 3 24.5t15 51.5q-20 6 -42.5 13.5t-45.5 15.5q-10 -31 -22 -53q-16 -29 -34.5 -34t-23.5 3q-2 4 7.5 33.5t19.5 68.5q-10 4 -19.5 7t-17.5 8q-29 16 -34 34.5zM248 1069q23 -6 45.5 -13.5l40.5 -13.5q6 18 12 37t12 35q-23 6 -43 13.5t-43 13.5q-6 -16 -12 -35t-12 -37 z" />
<glyph unicode="$" horiz-adv-x="1067" d="M207 489q-12 57 2 97.5t36.5 65t46 36.5t34.5 12q2 -12 -33 -79q6 -4 16 -9q10 -4 27.5 -6t46.5 0q10 20 19.5 38t17.5 34q10 25 28.5 66.5t40.5 95.5q-29 39 -54 84t-25 75q0 45 37.5 94.5t115.5 86.5q18 10 39 15t43 9q8 16 13.5 28.5t9.5 20.5q10 23 20 48.5t20.5 45 t20.5 31t23 4.5q14 -8 2.5 -56t-33.5 -116q41 0 72 -4t45 -12q27 -43 25.5 -88t-11.5 -68q-4 -10 -14.5 -25.5t-23.5 -27.5t-25.5 -17t-18.5 5t-3 17t7 12.5t8 9.5t0 10q-16 23 -50 29t-70 2q-27 -63 -48.5 -116.5t-31.5 -78.5q0 -2 -1 -4t-1 -4q27 -29 48 -55.5t27 -34.5 t15.5 -17.5t17.5 -20.5t12.5 -22.5t-2.5 -23.5q-23 -49 -57.5 -86t-73.5 -62.5t-80 -42t-73 -24.5q-2 -4 -3 -7t-3 -8q-12 -37 -23.5 -66.5t-24 -48t-29 -24.5t-36.5 4q-18 10 -12 47t26 86q-31 2 -64.5 13.5t-37.5 31.5zM475 982.5q12 -21.5 31 -44.5q4 -6 18 -20 q12 31 25.5 61.5t25.5 60.5q-39 -10 -67.5 -18t-32.5 -12q-12 -6 0 -27.5zM481 621q49 10 76 19t40 18.5t18.5 17.5t9.5 18q-12 16 -31 32.5t-47 45.5q-14 -35 -31.5 -72.5t-34.5 -78.5z" />
<glyph unicode="%" horiz-adv-x="0" d="M205 20q0 4 24.5 53.5t67.5 126t98.5 174t113.5 200t115.5 201.5t104.5 180t80 135.5t41 66.5q59 94 96 128t56.5 27t21.5 -43t-8 -79q-2 -4 -30 -52t-73 -124t-103 -172.5t-119.5 -197.5t-122 -199.5t-110.5 -180.5t-86 -137t-48 -72q-41 -47 -78 -49t-41 14zM434 57 q-8 37 0 66t28.5 51.5t52.5 41t69 36.5q18 10 41.5 7t39 -20.5t16.5 -46t-26 -67.5q-53 -78 -113.5 -98.5t-107.5 30.5zM573 1104q-8 39 0.5 67.5t29 51t52 41t68.5 36.5q18 12 41.5 8.5t39 -20t17 -45t-25.5 -67.5q-53 -78 -113.5 -99.5t-108.5 27.5z" />
<glyph unicode="&#x26;" horiz-adv-x="1433" d="M209 258q-4 61 15.5 113.5t65.5 101.5t117.5 98.5t170.5 106.5q2 59 13 130t25.5 137.5t30 119.5t25.5 78q45 100 129 156.5t172 65.5t160 -27.5t92 -118.5q8 -47 -21.5 -104.5t-81 -116t-117 -116t-128 -105.5t-114.5 -84t-77 -50q-2 -16 -1 -66.5t3 -109.5t5 -114.5 t9 -82.5q90 51 139.5 65.5t71.5 10.5q25 -6 29 -29q-47 -76 -92 -128t-111 -99q6 -10 15 -18q8 -8 20 -16.5t29 -12.5q37 -10 42 12.5t7 69.5q14 -49 14 -86q-2 -33 -18.5 -58.5t-69.5 -25.5q-25 -2 -46 12.5t-38 30.5q-20 20 -35 45q-6 -2 -40.5 -14.5t-82 -21.5t-102.5 -8 t-102 25.5t-82 80t-41 153.5zM328 342q0 -55 34.5 -82t80.5 -34t92.5 -2t72.5 14q-6 25 -12 65.5t-11 87.5t-7.5 95.5t0.5 91.5q-43 -27 -87.5 -59t-80 -62.5t-58 -60t-24.5 -54.5zM709 760q14 10 24 20.5t21 18.5l79 79t97 112.5t70.5 119.5t0.5 102q-31 45 -73.5 12.5 t-108.5 -145.5q-8 -16 -22.5 -47t-29.5 -72.5t-30.5 -93t-27.5 -106.5z" />
<glyph unicode="'" horiz-adv-x="550" d="M205 1130q18 16 36.5 33t35 39.5t30 55t21.5 83.5q6 37 28.5 54.5t46 16.5t40 -20.5t10.5 -56.5q-10 -49 -36 -89t-60.5 -66.5t-74.5 -40t-77 -9.5z" />
<glyph unicode="(" horiz-adv-x="792" d="M108.5 208q-16.5 136 9 282.5t96.5 283.5t187.5 253t282.5 192q-139 -139 -227 -274.5t-137.5 -265.5t-64.5 -254t-8 -238.5t30.5 -219t52.5 -198.5q-92 72 -148.5 187.5t-73 251.5z" />
<glyph unicode=")" horiz-adv-x="788" d="M106 -231q139 139 227.5 274t137.5 265t64.5 254t8.5 238.5t-31 219t-52 199.5q92 -74 148.5 -189t72.5 -251t-9.5 -282.5t-96 -283.5t-187.5 -253.5t-283 -190.5z" />
<glyph unicode="*" horiz-adv-x="706" d="M205 937q-10 13 2 38q4 4 26.5 5t57.5 3q-12 27 -19.5 45.5t-9.5 22.5q0 8 8.5 22t34.5 17q4 -2 15.5 -20.5t27.5 -47.5q20 29 34.5 50.5t18.5 21.5q4 -4 8.5 -6.5t8.5 -6.5t8 -6q6 -8 9 -14t3 -15.5t-6 -22.5t-20 -38q37 0 62.5 -1t27.5 -5q0 -4 -1 -10t-1 -11 q-2 -6 -2 -10q-4 -10 -7.5 -16t-10.5 -11.5t-24.5 -7.5t-47.5 -2q16 -33 26 -56.5t10 -27.5l-18 -6q-6 -2 -10 -4q-10 0 -17.5 -1t-15.5 4t-17.5 18.5t-23.5 40.5q-33 -49 -41 -54q-4 -4 -21.5 -5t-31.5 22q-2 4 8 23.5t27 47.5q-25 2 -41.5 3.5t-20.5 3.5q-6 4 -16 17z" />
<glyph unicode="+" horiz-adv-x="827" d="M206 199.5q-13 19.5 3 54.5q4 4 48 7t103 5q0 63 3.5 110.5t7.5 51.5q10 0 26 -4q8 -2 15 -2q14 -6 24 -10t16.5 -16.5t9.5 -38t3 -72.5v-17q61 0 108.5 -3t51.5 -7q0 -6 -1 -13t-1 -14q-2 -8 -2 -14q-6 -14 -11.5 -24.5t-17.5 -16.5t-38 -9t-73 -3h-18q-2 -51 -4 -88 t-6 -43q-2 -4 -8.5 -11.5t-15.5 -12.5t-23.5 -6t-30.5 7q-4 6 -7 51t-6 105q-53 2 -89.5 5t-43.5 5q-10 4 -23 23.5z" />
<glyph unicode="," horiz-adv-x="512" d="M111 -227q-2 6 7 35.5t25.5 72.5t36 91t36.5 89t31.5 69t18.5 30q6 -4 12.5 -7t12.5 -8l12 -8q12 -10 20.5 -18t9.5 -22.5t-6.5 -39t-27.5 -67.5q-41 -86 -78 -148.5t-45 -70.5q-4 -4 -9 -9.5t-13.5 -7.5t-19.5 1t-23 18z" />
<glyph unicode="-" horiz-adv-x="673" d="M139 485.5q-2 22.5 10.5 39t36.5 16.5q2 0 32 -1t73 -1t93 -2t94 -2t74 -1.5t34 -1.5q12 -6 -0.5 -38.5t-50.5 -59.5q-14 -16 -57.5 -24.5t-93.5 -11.5t-97 -1t-72 6q-37 12 -55.5 36t-20.5 46.5z" />
<glyph unicode="." horiz-adv-x="446" d="M111 14q-18 43 4 74t63 62q10 8 24.5 9t26 -7.5t15.5 -25.5t-8 -44q-23 -53 -57 -73.5t-68 5.5z" />
<glyph unicode="/" horiz-adv-x="792" d="M109 -201q-2 4 14 56.5t44 136.5t63.5 189.5t73.5 217t76 220t68.5 197.5t52 148.5t27.5 73.5q39 104 70 143.5t51.5 36t28.5 -38t6 -77.5q0 -6 -18.5 -58.5t-48 -135.5t-68.5 -188.5t-80 -216t-82 -219t-74.5 -197.5t-59.5 -150.5t-34 -79.5q-33 -53 -67.5 -63.5 t-42.5 5.5z" />
<glyph unicode="0" horiz-adv-x="980" d="M35.5 339q-15.5 124 32.5 302q25 98 67.5 198.5t101 194.5t131 178t158.5 150q59 41 117.5 56.5t96.5 13.5t47.5 -18.5t-29.5 -39.5q-98 -55 -203.5 -180t-187.5 -324q-27 -68 -56.5 -171t-45 -211.5t-11.5 -205t45 -147.5q117 39 203 127t147.5 200.5t99 235.5t56 230.5 t20.5 187.5t-6 105q-12 31 -31.5 32.5t-34 -19t-19.5 -55t11 -77.5q-51 59 -56 113.5t16.5 91t61.5 50.5t79 -9q47 -27 68.5 -87.5t24.5 -141.5t-10.5 -175t-37 -187t-54 -178t-61.5 -147q-41 -84 -94 -161.5t-115.5 -137t-131 -95.5t-142.5 -38q-37 -4 -94.5 28.5 t-102.5 109.5t-60.5 201z" />
<glyph unicode="1" horiz-adv-x="694" d="M43 162q6 25 25.5 81t45 132t56.5 164t61 176q72 207 160 452q-23 -86 -77 -129t-103 -54t-71.5 2t18.5 40q51 35 96 95.5t80 117.5q39 67 72 141q23 29 58.5 42.5t72 15.5t71.5 -5.5t56 -19.5q-4 -14 -22.5 -76.5t-48.5 -157t-65.5 -211t-73.5 -237.5t-74 -237.5 t-65.5 -210t-49 -154.5t-23.5 -74q-16 -41 -55.5 -51t-76 6.5t-60 55t-7.5 96.5z" />
<glyph unicode="2" horiz-adv-x="1128" d="M32 94q-3 37 6 75t34 60q125 96 243.5 195.5t220 191t179.5 170t121 134.5q55 72 62 130t-17.5 97t-70.5 58.5t-96 13t-96.5 -38t-70.5 -95.5q-12 -41 -10 -79.5t19 -58t48 -8.5t74 73q0 -47 -21.5 -86t-53.5 -67t-70.5 -41t-75.5 -8t-67 30.5t-44 74.5q-23 90 -2 181.5 t77 164t145 118.5t206 46q90 0 159.5 -27.5t110.5 -80.5t47.5 -132t-30.5 -181q-23 -55 -76 -124t-125 -142.5t-157 -147.5t-171 -140.5t-166.5 -122t-146.5 -89.5q20 2 70.5 8t114 11t132 11t127 9.5t99.5 4.5t49 -1q31 -12 31 -56.5t-20.5 -93.5t-55.5 -90t-74 -45 q-16 0 -66.5 1t-116 1t-139 2t-136 2t-107.5 1t-53 1q-14 0 -25.5 26.5t-14.5 63.5z" />
<glyph unicode="3" horiz-adv-x="1128" d="M31 177q4 46 23.5 82t42 56.5t20.5 16.5q-6 -16 -6 -36t10 -38t33.5 -30.5t64.5 -14.5q154 -6 260.5 41t173 112.5t96 129t27.5 90.5q-4 20 -21.5 37.5t-52 25.5t-88 6t-125.5 -18q-25 -6 -34 17.5t-3.5 53t21.5 55t41 25.5q84 -4 157.5 34t131 93.5t98.5 118t60 109.5 q8 20 6 42.5t-18.5 40t-48.5 24.5t-85 -5t-106.5 -33.5t-96.5 -49t-74.5 -60.5t-41.5 -66q-10 -31 10 -53t53 -27.5t69 13t56 67.5q0 -49 -29.5 -87t-73.5 -59.5t-94.5 -22.5t-91.5 26q-23 18 -42 45t-27.5 63.5t-1 81.5t42.5 101q51 80 139 136t180 86t171 33t112 -26 q10 -10 36.5 -37.5t50 -67.5t34.5 -87.5t-7 -92.5q-6 -14 -32.5 -60t-67.5 -101.5t-94 -110.5t-113 -86q59 -16 91 -68.5t28 -132.5q-4 -59 -37 -137t-90 -155.5t-139 -144t-185 -99.5q-78 -25 -137 -31t-105 3t-79 30.5t-55 48.5q-41 47 -37 93z" />
<glyph unicode="4" horiz-adv-x="1069" d="M31 586q0 37 22 63q10 12 54.5 52t110 98.5t144 127t160.5 140.5q190 166 426 367q49 0 71.5 -31t10.5 -116t-64.5 -236.5t-150.5 -393.5q35 -4 52.5 -36.5t20.5 -71.5t-8.5 -71t-33.5 -34q-23 -2 -43.5 -3t-36.5 -3q-18 -2 -35 -2q-14 -39 -30.5 -86t-33 -97t-35 -99.5 t-34.5 -87.5q-12 -29 -34.5 -47.5t-44 -18.5t-34 20.5t-2.5 69.5q12 37 30.5 87t37 100.5t35 93.5t24.5 67q-47 -4 -107.5 -6t-119.5 -4t-106.5 -2h-65.5q-57 4 -97 29.5t-61.5 59.5t-21.5 71zM285 647q14 0 56 2t99.5 5t124 6.5t127.5 3.5q10 23 27.5 63.5t39 90.5 t44 105.5t43 103.5t36 87t21.5 57q-4 -2 -8 -6q-51 -43 -113.5 -96t-127 -108.5t-127 -109.5t-114 -97t-86 -72t-42.5 -35z" />
<glyph unicode="5" horiz-adv-x="1116" d="M33 145q-16 74 1 138.5t54 110.5t90 69.5t113 17.5q-31 -16 -54.5 -43.5t-37 -60.5t-13.5 -64.5t17 -54.5q31 -41 93 -46t138 21.5t155 85t140 144.5q27 37 41 91t3 102.5t-55 77t-136 14.5q-94 -16 -147.5 -37t-102.5 -31q-6 4 -17.5 20.5t-22.5 35t-18.5 35.5t-7.5 28 q2 14 15.5 66.5t35 122t47 147t53 143t52.5 107.5t43 42q12 2 81 3.5t153.5 1.5h164.5t113 -2q41 2 50 -37t-3 -83t-39.5 -79t-58.5 -27q-41 12 -105.5 20.5t-126.5 14.5q-72 6 -151 10q-12 -29 -37 -87t-51 -118q-31 -70 -64 -149q14 8 61.5 20.5t110 16.5t129 -6.5 t118.5 -47t82 -106.5t15 -184q-4 -39 -22.5 -95.5t-52 -119t-84 -127t-119.5 -119.5q-41 -31 -100.5 -58.5t-126 -45t-135 -22.5t-126 7t-99.5 45t-56 92z" />
<glyph unicode="6" horiz-adv-x="962" d="M33 307.5q-6 100.5 10 208t55 219t97 219.5q61 117 130.5 197t134 133t122 83t94.5 46q78 31 142.5 21.5t86.5 -31.5q14 -16 19.5 -46t-0.5 -63.5t-25.5 -66.5t-52.5 -56q25 55 33 97q8 35 -0.5 64.5t-51.5 27.5q-27 -2 -62.5 -24.5t-71.5 -53.5t-67.5 -64.5t-47.5 -58.5 q-47 -72 -104.5 -178.5t-131.5 -271.5q-43 -96 -64.5 -185.5t-27.5 -164t-2 -129t14 -78.5q10 -27 31.5 -32t49.5 7t60.5 39t67.5 63q49 51 87 112.5t65.5 119t45 107.5t27.5 81q25 82 28 144.5t-56 89.5q-23 8 -51.5 -0.5t-59.5 -28.5t-62.5 -52t-58.5 -69 q-20 -29 -41.5 -67.5t-39 -73.5t-28 -57.5t-10.5 -18.5q2 25 12.5 81t35 123.5t66.5 135.5t108 115q84 59 145 70.5t104 -6t67 -54.5t30 -72q10 -51 -8.5 -137t-56.5 -186.5t-95 -205t-126 -188t-146.5 -138t-157.5 -54.5q-33 0 -67.5 9t-66.5 25.5t-55.5 40t-35.5 48.5 q-31 84 -37 184.5z" />
<glyph unicode="7" horiz-adv-x="1075" d="M35 29q-2 14 6 45.5t31 79.5q6 14 33.5 70.5t72.5 139t108.5 187t144.5 215.5t179 223.5t213 210.5q-14 4 -51 5t-83 0t-97 -4t-97 -7t-80 -7t-46 -5q-35 -8 -49.5 -24.5t-16.5 -36t7 -39t26 -33.5q-10 0 -32.5 5t-47.5 20.5t-45.5 44t-22.5 73.5q-4 84 37 138t109 71 q4 0 48 7t108.5 14.5t139.5 12.5t136 3t99 -4t59.5 -5.5t32 -5.5t16.5 -2q27 -16 43 -42.5t22 -56.5t1 -55.5t-17 -39.5t-64.5 -67.5t-128 -138.5t-167 -196.5t-181.5 -240.5t-171 -273.5t-138 -292.5q-4 -10 -24.5 -15t-45 -4t-45 8t-22.5 22z" />
<glyph unicode="8" horiz-adv-x="1122" d="M32 331.5q5 57.5 25.5 110t55.5 88.5q18 20 65 59.5t101.5 82.5t107.5 81t86 60q-6 14 -25.5 53t-39 86t-33 93.5t-8.5 74.5q6 55 37.5 100.5t72.5 77.5q33 27 97.5 57.5t139 53.5t154 28t140.5 -22q31 -18 51 -58t23 -89t-14 -98.5t-62 -84.5q-10 -10 -44 -36.5 t-78 -59.5t-93.5 -69.5t-92.5 -67.5t-72.5 -51.5t-35.5 -22.5h-4q20 -39 45.5 -91t48 -103.5t41 -93t24.5 -60.5q35 -119 -7 -208t-150 -154q-33 -20 -98.5 -42t-139.5 -25t-146.5 20.5t-121.5 95.5q-31 45 -43 101t-7 113.5zM182 387q-4 -74 35 -118t97.5 -61.5t125 -10 t118.5 35t78.5 74t6.5 107.5q-6 20 -24.5 65t-40 92t-41 87t-27.5 51q-92 -57 -162 -115q-61 -49 -111.5 -105.5t-54.5 -101.5zM498 1081q0 -14 8 -42.5t19.5 -59.5t22.5 -57.5t15 -38.5q20 14 66.5 46t93.5 63.5t85 59t46 33.5q18 16 52 39t52 41q6 27 -13 47.5t-54 29.5 t-82 8t-96 -15q-25 -6 -60 -20.5t-67.5 -35t-57 -45t-30.5 -53.5z" />
<glyph unicode="9" horiz-adv-x="952" d="M31 80q-4 31 2 64.5t25.5 66.5t52.5 55q-27 -57 -35 -98q-8 -37 1 -65.5t52 -24.5q27 2 70 23.5t87 51t84 61.5t60 54q104 121 173 269.5t100.5 292t29.5 266.5t-39 190q-27 47 -83 21.5t-126 -101.5q-49 -53 -87 -113.5t-65.5 -117.5t-46 -107.5t-26.5 -81.5 q-25 -82 -28 -144t57 -89q20 -8 50 0t60.5 29.5t62.5 52.5t58 67q20 29 42 68t39 74t27.5 57.5t10.5 18.5q-2 -25 -12.5 -81.5t-35 -124t-67.5 -135t-106 -114.5q-84 -59 -145.5 -70.5t-104.5 6t-66.5 54.5t-29.5 71q-10 49 8 136.5t56 187.5t95.5 204.5t126 188.5 t145.5 137.5t159 55.5q66 2 131 -27.5t94 -95.5q31 -84 37 -184.5t-11.5 -208t-55.5 -220t-95 -219.5q-61 -117 -131 -196.5t-134.5 -133t-122 -84t-93.5 -44.5q-78 -31 -142.5 -22t-87.5 32q-16 16 -20 47z" />
<glyph unicode=":" horiz-adv-x="468" d="M106 31q-6 14 1.5 29.5t23.5 28.5t38.5 25.5t47.5 18.5q12 4 26.5 0t21.5 -16.5t5 -29.5t-22 -38q-41 -41 -80 -48t-62 30zM180 225q-10 35 25 62t86 41q12 6 25.5 1t21.5 -17.5t6 -30t-22 -37.5q-41 -41 -80 -47.5t-62 28.5z" />
<glyph unicode=";" horiz-adv-x="616" d="M102 -215q-2 6 7.5 35.5t26 73t35.5 91.5t37.5 89t33 68.5t18.5 29.5q4 -4 11.5 -7t11.5 -7l12 -8q12 -10 20.5 -18.5t9.5 -23t-6.5 -39t-27.5 -67.5q-41 -86 -78 -148.5t-45 -70.5l-9 -9t-13.5 -7.5t-19.5 1t-24 17.5zM291 215q-18 45 4 75.5t63 59.5q10 8 25.5 9t27 -7 t15.5 -25.5t-8 -43.5q-23 -53 -57.5 -73t-69.5 5z" />
<glyph unicode="&#x3c;" horiz-adv-x="931" d="M102 297q-6 0 30 39t94.5 97.5l128 128t133 132t111.5 107.5t60 57q55 49 88 69.5t52 20.5q23 0 22 -26q0 -31 -26 -74q-4 -6 -48.5 -49t-109 -104.5t-140 -131t-141 -129t-111.5 -98.5t-50 -39l8 -4q16 -12 65 -56t113.5 -103.5t134.5 -126t128 -123t98 -96.5t42 -44 q27 -43 27 -74q0 -27 -23 -26q-18 0 -52 20.5t-87 69.5q-16 14 -62 60l-107.5 107.5t-128 130t-122 126t-91.5 96.5t-36 43z" />
<glyph unicode="=" horiz-adv-x="634" d="M101.5 60.5q-0.5 13.5 7.5 29.5q4 4 35.5 7t76.5 4t97.5 2t97.5 0t75.5 -3t34.5 -6q0 -10 -4 -26q-2 -8 -2 -15q-6 -14 -10 -24.5t-16.5 -16.5t-38 -9t-72.5 -3q-41 0 -84 1t-79 3t-60.5 4t-28.5 4t-11 8.5t-12.5 16.5t-6 23.5zM101.5 232.5q0.5 13.5 6 23.5t12.5 16.5 t11 8.5t28.5 4t60.5 4t79 3t84 1q47 0 72.5 -3t38 -9.5t16.5 -16.5t10 -24q0 -6 2 -15q4 -16 4 -26q-4 -4 -34.5 -6.5t-75.5 -3.5t-97.5 0t-97.5 2.5t-76.5 4.5t-35.5 7q-8 16 -7.5 29.5z" />
<glyph unicode="&#x3e;" horiz-adv-x="925" d="M104 922q0 27 23 26q18 0 51 -20.5t88 -69.5q12 -12 60.5 -57t112 -107.5t133 -132l128 -128t94 -97.5t29.5 -39q0 -4 -35.5 -43t-91 -96.5t-122 -126t-128 -130l-107.5 -107.5t-63 -60q-53 -49 -86.5 -69.5t-52.5 -20.5q-23 0 -22 26q0 31 26 74q2 4 42 44t98.5 96.5 t128 123t134 126t114 103.5t65.5 56l8 4q-4 0 -50 39t-111.5 98.5t-141.5 129t-140.5 131t-109.5 104.5t-47 49q-27 43 -27 74z" />
<glyph unicode="?" horiz-adv-x="1280" d="M102 84q10 33 22 65.5t28 71.5q2 12 20 15.5t37.5 0t37 -13.5t17.5 -28q-6 -41 -13 -80t-32 -84q-10 -20 -32.5 -26.5t-44 -0.5t-35 25.5t-5.5 54.5zM166 344q4 27 13 66t23.5 75.5t34 66.5t46.5 38q119 39 210 87t160.5 98t117.5 97.5t79 81.5q33 39 59.5 78t33.5 71 t-9 54.5t-66 28.5q-53 6 -112.5 5t-114.5 -9t-101 -26.5t-77 -49.5q-14 -16 -16.5 -41t4 -49.5t22.5 -46t39 -33.5q-113 14 -162 72.5t-46 129t50 137t127 95.5q16 6 76.5 22.5t143.5 27t176.5 4t175.5 -45.5q57 -25 93 -88t25 -139q-10 -70 -57 -161t-140 -185 t-237.5 -183.5t-347.5 -154.5q-47 -18 -66.5 -60t-31.5 -104q-4 -25 -25.5 -30t-45 4.5t-41 28t-13.5 38.5z" />
<glyph unicode="@" horiz-adv-x="1280" d="M96 348q8 184 64 371q43 141 115.5 240.5t162.5 161t190.5 88t197 22.5t183.5 -35t150 -84q35 -29 35 -58.5t-18.5 -51t-47 -27.5t-49.5 14q-43 39 -106.5 66.5t-137 35t-151.5 -9t-150.5 -62.5t-135 -126t-103.5 -199q-27 -78 -44.5 -173t-19.5 -190t14.5 -185.5 t56.5 -161t105.5 -113.5t163.5 -45q106 4 189.5 38t140.5 91q-41 -20 -81 -16t-69.5 34.5t-41 91t5.5 150.5q-8 -18 -22.5 -41.5t-32 -49.5t-34 -49.5t-30.5 -37.5q-20 -20 -47 -29.5t-51.5 -7.5t-44 16.5t-23.5 38.5q-6 37 1 91.5t22.5 116t37 128t46.5 129.5 q55 150 131 314q25 53 69.5 67t87.5 1t74 -48t27 -78q23 14 42 12t28.5 -21t5 -57t-28.5 -94q-16 -41 -42 -105.5t-51.5 -133t-47 -128t-31.5 -87.5q-10 -35 2 -62.5t36.5 -43t55.5 -12.5t55 32q39 45 52.5 101t17.5 104q0 55 -12 114q25 -25 39 -85t10 -137t-32 -159 t-86 -151.5t-151.5 -116.5t-228.5 -51q-168 -2 -272.5 87t-151.5 235.5t-39 330.5zM521 144.5q-7 -50.5 9 -62.5q12 -10 33 8.5t44.5 51t48 73.5t45 79t34 65.5t17.5 33.5q14 31 29.5 66t27.5 66.5t20.5 55t12.5 31.5q10 31 8 57.5t-13.5 43t-31 20.5t-39.5 -8 q-16 -10 -44 -57t-59.5 -115t-62.5 -144.5t-51.5 -145t-27.5 -119z" />
<glyph unicode="A" horiz-adv-x="1142" d="M0 184q6 80 39 141.5t76 102.5q43 42 87 60q36 15 60 15q5 0 10 -1q-35 -8 -67.5 -55.5t-48.5 -101.5q-12 -40 -13 -75q-1 -12 1 -23q6 -44 46 -46h5q38 1 78 27q42 28 108 87q-61 25 -77 76q-7 24 -7 47q-1 26 9 52q18 48 61 78q29 21 66 20q17 0 36 -4 q-16 -2 -35.5 -23.5t-19.5 -45t28 -41.5q20 -13 68 -13q17 0 37 2q166 203 270.5 357.5t168 264t94 178t46.5 99.5q18 35 51 53.5t63 23.5q11 2 21 2q15 1 27 -5q13 -6 14 -18q0 -4 -2 -9q-4 -12 -20 -72.5t-39.5 -153.5t-53.5 -209t-61.5 -236t-61.5 -236.5t-55.5 -211.5 t-43 -159.5t-23.5 -81.5q-16 -37 -47 -46q-14 -4 -27 -4q-16 0 -32 6q-28 11 -46 40q-11 18 -12 42q0 13 4 28q10 31 20.5 74.5t26.5 95.5h-70.5h-98h-88h-40.5q-88 -92 -154.5 -150.5t-123.5 -93.5q-49 -29 -97 -33q-9 -1 -17 -1q-38 -1 -67 15q-37 18 -57 60 q-17 34 -17 83q0 9 1 19zM680 457q63 -2 116.5 -2h82.5q20 59 42.5 130.5t46 144.5t45 142.5t38.5 126.5q-27 -45 -70 -111.5t-93 -141t-104.5 -150.5t-103.5 -139z" />
<glyph unicode="B" horiz-adv-x="1079" d="M4 115q4 12 26.5 65t54.5 132t72 176.5t82 197.5t81.5 196.5t71.5 174.5t54.5 130t26.5 62q-63 0 -94 -13t-36 -28.5t11.5 -29t48.5 -15.5q-43 -18 -81 -24q-14 -2 -28 -2q-21 0 -43 4q-36 6 -61 37q-18 20 -26 59q-2 12 -2 24q0 27 12 54q18 39 73.5 69.5t168.5 36.5 q12 0 53 3t98.5 3t126 -2t135 -10t125 -25.5t97.5 -46.5q8 -16 16 -37.5t13 -41.5q6 -18 8 -34q1 -7 1 -12t-2 -6q-18 -18 -64 -67t-111.5 -107.5t-147.5 -115t-176 -91.5q35 -8 105.5 -41.5t140.5 -85.5q69 -50 117 -114q41 -54 42 -110q0 -9 -2 -19 q-25 -129 -112.5 -228.5t-207.5 -158t-256 -71.5q-33 -3 -64 -3q-100 0 -191 31q-12 -20 -29 -31q-7 -10 -22 -10q-5 0 -13 2q-26 6 -50 24q-24 20 -38 46q-9 16 -8 31q0 11 4 22zM231 244q80 -40 172 -40h13q98 3 184 39t146.5 96t66.5 132q1 4 1 8q0 29 -24 75 q-26 52 -78.5 103.5t-127 89t-166.5 41.5q-49 -135 -86 -247q-16 -49 -32.5 -97.5t-31 -88.5t-23.5 -69.5t-14 -41.5zM453 891h9q41 -1 85 15q49 18 98 46.5t95 65.5t84 74.5t66 72.5t42 62q-12 4 -65.5 8t-114 8t-110.5 6q-25 1 -38.5 1t-15.5 -1q-8 -27 -23.5 -68.5 t-35 -92t-40 -101.5t-36.5 -96z" />
<glyph unicode="C" horiz-adv-x="722" d="M1 344q-1 18 -1 38q0 80 16 175q20 119 88 258q106 221 243 375t274 215q43 19 99 23q9 1 18 1q45 -1 84 -15q46 -18 68 -54q11 -19 12 -43q0 -24 -11 -53q-47 -121 -124 -179.5t-151 -76.5q27 37 50.5 81t42 88t30 86t15.5 78q4 18 -27 10t-86 -55q-70 -61 -137.5 -144 t-126 -181.5t-103.5 -205t-71.5 -214t-30.5 -211.5q-1 -14 -1 -28q0 -88 22 -167q3 -8 15 -8q17 -1 51 17q58 30 134 93.5t153 150.5t124 182q6 -6 6 -24t-6 -46q-12 -58 -46 -135.5t-95.5 -161.5t-153.5 -147q-68 -44 -115 -58q-28 -8 -52 -9q-16 0 -31 4q-36 9 -60.5 33.5 t-44.5 53.5t-43 94.5t-28 159.5z" />
<glyph unicode="D" horiz-adv-x="1054" d="M4 228q-4 19 -4 39q0 22 5 46q9 45 52 95q-3 -12 -3 -24q0 -26 12 -54q18 -41 57 -62q2 10 17.5 56.5t39 115t53 152.5t59.5 170t57.5 167t50 144.5t36.5 102.5l13 38q-29 14 -47.5 12.5t-26.5 -17t-4 -39t20 -48.5q-23 2 -45 18.5t-40 41.5q-18 26 -28 58q-9 27 -8 56 v11q4 69 46 103q32 26 95 26q19 0 40 -2q27 -2 60.5 -9.5t73.5 -30t87 -64t102 -111.5q39 -51 87 -125t82 -174.5t41 -225.5q1 -19 1 -39q0 -110 -33 -239q-43 -129 -137 -220.5t-207.5 -140.5t-229.5 -56q-18 -1 -36 -1q-93 0 -164 31q-6 -25 -32 -31q-9 -2 -17 -2 q-17 0 -33 7q-24 11 -38 39q-7 13 -7 30q0 18 8 39q-12 18 -29.5 47.5t-25.5 69.5zM231 236q77 -28 164 -28q20 0 40 1q110 8 203 43t158.5 89.5t75.5 113.5q6 39 6 85t-6 98q-12 105 -54 211.5t-115.5 198t-184.5 140.5q-2 -14 -21.5 -79t-47 -157t-60.5 -199.5t-63.5 -208 t-56 -183t-38.5 -125.5z" />
<glyph unicode="E" horiz-adv-x="905" d="M1 172q7 57 48 104q-8 -27 5.5 -40t31.5 -19q23 -8 51 -6l11 34q12 34 28.5 84t35.5 108.5t36.5 108.5t29 85t13.5 39q-49 32 -57 72q-5 26 -4 46q0 11 1 19q8 0 24.5 -1t33 -1t31 -1t18.5 -1q18 45 36.5 96t35 98t30 86t21.5 62q-47 2 -80 19.5t-51.5 45t-24.5 60.5 q-3 14 -3 28q0 19 5 39q16 55 47 75q28 18 60 18h6q37 0 61.5 -8.5t37.5 -17.5t16.5 -16.5t-0.5 -5.5q-29 12 -53.5 9.5t-37 -12t-10.5 -22t25 -18.5q23 -4 67.5 -4t124.5 7.5t200 25.5t292 53v-13q1 -36 -9 -69q-12 -39 -29.5 -69.5t-35.5 -51t-29 -26.5q-16 -8 -55 -14.5 t-88 -11.5t-103.5 -9t-102.5 -7t-84 -4t-48 -1q-6 -18 -21.5 -61.5t-34 -95.5t-36.5 -102t-29 -81q12 0 72.5 1t133.5 2t137.5 4t84.5 9q6 -6 3 -24.5t-9 -40t-16 -40t-19 -22.5q-41 -23 -101 -34t-124 -14q-48 -2 -93 -2h-29q-58 1 -89 5q-6 -18 -26.5 -77.5t-46 -130 t-48 -137t-30.5 -95.5h26q58 0 120 7q76 9 149 21.5t138.5 28t114.5 25.5q6 -6 2 -37t-17 -66.5t-32.5 -70.5t-42.5 -51q-14 -8 -60 -20.5t-109.5 -24t-138.5 -18.5q-44 -4 -86 -4q-30 0 -58 2q-70 5 -128.5 22.5t-90.5 56.5q-25 29 -25 72q0 10 1 20z" />
<glyph unicode="F" horiz-adv-x="647" d="M-1 658v11q0 9 1 11q45 -27 106 -40q62 -14 124 -18q35 -3 70 -2q26 0 52 2q58 4 99 9l15 39q15 39 37.5 97t48.5 126t48.5 129t38.5 105t18 53l-29 -8q-30 -7 -77 -16t-107 -20q-62 -12 -124 -17q-52 -4 -100 -4h-20q-58 1 -100 13q-37 14 -54 37t-23.5 47.5t-2 48 t14.5 42.5q18 35 42.5 46t47.5 11q25 0 53 -10q-10 0 -21.5 -4.5t-18.5 -10.5t-8 -14t9 -16q9 -8 65 -8q4 1 8 1q62 0 165.5 15.5t242 47.5t302.5 85h1q1 0 1 -2q0 -4 -4 -18q-6 -22 -17.5 -52.5t-24 -60t-20.5 -41.5q-12 -23 -28.5 -36t-31 -21.5t-25.5 -11.5l-11 -3 q-4 -14 -18.5 -56t-35 -99.5t-44 -123t-44 -124t-37 -102.5l-22.5 -60q6 0 18.5 3t25.5 7t25.5 7t16.5 5q2 -6 -2 -36.5t-21.5 -69.5t-50 -73t-84.5 -46q-49 -141 -82.5 -250.5t-62.5 -150.5q-33 -46 -82 -46h-6q-53 3 -86 46q-12 16 -18.5 41.5t0 50t27 46t59.5 28.5 q-18 -12 -22.5 -32t-0.5 -32t17.5 -8t29.5 37q18 47 39 96q16 41 35.5 89t38.5 93q-12 0 -65.5 2t-115 12.5t-114.5 33t-64 59.5q-4 12 -7 32.5t-6 40.5t-4 38z" />
<glyph unicode="G" horiz-adv-x="1026" d="M2 337q12 97 43 195.5t70 183.5t63 132q39 72 102.5 166t149.5 182t193.5 154.5t234.5 83.5q29 4 67 5h7q34 0 66 -9q36 -9 66 -32.5t42 -68.5q8 -33 8 -63v-12q-2 -37 -12 -70t-24.5 -59.5t-26.5 -43.5q-25 -35 -65 -56t-81 -21t-76.5 23.5t-54.5 78.5q-2 4 15.5 -10.5 t44 -18.5t60.5 15.5t67 89.5q15 37 15 64v8q-3 30 -22.5 46.5t-50.5 17.5h-4q-29 0 -63 -15q-82 -39 -170 -120t-169 -183.5t-148.5 -218t-109.5 -225.5t-51 -205q-3 -20 -3 -39q0 -69 28 -117q14 -27 45 -29h10q27 0 58 9q36 11 72 31.5t63 39.5q45 35 88 85t78 97 q39 55 73 117q-41 -4 -90 -8.5t-97 -6.5t-89 -3h-26q-24 0 -42 1q8 49 45 92.5t95 71.5q10 4 79.5 12.5t157.5 14.5t170 7h18q68 0 99 -7q-4 -74 -57.5 -154t-117 -169t-116.5 -190.5t-59 -219.5q-12 6 -27.5 29.5t-24.5 60.5q-7 33 -7 76v10q1 49 24 104 q-23 -35 -53.5 -72.5t-69.5 -72.5t-85 -64.5t-97 -44.5q-39 -11 -75 -11q-18 0 -35 3q-50 8 -90 31.5t-68.5 58.5t-43.5 72q-20 52 -20 115q0 27 4 56z" />
<glyph unicode="H" horiz-adv-x="1165" d="M3 206q7 44 38 87q29 39 60.5 50t58 8t42 -13t11.5 -12q-51 -20 -61.5 -51t3 -52.5t43.5 -23.5q2 0 3 -1q28 0 57 35q37 43 85 127t101.5 185.5t104.5 208t93 196.5t69.5 150.5t33.5 70.5q4 8 -20.5 -4t-79.5 -41q-65 -32 -109 -32h-9q-46 4 -72.5 28.5t-34.5 63.5 q-5 22 -5 44q0 16 3 32q6 43 31.5 69.5t55.5 39.5t56.5 16.5t36.5 1.5q4 0 -9.5 -7.5t-30.5 -18.5t-31.5 -27.5t-12.5 -37.5q0 -23 22.5 -19.5t56.5 20t74 43t78.5 52t70.5 46t48 24.5q16 0 39 -19.5t37 -53.5q2 -4 2 -12q0 -19 -10 -57q-14 -56 -39 -132t-56.5 -163 t-58.5 -165q18 0 62.5 -1t91.5 -1h88t53 2q14 39 33.5 93.5t40 114.5t41 120.5t39 112t32 87t19.5 46.5q6 12 19.5 13t27.5 -3t26.5 -12.5t14.5 -16.5q0 -4 -11.5 -47t-30.5 -103.5t-40.5 -131t-41 -131t-34 -101.5t-14.5 -45q12 -4 16 -24.5t1 -46t-17 -48t-39 -30.5 q-25 -88 -58.5 -202t-66.5 -219.5t-59.5 -182t-36.5 -91.5q-16 -16 -36.5 -16t-36 21.5t-19.5 67.5q-1 8 -1 18q0 42 15 104q6 29 21.5 79t37 116.5t49 145.5t58.5 165h-65.5t-102.5 -2q-61 -2 -135 -2q-27 -76 -70 -175.5t-92 -196.5t-100 -177t-90 -119q-61 -59 -141 -71 q-20 -3 -38 -4q-57 0 -102 30q-29 18 -51.5 51t-30.5 73q-4 21 -4 44q0 19 3 40z" />
<glyph unicode="I" horiz-adv-x="864" d="M1 227q5 90 65 189q-4 -29 -10 -67q-4 -25 -3 -49q0 -12 1 -26q3 -38 17.5 -70t49.5 -46q31 -12 59.5 -5t57 28.5t58.5 53t60 66.5q49 55 93.5 113.5t97.5 144.5q-55 76 -69 159q-8 47 -9 95q0 36 5 72q11 84 45 162.5t75 145.5t84 115t78 72q39 26 91 44q44 15 85 15h14 q47 -3 78 -30q27 -24 27 -71v-13q-2 -29 -20.5 -90t-47.5 -141t-63.5 -170t-68.5 -172t-64 -148.5t-48 -101.5q16 -10 22.5 -24.5t1.5 -25t-21.5 -15.5t-41.5 5q-8 -14 -25.5 -41.5t-37 -58.5t-39.5 -59.5t-35 -44.5q-31 -39 -63.5 -78t-67.5 -73t-69.5 -59.5t-67.5 -35.5 q-49 -15 -91 -15q-38 -1 -70 11q-68 26 -103 88q-31 54 -31 129q0 11 1 22zM562 766q5 -66 38 -115q14 25 44 87.5t69 149.5t80 193.5t77 223.5q-47 -8 -95 -46t-88 -94.5t-70.5 -125t-44.5 -138.5q-11 -52 -12 -102q1 -16 2 -33z" />
<glyph unicode="J" horiz-adv-x="890" d="M0 252v7q0 61 30 134q33 78 92.5 144.5t142.5 109.5q73 38 156 38q11 0 23 -1q72 -2 105 -48q29 -40 29 -89v-13q-5 -57 -43.5 -106t-108.5 -57q16 16 30.5 45.5t15.5 57.5t-13.5 45.5t-57.5 10.5q-68 -10 -119 -55t-78.5 -101.5t-27.5 -111.5t35 -88q34 -24 73 -24 q17 0 36 4q59 16 119.5 60t113.5 105.5t88 118.5q43 68 82 151t72.5 168t62.5 163.5t48.5 140t30.5 99.5l11 38q-25 -8 -78 -25.5t-111.5 -38t-109.5 -39t-71 -28.5q-10 -4 -18.5 11.5t-10.5 39t4 51t27 45.5q14 14 62 40t111.5 54.5t137.5 56.5t139.5 49.5t117.5 32.5 q33 7 53 7q11 0 18 -2q12 -8 12 -30q0 -5 -1 -10q-3 -30 -14.5 -63.5t-29 -63.5t-33.5 -38q-4 -2 -18.5 -5t-33 -6t-36.5 -7t-29 -6q0 -2 -8 -51.5t-27.5 -130t-48 -184t-68.5 -212t-93.5 -214t-118.5 -191.5q-29 -37 -61.5 -76t-70.5 -73t-83 -60.5t-97 -40.5 q-49 -14 -110 -18h-16q-53 0 -99 22q-53 24 -92 84.5t-43 173.5z" />
<glyph unicode="K" horiz-adv-x="974" d="M66 78q0 37 15 102.5t39.5 151.5t57.5 185t70 201.5t74.5 202t72.5 187.5q-6 -4 -13 -7t-15 -7q-66 -32 -111 -32h-8q-47 3 -72.5 27.5t-33.5 63.5q-5 23 -5 45q0 16 2 31q6 43 32 69.5t54.5 40t56 17.5t37.5 2q4 -2 -10 -8.5t-31.5 -18.5t-32 -28.5t-12.5 -36.5 q2 -29 37 -17.5t83 41t101.5 65.5t90.5 58q47 31 71.5 31t47.5 -10q-4 -18 -18.5 -65.5t-36 -115t-49.5 -151.5t-58 -176q182 68 310 184t198 276q12 26 46 40q32 14 61 13h5q32 -1 50 -21q10 -10 9 -26q0 -14 -7 -32q-39 -92 -107 -175t-148.5 -153.5t-170 -123 t-173.5 -83.5q-2 -18 -2 -87.5t4.5 -159t14.5 -180.5t31 -154q12 -39 32.5 -65.5t51.5 -20.5q43 8 57 38q13 28 13 63q0 38 -12 78q-11 36 -24 56q57 -41 81 -98q18 -42 18 -84q0 -15 -2 -29q-8 -56 -42 -103.5t-89 -68.5q-12 -6 -40 -9q-10 -1 -21 -1q-18 0 -38 3 q-30 5 -60 23.5t-46 57.5q-23 51 -36 131t-20.5 168t-9.5 177t-2 159q-35 -102 -69.5 -205.5t-65.5 -195t-56.5 -164t-39.5 -111.5q-4 -10 -25.5 -22.5t-47.5 -15.5t-46 13q-18 14 -18 49v11z" />
<glyph unicode="L" horiz-adv-x="974" d="M10 231q25 -4 70 -7t100 -3q29 104 68 229t82 252t85 248t75.5 217.5t57 159t27.5 72.5q12 31 36 33h7q20 0 40 -10q24 -12 39.5 -33t9.5 -37q-4 -14 -23.5 -65.5t-47.5 -127.5t-61.5 -168t-69.5 -189t-70 -192.5t-60.5 -174.5t-45 -136t-20.5 -78q37 0 95.5 3t120 8.5 t113.5 12.5t77 15q20 6 24 16.5t-3 20.5t-23.5 19.5t-36.5 13.5q24 4 44 4q38 0 66 -14q42 -22 56 -61q5 -15 6 -31q0 -25 -12 -53q-20 -46 -84 -83q-61 -37 -155.5 -58.5t-192.5 -29.5q-60 -5 -115 -5q-35 0 -67 2q-85 5 -124 22q-54 29 -82 86q-15 32 -16 66q0 27 10 56z " />
<glyph unicode="M" horiz-adv-x="1269" d="M-2 688q8 43 28.5 78t46 55.5t38.5 16.5q-23 -37 -31 -66q-10 -25 -8 -45t24 -22h4q50 0 108 48q60 50 120.5 125.5t118 165t102.5 169t73.5 135t34.5 63.5q10 20 35 22.5t47.5 -10t35.5 -37t5 -57.5q-2 -6 -16 -47t-34.5 -100.5t-45.5 -130t-47.5 -137t-39.5 -123 t-26 -84.5q90 176 168 321q33 61 66 122.5t61.5 114t49 91.5t30.5 55q10 20 35 24.5t47 -7.5q23 -12 37 -38q9 -17 9 -40q0 -13 -3 -29q-4 -14 -23.5 -82t-49 -162t-63.5 -201.5t-64.5 -206t-54 -172t-32.5 -98.5q141 262 254 478q49 92 96.5 181t85 161.5t64.5 124t33 65.5 q13 25 39 29q8 1 15 1q19 -1 38 -7q27 -10 47 -28q18 -18 17 -35q0 -11 -30 -99q-28 -82 -67 -200t-86 -254t-88 -258t-72.5 -213t-39.5 -118q-16 -53 -16 -87q0 -22 6 -34q10 -20 28 -20q12 0 29 10q39 24 90 102t92 216q-4 -55 -27.5 -130t-62.5 -140.5t-88 -109.5 q-40 -36 -83 -36q-10 0 -20 2q-35 6 -55 25.5t-31.5 49t-12.5 65.5v10q0 31 5 63q2 16 15.5 64.5t32 113t41 138t43 140t36.5 119t25 74.5q-102 -203 -189 -373q-37 -74 -74.5 -146.5t-70.5 -135t-58.5 -109.5t-39.5 -69q-16 -25 -40 -23t-45.5 20.5t-33 48t-0.5 58.5 q4 10 24.5 75.5t49 158t62.5 201t64.5 205.5t53 172t30.5 102q-113 -213 -208 -390q-41 -76 -82 -150.5t-75 -138t-59.5 -109.5t-35.5 -64q-10 -16 -25.5 -15.5t-30 14t-21.5 36t3 51.5q2 8 13 38.5t25.5 74.5t33 97.5t36.5 106.5q43 127 97 283q-18 -27 -55 -69t-86.5 -86 t-104.5 -83t-107 -61q-46 -19 -87 -18h-11q-45 3 -74 44q-19 28 -19 60q-1 10 1 20z" />
<glyph unicode="N" horiz-adv-x="806" d="M33 1106q6 35 20.5 55.5t30.5 32.5q18 14 39 20q-2 -6 -10.5 -21t-14.5 -32.5t-6 -34t14 -22.5q23 -10 56 22.5t64.5 84t57 107.5t31.5 91q2 17 29 19q3 0 6 1q24 -1 52 -11q30 -12 55.5 -33t25.5 -48q-2 -16 -20.5 -80.5t-45 -152.5t-58 -187.5t-59.5 -184.5 t-47.5 -142.5t-21.5 -61.5q6 6 31 45t60.5 98.5t81 133.5t91.5 151.5t92 154.5t85 139.5t68.5 106.5t41.5 58t41 12t57 -13q30 -12 50 -30q17 -15 17 -30q0 -3 -1 -6q-4 -10 -24.5 -65.5t-50 -138.5t-65.5 -186.5t-72 -211t-66.5 -211t-49 -186.5t-21.5 -137v-14 q0 -41 15 -48q10 -4 20 -4q36 0 86 54q64 70 142 253q0 2 -9 -31t-29.5 -83t-48.5 -110.5t-63.5 -111.5t-77.5 -85t-87 -34q-43 0 -71 27.5t-40 74.5q-9 35 -9 79q0 15 1 31q4 62 25 134q8 29 30.5 106.5t53 177t65.5 207t68 195.5q-8 -8 -52.5 -74.5t-103.5 -163t-126 -206 t-125 -205.5t-97 -161.5t-43 -74.5q-16 -23 -33.5 -7t-30 48.5t-17.5 73.5q-1 12 -1 23q0 26 8 47q4 10 22.5 64.5t43 131t53.5 166.5t53.5 172t39.5 145.5t17 88.5q-34 -59 -80 -82q-39 -20 -74 -20q-6 0 -12 1q-40 4 -64 33q-16 20 -16 50q0 12 3 26z" />
<glyph unicode="O" horiz-adv-x="831" d="M1 318q-1 16 -1 33q0 63 9 135q11 92 42 194q55 184 142.5 330.5t187.5 247.5q99 100 201 149q79 38 148 38q20 0 38 -3q59 -10 98 -74q38 -63 50 -173q4 -41 4 -87q0 -78 -12 -170q-20 -147 -74 -322q-41 -129 -93.5 -224t-109 -162.5t-111.5 -110.5t-102 -68.5t-84 -37 t-53 -13.5q-10 -2 -20 -2q-19 0 -40 7q-33 11 -65.5 29.5t-60 39t-44.5 37.5q-18 25 -32.5 79t-17.5 128zM202 357q1 -83 18 -141t46 -83q98 20 178 89t140.5 161t103.5 194.5t68 190.5q-37 27 -76 72q-38 44 -62 108q-23 61 -23 139v7q1 82 42 182q-35 -25 -79 -62.5 t-93 -98t-98.5 -147.5t-92.5 -208q-41 -116 -57 -218q-15 -96 -15 -175v-10zM679 998q9 -62 33.5 -109t53.5 -80q35 137 40 243q1 28 1 56q0 76 -10 143q-9 53 -21 61q-5 3 -11 3q-8 0 -17 -6q-50 -92 -64 -170q-8 -47 -9 -88q0 -28 4 -53z" />
<glyph unicode="P" horiz-adv-x="821" d="M35 84q14 47 39.5 116.5t51.5 140.5t50.5 130t36.5 88l-8 5t-16.5 12.5t-13.5 16.5t-1 17q0 8 19.5 12.5t50.5 8.5q27 61 63.5 152t71.5 176t60.5 145.5t27.5 64.5q-47 -14 -89 -27.5t-67 -23.5q-18 -6 -21 -21.5t7 -26.5t30.5 -10t47.5 27q-6 -23 -17 -38 q-10 -14 -28.5 -24.5t-48.5 -2.5q-61 12 -94 59t-39 103q-2 13 -2 26q0 42 16 82q22 51 71 68q41 16 103.5 32.5t134.5 29.5q71 12 145 19q47 4 90 4q24 0 48 -1q64 -4 114.5 -19.5t73.5 -46.5q12 -27 24.5 -65.5t22.5 -80.5t16.5 -78t6.5 -56q-2 -31 -19.5 -81 t-52.5 -108.5t-86 -118t-117.5 -107.5t-149.5 -80t-179 -32q-25 -78 -54.5 -168t-56.5 -171.5t-47.5 -143t-28.5 -78.5q-14 -37 -48 -41q-7 -1 -13 -1q-26 0 -54 14q-34 16 -58 44q-16 20 -16 41q0 8 3 17zM440 672q174 25 298 137.5t194 298.5q-2 31 -17.5 54.5t-50.5 36.5 t-92 17q-14 1 -29 0q-49 0 -114 -8q-10 -27 -35 -93t-52.5 -146t-55.5 -161t-46 -136z" />
<glyph unicode="Q" horiz-adv-x="1079" d="M4 151q8 42 41 80.5t96 61.5q-5 41 -5 91q0 17 1 34q2 71 13.5 148t32 156t50.5 150q41 102 105.5 197.5t135.5 170.5t140.5 124t120.5 61q45 11 95 11h12q57 -2 102 -23.5t75 -67t30 -118.5q0 -111 -29 -248t-88.5 -278.5t-149.5 -274.5t-213 -233q14 -8 34 -20.5 t41.5 -24t40 -21.5t30.5 -14q72 -31 114 -31h9q43 4 59 25.5t14 50t-12 45.5q16 -16 29 -39q10 -18 19 -42t11 -50q0 -61 -39.5 -95t-111.5 -45h-16q-70 0 -165 29q-106 33 -229 102q-47 -33 -98 -47t-97 -17q-15 -1 -30 -1q-28 0 -52 4q-36 6 -52 14q-37 18 -54 56 q-13 25 -13 53q0 13 3 26zM100 113q6 -20 30 -31q22 -9 49 -9h5q31 1 61.5 12t53.5 32q-37 23 -75 32q-31 7 -56 7h-12q-29 -2 -46 -14q-12 -8 -12 -20q0 -4 2 -9zM195 303q30 5 59 5q18 0 36 -2q46 -5 85 -17.5t67.5 -25.5t38.5 -19q61 57 123 143t116 187.5t98 211 t68 214.5q22 100 22 188v8q-1 92 -34 160h-1q-14 0 -58 -31q-47 -33 -113.5 -97.5t-143.5 -156.5t-148.5 -210t-130 -258t-84.5 -300z" />
<glyph unicode="R" horiz-adv-x="925" d="M77 178q7 64 27.5 135.5t46 139t51 126t42.5 93.5q23 51 58.5 123.5t72.5 144.5t69.5 133.5t51.5 89.5q-39 -6 -85 -14t-86 -19.5t-69 -23.5t-31 -29q-4 -20 3.5 -31.5t19.5 -16.5t29.5 -6t33.5 1q-41 -27 -78 -35q-9 -2 -17 -2q-22 -1 -46 11q-32 16 -49 75q-8 29 -9 67 v5q0 35 13 71q14 38 48 75.5t95 68.5q31 14 87.5 30.5t126 29t146.5 16.5q25 1 49 1q51 1 97 -5q70 -8 126 -34t87 -73q14 -31 39 -78t43 -94q0 -18 -15.5 -64.5t-45 -104.5t-74.5 -121.5t-107.5 -118t-142.5 -91.5t-178 -43q14 -66 31.5 -133t37 -127.5t41 -106.5t43.5 -71 q20 -18 46 3.5t49.5 61t40 87t15.5 79.5q9 -37 10 -84v-9q-1 -52 -16.5 -106t-44 -103.5t-71.5 -84.5q-26 -16 -54 -23q-18 -4 -35 -4q-11 0 -21 1q-28 4 -50 18.5t-34 38.5q-10 20 -27.5 84t-35 147.5t-27.5 177.5q-5 51 -5 98q0 40 4 77q-8 4 -15 6t-11 6 q-18 -51 -41 -119.5t-46.5 -142.5t-47 -144.5t-44 -126t-36 -87t-23.5 -25.5q-43 20 -56 68q-8 32 -8 70q0 20 2 42zM397 694q9 -1 19 -1q56 -1 114 21q68 24 131.5 66.5t119 96t96.5 107.5t65 104q22 47 21 80v6q-50 26 -153 26q-81 0 -194 -16q-8 -18 -27.5 -60.5 t-43 -94.5t-49 -108.5t-47 -104.5t-36 -82t-16.5 -40z" />
<glyph unicode="S" horiz-adv-x="1050" d="M2 358q10 72 53 124t107 78q56 22 112 23l18 -1q64 -4 119.5 -43t80.5 -117q-44 44 -96 58q-29 8 -56 8q-21 0 -41 -6q-45 -12 -77 -46.5t-34 -87.5v-7q0 -50 27 -86q29 -38 77 -58.5t110 -25.5q24 -2 47 -2q37 0 77 5q64 8 123.5 27.5t102.5 50.5q69 49 69 102 q-1 4 -1 6q-4 56 -54 91q-35 27 -85 57.5t-104.5 64t-106.5 70.5t-93 79t-63 88q-18 36 -18 76q0 11 1 21q14 98 67.5 177t116 137.5t120.5 95.5t81 51q61 38 137 54q72 16 135 16q4 0 8 -1q66 -1 114.5 -17.5t56.5 -47.5q4 -15 4 -33q1 -17 -3 -37q-8 -42 -22 -83 t-31.5 -78t-29.5 -56q-49 -68 -94.5 -99.5t-79.5 -43.5q-30 -11 -58 -11q-8 0 -16 1q27 23 50.5 62.5t40.5 83.5t27.5 85t10.5 68q-19 12 -51 12q-7 0 -15 -1q-43 -3 -95 -19.5t-108.5 -47t-104.5 -70.5t-82 -90t-42 -106q-1 -7 -1 -14q1 -29 19 -59q24 -38 64.5 -74.5 t91.5 -71.5t102.5 -65.5t95.5 -56t68 -44.5q38 -29 56 -78q12 -34 13 -71q0 -17 -3 -35q-8 -57 -42 -115.5t-95.5 -106.5t-152.5 -81t-212 -37q-14 -1 -27 -1q-69 -1 -127 17q-70 20 -121.5 51t-84.5 66t-45 62q-33 72 -33 133q0 16 2 30z" />
<glyph unicode="T" horiz-adv-x="532" d="M34 1190q3 37 19.5 71.5t47 64.5t79.5 50q68 26 186 46q113 20 246 19h14q140 -1 284.5 -31.5t265.5 -106.5q16 -12 18 -37v-9q0 -19 -7 -39q-9 -24 -24.5 -39.5t-32.5 -7.5q-18 6 -57 14.5t-91 14.5t-116 10q-42 3 -87 3q-23 0 -46 -1q-10 -20 -34.5 -81.5t-57.5 -148.5 t-72 -191.5t-78.5 -211t-77.5 -208t-68 -182t-50.5 -132t-24.5 -59.5q-85 3 -85 86q0 36 16 86q4 16 33.5 94t70.5 186.5t87 232.5t88 233.5t72 189.5t38 100q-55 -4 -108.5 -8t-100.5 -10t-86 -13.5t-64 -19.5q-40 -15 -40 -47q0 -35 42 -39q10 -2 23.5 3t24.5 11 q12 8 22 17q-12 -43 -50 -71t-82 -29h-3q-42 0 -80 26q-39 27 -51 92q-4 23 -4 48q0 12 1 24z" />
<glyph unicode="U" horiz-adv-x="800" d="M8 213q10 35 36 118t57.5 186.5t66.5 217t64.5 208.5t50 159.5t22.5 73.5q8 29 7 52t-10 34.5t-27.5 7.5t-45.5 -29q-18 -16 -31.5 -40.5t-21.5 -47.5q-10 -27 -16 -53q-7 38 -7 73t7 67q14 64 47 110.5t81 74t103 27.5q45 0 77 -17.5t50.5 -46t22.5 -64.5q1 -12 1 -24 q0 -24 -5 -49q-6 -25 -37 -112.5t-72 -207.5t-87 -252t-84 -246q-39 -113 -61 -189q-19 -64 -19 -79q0 -2 1 -3q14 -18 47 1t74 63t88 105.5t92 128t84 131t66 114.5q23 39 54.5 103t66 137t69.5 148.5t63.5 140t48 111t25.5 58.5q14 31 35 32t39 -11q19 -12 30 -32 q7 -13 7 -23q0 -6 -2 -11q-6 -16 -33.5 -78.5t-65.5 -155t-84 -205t-91.5 -229.5t-83 -228.5t-61.5 -200.5q-26 -89 -32 -149q-2 -14 -1 -25q0 -37 16 -46q12 -7 25 -7q32 0 69 40q53 56 113 155q-29 -82 -66 -143q-31 -53 -75 -95q-38 -37 -85 -37q-7 0 -14 1q-64 6 -82 57 q-12 34 -12 79q0 22 3 47q9 75 37.5 162t61.5 165q-35 -51 -78 -116.5t-88 -127t-87 -112t-75 -70.5q-53 -35 -108 -38h-12q-47 1 -85 21q-41 24 -61 72q-10 25 -11 57q0 28 9 62z" />
<glyph unicode="V" horiz-adv-x="661" d="M2 176q2 8 10 60.5t20.5 134.5t28 184t32 210.5t33.5 213t31.5 189.5t25 143.5t16.5 74.5q6 25 35.5 35.5t61.5 2.5t54 -32q15 -17 15 -44q0 -11 -3 -25q-6 -31 -18 -99.5t-27.5 -158.5t-34 -194.5t-36 -208t-33.5 -199.5t-27.5 -170t-17.5 -117t-4 -41 q74 76 144.5 175.5t132 206t113.5 214t91 200.5t61.5 163.5t26.5 105.5q2 29 -11 45.5t-32.5 14t-41 -22.5t-34.5 -63q-6 -20 -6 -43t4 -44q4 -23 11 -49q-16 8 -35 33t-30 61q-10 33 -10 74v8q1 46 21 97q31 77 87 111q53 33 105 32h6q54 -2 94 -35q38 -31 38 -85v-5 q0 -57 -24.5 -147t-66.5 -201t-100.5 -233.5t-129 -244.5t-150.5 -236.5t-164 -207.5q-49 -55 -100 -60q-9 -1 -17 -1q-41 0 -72 20q-37 24 -59 69q-16 32 -16 65q0 12 2 24z" />
<glyph unicode="W" horiz-adv-x="970" d="M0 74v18q0 40 6 115q8 94 21.5 213t29 249t29.5 240.5t24.5 188.5t14.5 92q2 14 2 25q1 25 -9 41q-14 22 -32 20t-34 -28q-12 -21 -12 -59q0 -10 1 -20q-27 35 -32 74q-2 13 -2 26q1 25 7 48q10 35 33 62.5t53 39.5q12 7 50 11q8 1 16 0q31 0 62 -14q40 -18 69 -63 q21 -33 21 -91q0 -22 -3 -48q-2 -18 -9 -66t-17 -115.5t-22.5 -147.5t-24.5 -162q-29 -190 -66 -422q8 27 32.5 85t56.5 131t68 153t66.5 149.5t54 119.5t31.5 67q12 25 29.5 53t44.5 55t65 45.5t89 24.5q6 0 6 -37t-4 -99.5t-10.5 -142.5t-14.5 -164q-20 -197 -47 -446 q35 66 73 151.5t75.5 177t72.5 181.5t63.5 164.5t48 127t25.5 68.5q16 38 16 62q1 25 -11 35q-10 10 -26.5 7t-33.5 -16q-35 -31 -51 -83q-8 -24 -8 -50q0 -29 10 -61q-39 27 -59 65q-17 36 -17 86t45 121q27 41 66 69q39 26 80 38q27 8 52 8q12 0 26 -2q38 -6 63 -35 t31 -80q1 -10 2 -21q0 -45 -21 -108q-12 -39 -41.5 -124t-71.5 -195.5t-93.5 -237.5t-105.5 -250t-109.5 -232.5t-106.5 -185.5q-8 -10 -26 -10q-5 0 -10 1q-26 3 -53.5 14.5t-49 27t-25.5 27.5q-1 4 -1 11q0 22 5 68q6 62 15.5 147t21.5 182.5t22 185.5q9 89 14 155 q3 37 3 60q0 19 -2 30q-2 -2 -27.5 -62t-63.5 -150.5t-84 -196t-86 -200.5t-70 -165.5t-38 -87.5q-4 -10 -32.5 -11t-61.5 7t-59.5 24.5t-28.5 41.5z" />
<glyph unicode="X" horiz-adv-x="946" d="M0 77q0 40 21.5 75.5t48.5 35.5q-18 -20 -23.5 -40.5t1.5 -35t25.5 -19.5t47.5 5q41 18 95 69.5t106.5 111t96.5 116t66 84.5q-2 14 -5 75.5t-7 144.5t-8 176.5t-8 174t-7.5 137t-3.5 64.5q0 35 -14 50.5t-31.5 11.5t-32 -30t-14.5 -75q-14 46 -14 85q0 45 19 78 q37 63 95 83q25 8 49 8q33 0 67 -15q58 -26 71 -99q4 -27 9 -109t9.5 -179t7.5 -189.5t5 -141.5q2 0 29.5 42t68.5 106.5t89 141.5t92 146.5t76 122t42 68.5q55 74 103 77h8q44 0 66 -33q17 -25 17 -61q1 -15 -3 -33q-10 -58 -74 -104q20 25 23 49.5t-5 36.5t-25.5 7 t-37.5 -38q-10 -16 -42 -68t-75 -125t-93 -158t-97.5 -163.5t-87 -144.5t-62.5 -100q4 -92 11 -171t20 -124q6 -39 20.5 -51.5t29.5 -5t27.5 31t16.5 53.5q11 -38 11 -73q0 -10 -1 -20q-4 -44 -23 -76q-20 -32 -54 -50q-25 -13 -55 -14q-10 0 -21 2q-41 6 -70 45t-47.5 88 t-28.5 97.5t-14 70.5q-18 -18 -55 -63t-84.5 -93.5t-104.5 -90.5t-117 -54q-32 -7 -57 -7q-36 1 -56 17q-32 28 -32 67z" />
<glyph unicode="Y" horiz-adv-x="657" d="M2 110q6 50 47 115q-2 -17 -2 -32q0 -23 4 -41q4 -29 15.5 -49.5t35.5 -16.5q18 2 41 19.5t45.5 46t45 64.5t42.5 73q47 86 95 194q-12 37 -27.5 105.5t-32 157t-30 190.5t-21.5 205q-4 49 -24.5 63.5t-39 4t-23.5 -40.5q-1 -5 -1 -10q0 -28 23 -64q-63 18 -79 82 q-6 24 -6 51q0 41 15 86q23 55 67 82.5t91 30.5q6 1 13 1q39 0 74 -19q40 -22 56 -62q4 -10 9 -62.5t12.5 -124.5t13.5 -155.5t12 -158.5t9 -130.5t5 -73.5q10 16 33 57t51.5 95.5t62.5 118t64.5 124t58 112.5t44.5 87q16 37 16 62v5q-2 27 -15.5 31t-33 -19.5t-33.5 -80.5 q-8 37 -8 67q0 29 7 52q16 47 48.5 72.5t73.5 30.5q11 1 22 1q29 0 54 -9q35 -13 54 -44q10 -18 10 -42q0 -17 -5 -36q-12 -47 -61 -149.5t-115.5 -229.5t-142.5 -266t-144.5 -259t-121 -209t-70.5 -116q-39 -55 -86 -85.5t-93 -38.5q-16 -2 -30 -2q-29 0 -54 10 q-38 14 -57 46q-15 25 -15 61q0 11 1 23z" />
<glyph unicode="Z" horiz-adv-x="1132" d="M6 45q-3 10 -3 23q1 28 15 72q22 64 70.5 147.5t123.5 178.5t169 187q25 25 77 69t117.5 97t139 110.5t141.5 106.5t121 86t82 49q-138 51 -267 51h-2q-130 0 -230.5 -30.5t-164 -73.5t-71.5 -76q-15 28 -15 65q1 7 1 15q4 47 32.5 95.5t84.5 92.5t144 74q68 23 157 38 q88 16 186 17q5 0 10 1q93 0 185 -20q97 -20 179 -64q21 -16 21 -54q1 -34 -13 -70q-14 -38 -37.5 -70t-50.5 -40q-16 -12 -80.5 -56t-157.5 -111.5t-203 -153.5t-217.5 -183.5t-202.5 -202t-157 -204.5q60 -23 148 -31q47 -4 95 -4q43 0 87 3q94 7 185.5 27.5t158.5 53.5 q44 22 58 62q10 28 10 56q0 11 -2 22q-6 38 -29.5 66t-58.5 28q22 5 41 5q30 1 56 -11q42 -18 66.5 -56.5t29.5 -89.5q1 -11 1 -22q0 -40 -14 -82q-18 -52 -64.5 -100t-121.5 -81q-33 -14 -95.5 -27.5t-140.5 -22.5t-165 -13q-50 -2 -98 -2q-36 0 -71 1q-82 3 -150.5 15 t-109.5 37z" />
<glyph unicode="[" horiz-adv-x="1126" d="M104 -134.5q-2 19.5 12.5 37t40 30t54.5 12.5q33 123 82 274.5t99 300t96.5 280.5t76.5 216q-10 0 -18 -1t-17 -1q-29 0 -42 17.5t-11 39t22.5 43t61.5 29.5q18 2 35.5 4t36.5 4q14 8 31 4q109 10 204 3t138 -23q27 -14 28.5 -34t-12.5 -37t-41 -28.5t-53 -11.5 q-29 2 -87.5 2t-121.5 -2q-20 -53 -55 -147.5t-76 -206t-83 -229t-78 -219t-59.5 -177.5t-27.5 -100q45 -2 121 3t147 13q27 0 41.5 -17.5t12 -39t-21.5 -43t-60 -29.5q-66 -12 -132.5 -17t-127 -5t-109.5 6t-76 16q-29 14 -31 33.5z" />
<glyph unicode="\" horiz-adv-x="782" d="M109 1102q-4 43 5 77.5t29.5 38t50 -36t70.5 -143.5q6 -14 27.5 -73.5t52.5 -148.5t69 -197.5t75.5 -220t73.5 -217t63.5 -189.5t44 -136.5t14.5 -56.5q-8 -16 -43 -6t-68 64q-10 18 -34.5 79.5t-58.5 150.5t-74.5 197.5t-81.5 219t-80 216t-69 188.5t-48 135.5t-18 58.5 z" />
<glyph unicode="]" horiz-adv-x="1138" d="M103 -134.5q-1 19.5 13.5 37t40 29t54.5 11.5q29 -2 87 -2t122 2q20 53 55 147t76 206t83 229.5t78 219t59.5 176t27.5 101.5q-45 2 -121 -3t-148 -13q-29 0 -42 17t-11 38.5t21.5 43t60.5 30.5q63 12 131 17t128.5 5t109.5 -6t76 -16q29 -14 30.5 -34t-12.5 -37 t-41 -29.5t-53 -12.5q-35 -123 -83 -274.5t-98.5 -300t-96.5 -280.5t-77 -216q10 0 18.5 1t16.5 1q27 0 41.5 -17.5t12 -39t-23 -43t-60.5 -29.5l-36 -4l-36 -4q-14 -8 -31 -4q-109 -10 -204 -3t-138 23q-29 14 -30 33.5z" />
<glyph unicode="_" horiz-adv-x="1548" d="M105.5 112.5q5.5 26.5 46.5 30.5l1296 -8q6 -4 5 -18.5t-9 -35t-20.5 -42t-26.5 -39.5q-10 -12 -88 -21.5t-194 -16.5t-254 -10t-270 -2t-241.5 5t-169.5 14q-14 2 -35.5 29t-33 57.5t-6 57z" />
<glyph unicode="`" horiz-adv-x="557" d="M201 1031q2 20 14 31t27.5 8t27.5 -28q16 -37 43 -63.5t41 -32.5q-29 -10 -72.5 3.5t-66.5 41.5q-16 20 -14 40z" />
<glyph unicode="a" horiz-adv-x="497" d="M-41 59q-3 16 -3 36q0 23 4 51q7 52 22.5 112.5t37 126.5t43.5 129q53 147 127 313q20 39 54.5 58.5t68.5 19.5q55 0 100.5 -34.5t49.5 -88.5q31 12 53.5 -2t22.5 -57q0 -47 -29 -117q-16 -39 -42 -102.5t-50.5 -130t-46 -125t-29.5 -86.5q-4 -16 -8 -29.5t-4 -23.5 q0 -23 12 -25t35 20h2q45 45 77.5 90.5t52 84t30 65.5t13.5 37q-16 -94 -58.5 -198.5t-116.5 -180.5q-35 -39 -78 -39q-31 0 -53.5 31t-22.5 102q0 14 1 29.5t3 32.5q-23 -33 -46 -67t-42 -54q-39 -39 -94 -39q-31 0 -56.5 15.5t-29.5 45.5zM68 158q-3 -17 -2 -30 q0 -22 8 -32q2 -1 5 -1q9 -1 23 13q18 18 39 50t43.5 71t41 75t31.5 62.5t15 32.5q12 27 26.5 60t27 63.5t22.5 54t12 33.5q6 22 6 40q0 26 -12 45q-13 20 -31 20q-10 0 -22 -6q-16 -14 -43 -61.5t-56.5 -111t-58 -134t-48 -134t-27.5 -110.5z" />
<glyph unicode="b" horiz-adv-x="417" d="M-43 92q-1 21 -1 43q0 87 18 189q24 128 64 259.5t93 262.5t108.5 242.5t107.5 197.5t93 129q68 70 125 70q41 0 65.5 -29t24.5 -76q0 -16 -3 -29.5t-7 -29.5q-18 -59 -48 -125t-64.5 -131.5t-72.5 -125.5t-75 -105q29 0 49 -29q9 -14 9 -35q0 -23 -11 -53 q-4 -10 -7 -18.5t-7 -18.5q-14 -39 -24 -77q-7 -24 -7 -45q0 -12 2 -23q8 -25 28 -24q12 -1 27 7q43 22 91 131l20 -6q-35 -125 -97 -185q-43 -42 -87 -42q-20 0 -41 8l-4 -8q-2 -2 -2 -4q-12 -35 -32 -86.5t-44.5 -105.5t-53 -103t-57.5 -78q-18 -16 -42.5 -27.5 t-51.5 -11.5q-33 0 -57.5 20.5t-28.5 71.5zM86 186q0 -53 10 -55q3 -2 8 -2q10 -1 24 13q20 20 39 54.5t39.5 81t37 89.5t28 77.5t13.5 51.5q-12 27 -13 84q0 33 5.5 69.5t15.5 69.5q-25 -25 -51.5 -46.5t-42.5 -31.5q-25 -59 -45.5 -123.5t-36 -126t-23.5 -115t-8 -90.5z M229 748q55 45 100.5 104t84.5 123.5t69.5 131.5t55.5 126q18 43 18 65q0 18 -13 18q-4 0 -8 -1q-20 -6 -44 -39q-53 -78 -125 -215t-138 -313z" />
<glyph unicode="c" horiz-adv-x="362" d="M-43 158q0 82 27.5 178t56.5 178q31 88 58.5 161t57 125t65.5 80.5t85 28.5q57 0 91 -35.5t34 -105.5q0 -47 -19.5 -102.5t-74.5 -102.5q-12 -10 -23 -10q-18 0 -18 22q0 14 7 34t16.5 43.5t16.5 46t7 42.5q0 12 -4 29.5t-12 17.5q-14 0 -47 -59q2 2 -14.5 -32.5t-42 -91 t-55.5 -127t-56.5 -140.5t-44 -128t-17.5 -91q0 -27 12 -39h-2q12 -8 25 -8q33 0 77 36.5t87 87t80 102.5t57 81q18 29 31.5 50.5t17.5 21.5v-2q-2 -4 -4 -17.5t-12 -40.5q-4 -12 -21.5 -45t-44 -76t-60.5 -90t-73 -86t-80 -64.5t-80 -25.5q-59 0 -81.5 45t-22.5 109z" />
<glyph unicode="d" horiz-adv-x="464" d="M-36 92q-8 30 -8 69q0 74 28 183q18 72 35.5 140.5t35 127t30.5 101.5t24 63q29 68 78 100.5t96 32.5q35 0 67.5 -15t52.5 -44q20 66 45 145.5t48 151.5q25 82 51 168v2q18 41 67 41q23 0 45.5 -9.5t38.5 -23.5q17 -15 25 -33q4 -9 4 -18.5t-4 -20.5q-6 -16 -27.5 -72.5 t-52.5 -139.5t-66.5 -184t-72.5 -205.5t-70 -205t-58.5 -181.5t-37.5 -136q-9 -41 -9 -59q0 -6 1 -9q10 -8 33.5 22t49 72t46 81.5t24.5 52.5l17 -2q2 -12 -9.5 -46t-30 -76t-44 -85t-54.5 -74q-18 -20 -38.5 -32.5t-40.5 -12.5q-31 0 -51.5 29.5t-20.5 95.5q0 63 25 172 l2 6q-32 -140 -92 -208q-52 -60 -98 -60q-6 0 -12 1q-50 9 -72 95zM71 135q-1 -8 0 -15q0 -27 9 -32v2q18 -6 45 32t55.5 99.5t59 137t55 143t41 118t20.5 62.5v2q8 18 8 32q0 16 -9 28q-17 22 -46 22q-23 0 -44 -14.5t-38 -49.5h2q-14 -27 -33.5 -81t-40 -119.5t-40 -136 t-30.5 -130t-14 -100.5z" />
<glyph unicode="e" horiz-adv-x="385" d="M-43 143q4 61 27.5 149.5t51 175.5t54.5 156.5t39 94.5q20 39 40.5 75.5t47.5 64.5t59 42q25 11 57 11q9 0 19 -1q72 -10 96.5 -48t24.5 -85q0 -31 -6 -58.5t-14 -45.5q-31 -72 -69 -134.5t-81 -109.5t-89 -77.5t-91 -37.5q-10 -16 -25.5 -51t-28 -72.5t-14 -69.5 t16.5 -42q15 -8 32 -8q24 0 53 14q50 24 102 76.5t102.5 123t84.5 144.5q-6 -16 -25.5 -68.5t-54 -116t-82.5 -125t-112 -97.5h2q-33 -23 -88 -23q-49 0 -91 30q-38 28 -38 99v14zM156 406q31 14 57.5 38.5t49 53t42 59.5t35.5 59q27 43 35 79q5 21 5 35q0 12 -3 20 q-5 15 -18 15q-3 0 -5 -1q-18 -4 -45 -41q-12 -16 -33.5 -58t-46 -91.5t-45 -95.5t-28.5 -72z" />
<glyph unicode="f" horiz-adv-x="405" d="M-195 -543q0 86 22.5 204t59.5 250t81 268t87 261q23 68 55.5 152t68.5 174t73 181t70.5 173t61.5 147.5t44 104.5q8 23 13 34t5 9v4q12 29 38 40t55 11q45 0 75 -22q19 -15 19 -35q0 -10 -6 -22q-2 -2 -10.5 -15.5t-18.5 -42.5q-25 -45 -60.5 -117.5t-79.5 -168 t-92.5 -209t-95.5 -238.5q18 -12 19 -86q0 -53 -11.5 -151.5t-39.5 -253.5q24 -9 46 -9q29 0 53 16q42 27 69.5 76.5t44 105.5t26.5 97v-14q0 -61 -15 -131q-16 -80 -49.5 -143.5t-86.5 -97.5q-30 -20 -65 -20q-27 0 -56 11q-35 -188 -82 -338q-20 -63 -44 -124.5 t-52.5 -111t-60.5 -79t-66 -31.5q-12 0 -28.5 5t-31 20.5t-25 43t-10.5 72.5zM-82 -557q-4 -21 -4 -31t4 -10q18 0 40 31.5t44.5 84t43 119t38.5 134.5q12 47 23.5 89t19.5 77q8 39 16 75q-12 8 -25.5 25.5t-21.5 38.5q-2 -4 -2 -10.5t-2 -10.5q-8 -27 -26.5 -86t-40 -132 t-44 -149.5t-39 -140t-24.5 -104.5zM158 201q0 -41 10 -62q4 27 10.5 78t14.5 102q10 66 21 105q8 29 8 31q0 1 -1 -2q-63 -152 -63 -252z" />
<glyph unicode="g" horiz-adv-x="487" d="M-221 -551q0 39 18 88q20 53 63.5 120t97.5 132.5t112.5 123.5t111.5 93q2 4 11 27q6 18 18 53t33 100q-29 -53 -64 -102q-31 -41 -64.5 -62.5t-64.5 -21.5q-45 0 -75.5 37t-30.5 102v15q0 56 12 138q14 93 38.5 190.5t55.5 183.5t60 129q35 61 94 87.5t121 26.5 q45 0 87 -13t72.5 -37.5t46.5 -58.5q10 -22 10 -47q0 -13 -3 -26q-8 -23 -23.5 -70t-37 -107.5t-46 -128t-48.5 -132t-45.5 -121.5t-37.5 -96q74 47 138.5 127t99.5 194q-10 -137 -84 -240.5t-191 -189.5q-23 -61 -54.5 -144t-68.5 -167t-72.5 -158t-66.5 -117 q-41 -57 -104 -57q-47 0 -83 34t-36 95zM-126 -512q-2 -9 -2 -17q0 -19 13 -28q3 -2 7 -2q6 0 14 5q14 9 30.5 29.5t34 48t33.5 58.5q16 33 40 84t46 101q25 57 49 118q-20 -20 -44.5 -49t-47 -57.5t-42 -53t-28.5 -36.5q-14 -18 -36.5 -55t-41 -75t-25.5 -71zM57 172v-9 q0 -33 13 -44q4 -1 7 -1q20 0 43 28q27 32 57 86.5t58.5 121t52 129t41 111.5t23.5 68v2q8 22 8 38t-8 26q-16 22 -43 22q-25 0 -55.5 -18.5t-46.5 -53.5q-10 -18 -27.5 -64.5t-38 -103.5t-39 -121.5t-31 -120t-14.5 -96.5z" />
<glyph unicode="h" horiz-adv-x="497" d="M-83 28q-4 13 -4 29q0 22 9 49q8 23 35 90.5t63.5 164t81.5 212t91.5 233.5t90.5 229.5t78.5 200.5t57 145.5t26.5 64.5q10 23 37 26q6 1 11 1q22 1 44 -9q28 -12 46 -30q14 -14 13 -29q0 -5 -1 -10q-8 -18 -33.5 -75.5t-64.5 -147t-88.5 -204t-106.5 -245.5 q-4 -10 -10 -24.5t-12 -26.5q35 53 65.5 94t59.5 61q49 33 94 33q42 0 66 -32q15 -20 15 -51q0 -20 -6 -44q-6 -23 -26.5 -76t-48.5 -122q-29 -70 -59.5 -147t-55.5 -141.5t-38 -107.5t-5 -45q3 -1 7 -1q18 0 46 33q33 40 66 93t60.5 102.5t37.5 59.5q0 -6 -12 -39 t-32.5 -77t-48.5 -93t-57.5 -90t-60.5 -65.5t-59 -18.5q-29 6 -40 31.5t-11 64.5q0 57 19 136t47 161t56.5 154.5t47.5 116.5q6 16 8 20l4 8q-29 0 -72 -62.5t-92 -158.5t-101.5 -212t-101.5 -226q-20 -41 -49 -51q-13 -5 -24 -5q-14 -1 -28 7q-24 14 -35 46z" />
<glyph unicode="i" horiz-adv-x="231" d="M-72 137q14 68 46 163t66 191.5t63.5 177t43.5 117.5q10 25 28 36.5t40 11.5q18 0 36.5 -9.5t31 -25t16.5 -37t-6 -45.5q-4 -10 -13.5 -30.5t-21.5 -49.5q-18 -45 -43 -104.5t-51.5 -126t-52 -136t-45.5 -133.5q-12 -35 -5 -53t29 4q37 29 65.5 74t50 91t39 85t31.5 57 q0 -18 -19 -75.5t-51 -122t-72 -122t-83 -73.5q-15 -6 -32 -6q-7 0 -13 1q-26 3 -46 19q-20 14 -30 44q-6 17 -5 40q0 17 3 37zM227 965q0 23 9.5 44t26 36.5t38.5 21.5q9 3 20 2q14 0 31 -4q25 -10 37 -31.5t12 -48.5q0 -20 -8 -40.5t-23.5 -36t-37.5 -21.5q-10 -3 -21 -3 q-14 0 -30 5q-29 8 -41.5 29.5t-12.5 46.5z" />
<glyph unicode="j" horiz-adv-x="272" d="M-418 -548q19 24 53 24q35 0 54 -29q37 72 77.5 172t82.5 216t84 241t81 246.5t73 232.5t60 197v2q10 25 41 36t62 11q33 0 53.5 -11.5t20.5 -27.5v-4q-6 -23 -19.5 -61t-31 -86t-37 -103t-37.5 -109q-45 -127 -97 -270q37 6 75 45t70 84t54.5 81t26.5 40q6 4 -8.5 -40 t-45 -102.5t-77.5 -118t-107 -85.5q-6 -2 -28.5 -55.5t-57.5 -133.5t-78 -172t-91 -171t-99 -131t-98 -52q-41 0 -60 24q-17 24 -17 52q0 32 21 58zM221 965q0 22 8 45q12 41 44 60.5t61 19.5q31 0 54.5 -20.5t23.5 -61.5q0 -33 -11.5 -56.5t-28 -40t-35 -24.5t-34.5 -8 q-35 0 -58.5 22.5t-23.5 63.5z" />
<glyph unicode="k" horiz-adv-x="507" d="M-89 88q0 25 15 55q8 23 36 90.5t66 163t84 211t93 232t92 228.5t81 200t58.5 145t26.5 66q11 25 39 27q6 1 13 1q22 0 44 -7q29 -10 47 -28q13 -13 14 -27q0 -5 -2 -11q-33 -66 -59.5 -129.5t-55 -135t-62 -158.5t-79.5 -200q94 96 156 96q45 0 72.5 -38t27.5 -83 q0 -43 -23.5 -93t-67.5 -95t-108.5 -79t-146.5 -46q-14 -41 -20 -87t-6 -89q0 -39 2 -73t8 -59.5t18.5 -40.5t32.5 -15q51 0 92 43t73 96t52.5 102t32.5 62q-27 -131 -89 -238.5t-153 -161.5q-30 -11 -54 -11q-15 0 -27 4q-32 11 -51 39t-26 68t-7 81q0 27 2 55t6 61 q-25 -59 -50.5 -123.5t-52.5 -117.5q-31 -61 -71 -62q-16 0 -33 9.5t-28 26.5q-12 19 -12 46zM262 551q55 4 105.5 29.5t82.5 58.5t42 67q3 10 3 20q0 22 -18 40v2q-6 6 -15 6q-8 0 -20 -5q-22 -11 -52 -42t-63.5 -76t-64.5 -100z" />
<glyph unicode="l" horiz-adv-x="280" d="M-51 106q0 74 28.5 185.5t72.5 239.5t97.5 261.5t104.5 247t93 196.5t65 114q49 68 100 101.5t92 33.5q44 0 70 -33q21 -27 22 -70q0 -10 -2 -22q-4 -41 -24.5 -102.5t-53 -133t-75.5 -146.5t-94.5 -142.5t-107.5 -120.5t-116 -82q-12 -25 -31.5 -73t-40 -105.5t-40 -119 t-31.5 -112.5t-15 -86t9 -41q37 2 76.5 44t76.5 92.5t67 97.5t42 63q-10 -37 -35 -93t-60.5 -113.5t-79.5 -106.5t-93 -70q-23 -11 -43 -11q-21 0 -39 12q-35 24 -35 95zM223 692q51 31 103.5 88.5t99.5 126t87 142t63 137.5q24 64 30 112q2 12 2 22q0 30 -14 42q-6 4 -13 4 q-14 0 -31 -14q-26 -22 -54.5 -66.5t-60.5 -106t-62 -126.5q-72 -156 -150 -361z" />
<glyph unicode="m" horiz-adv-x="823" d="M-59 80q0 33 12 67q8 25 26.5 82.5t42 129t49 148.5t48 143.5t40 113.5t23.5 57q12 23 40 41.5t54 18.5q27 0 45.5 -14.5t18.5 -49.5q-4 -23 -18.5 -66.5t-33 -97t-40 -109t-37.5 -100.5q4 4 6 9q25 39 52.5 86t54 90t47 75.5t30.5 45.5q39 43 76 43q35 0 59.5 -25 t24.5 -43q0 -20 -9 -61t-23.5 -91.5t-30 -104.5t-29.5 -99q-10 -33 -18.5 -56.5t-12.5 -38.5q8 18 27.5 62.5t44.5 103t51.5 122t51 118.5t41 96t22.5 53q29 66 86 66q29 0 55.5 -20.5t30.5 -53.5q0 -18 -27.5 -98t-62.5 -186q-27 -78 -58.5 -162t-56.5 -152.5t-38 -112.5 t-3 -44q35 2 75 44t75.5 95t66.5 103t47 71q-6 -35 -36.5 -98.5t-73.5 -127t-91.5 -110.5t-86.5 -47q-41 0 -55.5 30.5t-14.5 79.5q0 53 12 122t33 134q-29 -61 -58.5 -126.5t-56 -121t-49 -95t-35.5 -52.5v2q-14 -16 -38.5 -16t-47 10t-36 28.5t-7.5 41.5q4 12 17.5 56 t32 102.5t38 125t38 125t30.5 101.5t16 55q-18 -31 -45.5 -78t-59.5 -104.5t-67 -117.5t-67 -118q-23 -41 -43.5 -77.5t-36.5 -65.5q-14 -29 -33.5 -41t-36.5 -12q-29 0 -48 26.5t-19 69.5z" />
<glyph unicode="n" d="M-63 74q0 35 14 69q23 59 51.5 139t56.5 158q25 70 48.5 136.5t44 122t36 93t23.5 52.5h-2q12 25 31.5 35t40.5 10q33 0 57 -17.5t24 -42.5q0 -10 -11 -44.5t-30.5 -84t-43 -109t-46.5 -116.5q-16 -41 -27 -65.5t-17.5 -39t-8.5 -22.5l-4 -16q45 88 91 181t83 169 q43 88 82 172q16 25 37.5 36t46.5 11q36 1 64 -21q25 -19 24 -47v-8q-4 -23 -23.5 -78t-46.5 -126q-29 -80 -61.5 -171.5t-59 -171t-39 -135t-1.5 -61.5h-2q18 -10 47.5 25.5t61.5 88t59.5 107.5t44.5 86q-2 -10 -12.5 -45t-27 -80t-39 -93t-49.5 -88q-26 -41 -56 -65 q-25 -21 -51 -21q-4 0 -9 1q-43 4 -58.5 44t-15.5 99q0 66 13.5 146t25.5 139q0 4 1 6t1 4v4q-12 -23 -27.5 -58.5t-29.5 -62.5h2q-35 -72 -74 -146.5t-76 -133.5q-14 -23 -36.5 -37t-49.5 -14q-31 0 -54 21.5t-23 64.5z" />
<glyph unicode="o" horiz-adv-x="366" d="M-51 164q0 45 11 115.5t30 142.5q23 76 47 144.5t46.5 122.5t42 94t30.5 59q18 35 55 51t72 16q27 0 50 -7t40.5 -21.5t25 -35t-1.5 -44.5q-4 -12 -10 -27q-12 -33 -25.5 -71.5t-17.5 -75.5q-2 -21 -2 -38q0 -41 10 -55q14 -20 39 -11t54.5 38t52.5 53 q-27 -66 -56.5 -96.5t-56.5 -40.5q-31 -12 -61 -6q-8 -35 -24.5 -93.5t-40 -123t-54.5 -123.5t-64 -96q-35 -35 -86 -35q-29 0 -56.5 17.5t-37.5 48.5q-12 33 -12 98zM59 125q0 -23 3.5 -38t13.5 -19v-2q2 -1 5 -1q13 -1 37 35q28 42 57.5 111.5t55 154.5t37.5 160 q-10 16 -17 45t-7 66q0 27 2 51.5t12 52.5q-6 -16 -18.5 -37.5t-22.5 -41.5h2q-41 -82 -70.5 -170.5t-52.5 -161.5q-10 -41 -23.5 -100.5t-13.5 -104.5z" />
<glyph unicode="p" horiz-adv-x="522" d="M-225 -504q20 63 57 182t81 260.5t91 291t87 276.5t67.5 217t36.5 111q12 35 46.5 53t69.5 18q31 0 49.5 -16.5t6.5 -48.5q-10 -25 -27.5 -73t-34.5 -99q23 41 51.5 86t60.5 80.5t63 55.5q25 16 48 16q6 0 13 -1q61 -18 61 -143q0 -68 -17.5 -158t-58.5 -192 q-35 -94 -86 -175t-118 -147q37 12 75.5 42t75.5 71t69.5 91t57.5 99q0 -10 -18.5 -56t-49 -102.5t-71.5 -111.5t-88 -86q-59 -37 -111 -37q-47 0 -84 29.5t-51 89.5q-10 -31 -24.5 -80t-32 -108.5t-38 -124t-38.5 -128.5q-45 -147 -94 -315q-12 -31 -38 -31t-49.5 21.5 t-36.5 60.5q-7 20 -7 41q0 20 6 41zM213 219q0 -41 13 -59q7 -9 17 -9q11 0 27 11q57 59 104.5 151.5t77 181.5t38.5 159q4 23 4 39q0 34 -13 42q-7 5 -15 5q-11 0 -24 -9q-24 -16 -49.5 -50t-52.5 -81t-49.5 -98t-40 -100.5t-25.5 -88.5q-12 -53 -12 -94z" />
<glyph unicode="q" horiz-adv-x="485" d="M-41 137q0 23 3 45.5t7 46.5q10 61 26.5 135t41 152t56.5 156t73 147v-2q25 45 69 67.5t84 22.5q43 0 78 -20.5t41 -65.5q27 20 49.5 15t37 -25t19.5 -46.5t-3 -49.5q-4 -6 -18.5 -44t-35 -92.5t-44 -120t-46 -127t-40 -112.5t-23.5 -78q-3 -16 -3 -28q0 -24 11 -35 q16 -15 41 -6q45 14 91 82.5t97 158.5q0 -4 -9 -30.5t-24.5 -62.5t-37 -77t-47 -73.5t-54 -51t-59.5 -12.5v-21q0 -53 -8 -118q-10 -78 -31.5 -160t-53.5 -162t-73 -143q-25 -37 -52.5 -55.5t-49.5 -18.5q-41 0 -62 45q-12 28 -12 72q0 26 4 57q8 41 24.5 114t39 157t47 171 t49.5 158q-16 -23 -34.5 -42t-39.5 -33q-27 -17 -52 -17q-19 0 -37 10q-40 25 -40 117zM82 175q-1 -11 -1 -19q0 -20 7 -21q8 -4 31.5 24.5t53.5 76t59.5 107t52.5 114.5q10 25 23.5 58.5t25.5 67t20 62.5t11 45q3 21 3 36q0 20 -4 30q-8 20 -24 20q-27 0 -51 -31 q-27 -35 -55.5 -92t-54 -123.5t-46 -135t-34 -125t-17.5 -94.5zM97 -548q-1 -11 -1 -19q0 -10 2 -15h3q17 0 44 46q29 49 56.5 128.5t48 176t20.5 186.5v37q-12 -33 -29.5 -82t-35 -98.5t-29.5 -89.5t-16 -54q-14 -41 -27.5 -82t-23 -75.5t-12.5 -58.5zM98 -582l2 -2z" />
<glyph unicode="r" horiz-adv-x="444" d="M-104 29q2 4 14 33.5t32.5 77.5t46 107.5t52.5 125.5q27 63 52.5 123.5t47 110.5t37 86t21.5 52q-29 21 -36 57q-3 13 -3 26q0 22 8 42q10 23 35.5 32t48.5 9q29 0 48 -11t15 -34q0 -4 -1 -6t-1 -4q-2 -4 -2 -10q61 33 100.5 39t55.5 8h8q33 0 49.5 -31.5t16.5 -55.5v-5 q-4 -6 -32 -57.5t-64.5 -127t-76.5 -162.5t-72 -164q-32 -76 -47 -130q-8 -28 -8 -44q0 -14 7 -18q11 -6 22 -6q22 0 48 23q40 35 78 89t68 110.5t40 78.5q-33 -117 -78 -205q-20 -37 -45 -72.5t-55 -63.5q-29 -28 -64 -42q-25 -10 -53 -10q-11 0 -23 2q-46 6 -72 40 q-17 21 -16 54q0 20 6 43q14 55 47 141.5t70 173.5t71 160.5t48 106.5q10 20 3 27.5t-21.5 6.5t-31 -8.5t-26.5 -15.5q-6 -14 -16 -41.5t-27 -66.5q-29 -68 -65.5 -155t-70.5 -168t-60.5 -142.5t-34.5 -77.5q-14 -33 -31.5 -47.5t-32 -18.5t-23.5 1t-7 14z" />
<glyph unicode="s" horiz-adv-x="405" d="M-77 120q-5 1 -5 8q0 14 19 52q4 10 25.5 52t51 101.5t64.5 130.5t67.5 137.5t59 120.5t41.5 85q23 45 62.5 65.5t76.5 20.5q29 0 48.5 -11.5t23.5 -33.5v-6q1 -16 -7 -58q-10 -50 -26 -121t-36.5 -151t-41 -156.5t-38 -139t-25.5 -95.5q-6 -27 10 -27t44 20.5t58.5 60.5 t54.5 95q-16 -80 -55 -141q-31 -53 -83 -97t-136 -48q-25 0 -49.5 10t-46 29.5t-34.5 49t-15 70.5q-4 31 -8.5 52.5t-14.5 11.5q-12 -12 -18 -25.5t-17 -27.5v2q-35 -39 -50 -36zM96 326q23 -4 35 -20.5t17.5 -40t5.5 -51.5v-52v-32.5t-2 -14.5h2q6 0 15 26.5t20.5 70.5 t22.5 100.5t21 115.5q20 112 33 174q8 40 8 56q0 8 -2 10q-47 -92 -92 -178.5t-84 -163.5z" />
<glyph unicode="t" horiz-adv-x="288" d="M-41 88q0 49 17.5 124t46 161t63.5 178t71 178t67.5 160t54.5 123q10 23 14 32t8 17h-76q-16 0 -18 15.5t3 33.5t14 33.5t16 15.5h100q29 66 49.5 117t36.5 86q18 39 31 70q10 23 38.5 36t61.5 13q43 -1 74 -21q19 -13 19 -33q0 -13 -7 -28q-35 -53 -63.5 -113.5 t-63.5 -126.5q21 -1 48 -1h29q46 1 85 1h41q18 0 27.5 -15.5t9.5 -33.5t-11.5 -33.5t-31.5 -15.5h-66q-47 0 -98 1h-31q-28 0 -45 -1l-10 -19h2q-14 -31 -43 -94t-63.5 -143t-73.5 -169t-75 -174t-63.5 -158t-42.5 -120q-12 -37 -11.5 -57t11.5 -23q3 -1 7 -1q22 0 57 32 q41 37 87 107.5t71 152.5q-4 -53 -34 -129t-75 -142q-45 -64 -101 -104q-36 -25 -71 -26q-20 0 -41 8q-45 25 -45 86z" />
<glyph unicode="u" horiz-adv-x="540" d="M-41 117q0 51 18 106q16 43 38 100.5t44 116.5q20 55 44 112.5t43.5 112t34 102.5t18.5 87q4 29 21.5 41t37.5 12q29 0 58.5 -23.5t41.5 -58.5q2 -16 -10 -53t-31.5 -86t-45 -105.5t-50.5 -113.5q-29 -66 -55.5 -126t-42.5 -105q-10 -23 -9 -37.5t10 -17.5t25.5 7.5 t36.5 38.5q43 53 84 133t78 166t66.5 165t46.5 128q10 23 28.5 34t40.5 11q30 0 54 -22q16 -15 16 -39q0 -12 -4 -27v-2q-4 -14 -19.5 -50t-33.5 -87q-25 -61 -54.5 -136t-58.5 -148.5t-52.5 -139.5t-35.5 -109q-8 -23 -6 -35t9 -18t17.5 -5t22.5 5q23 8 50.5 42t54 81 t51 103.5t41.5 111.5q-14 -84 -39 -162q-23 -66 -61 -134t-97 -109q-14 -10 -32.5 -15.5t-33.5 -5.5q-43 0 -67 41q-14 24 -15 60q0 25 7 55q4 33 20 86q-29 -49 -59.5 -89t-61 -68t-62.5 -40q-17 -7 -35 -7q-15 0 -30 5q-57 27 -57 111z" />
<glyph unicode="v" horiz-adv-x="483" d="M-43 158q6 33 20.5 90t33 125.5t40 140.5t41 134.5t35.5 109.5t27 63q14 25 38 45q24 21 48 29q15 5 28 5q8 0 16 -2q20 -5 27 -30q0 -20 -12 -66t-30.5 -106.5t-42 -127t-44.5 -126.5q-20 -59 -39.5 -117.5t-36 -106.5t-26.5 -83t-10 -43q8 -4 30.5 27t55 86t69.5 130 t72 161q18 45 37.5 95t36.5 99q18 51 36.5 97.5t34.5 84.5q6 12 24.5 17.5t37 3.5t32 -11.5t7.5 -27.5q-35 -74 -54.5 -134.5t-19.5 -94.5q0 -23 15 -18t48 52q28 43 40 40q3 -1 4 -6q0 -13 -21 -54q-29 -61 -71 -85q-19 -11 -38 -11q-23 0 -45 16q-2 -4 -2 -6t-4 -8 q-18 -41 -43.5 -101.5t-57.5 -126t-69 -129t-73 -110.5q-37 -46 -74 -70q-23 -15 -45 -15q-13 0 -25 5q-35 16 -46 64q-7 31 -7 63q0 16 2 33z" />
<glyph unicode="w" horiz-adv-x="759" d="M-41 88q0 43 12 102q6 25 21.5 75t35 114.5t41 134.5t41 133.5t34 111.5t22.5 70q16 41 49 60.5t61 19.5q35 0 55.5 -20.5t4.5 -48.5h2q-10 -25 -28.5 -73t-42 -108.5t-48 -127t-47 -127t-39 -108.5t-24.5 -73q-10 -31 -14.5 -54.5t5.5 -12.5q78 88 135.5 189t96.5 192 q16 39 30.5 74.5t26.5 68.5q16 45 37 84q14 27 38.5 46t49.5 27.5t45.5 2.5t26.5 -33q2 -14 -8.5 -52t-29 -91.5t-42 -117t-47.5 -126.5q-23 -55 -42.5 -109.5t-34.5 -97.5t-25.5 -73.5t-10.5 -41.5q8 -4 31.5 27t56.5 86t70 130t71 161q18 45 37 95t37 99q18 51 37 97.5 t33 85.5q6 12 25.5 17t38 3t30.5 -11t6 -28q-35 -74 -53 -134t-18 -95q0 -23 15 -17.5t46 52.5q11 16 23 9q6 -3 6 -11t-7 -19h3q-29 -61 -71 -88q-18 -12 -36 -12q-23 0 -47 20q-4 -8 -6 -14q-16 -41 -43 -101.5t-58.5 -126t-68.5 -129t-74 -110.5q-37 -46 -74 -70 q-23 -15 -44 -15q-13 0 -25 5q-35 16 -47 64q-7 30 -7 60q0 18 3 36q2 8 3 18.5t5 22.5q-25 -35 -53.5 -70t-59.5 -63.5t-60.5 -47t-56.5 -18.5q-33 0 -44 22.5t-11 59.5z" />
<glyph unicode="x" horiz-adv-x="622" d="M-45 120q2 34 9 72.5t16.5 80.5t21.5 83q12 35 39 54.5t52.5 22.5t39.5 -9t2 -41q-18 -49 -33.5 -96t-24.5 -86t-12 -67t7 -36q10 -6 28.5 12.5t40 50.5t44 70.5t42 73.5t31.5 61.5t16 32.5q8 14 17.5 40t20 52.5t19.5 52l15 42.5v-2q2 6 8 18h-2q14 43 15 82 q0 35 -17.5 55.5t-48.5 16.5q-35 -8 -61.5 -69.5t-42.5 -156.5q-4 -29 -27 -42t-45 -13q-25 0 -43.5 17.5t-13.5 48.5q6 51 21 105t36.5 102.5t49.5 83t58 51.5q27 12 51.5 18t43.5 6q88 0 127 -94q8 14 16 23q25 35 58.5 53t64.5 18q39 0 70.5 -19.5t48.5 -53.5 q10 -27 10 -68q0 -47 -21.5 -101.5t-74.5 -103.5q-29 -25 -42.5 -9.5t5.5 46.5q27 40 39 96q5 24 5 44q0 26 -9 44q-6 6 -22.5 -7t-33.5 -48q-10 -20 -59.5 -128.5t-112.5 -276.5q-49 -126 -58 -184q-3 -21 -3 -37q0 -29 10 -42q10 -6 21 -7q23 0 52 24q44 35 89 90 t86 116.5t63 96.5q4 4 7.5 11t1.5 3q-10 -37 -45 -111.5t-87 -146.5q-50 -72 -112 -118q-44 -33 -86 -33q-17 0 -35 6q-35 14 -47 52t-12 89q0 16 1 33.5t3 34.5q-23 -43 -51.5 -87t-59.5 -73h2q-18 -20 -43.5 -29.5t-52.5 -9.5q-29 0 -54.5 15.5t-29.5 45.5q-3 17 -3 37 q0 11 1 22zM666 393q2 2 2 3t2 3q-2 -2 -2 -3t-2 -3z" />
<glyph unicode="y" d="M-154 -543q10 39 38 103.5t70 137.5t96 144.5t118 124.5q8 20 20.5 58t26.5 80t25.5 81t17.5 62q-66 -125 -117 -187.5t-104 -62.5q-33 0 -61 24q-23 18 -23 54q0 10 2 22q2 18 26.5 87t59.5 160t75 191.5t74 182.5q16 41 31 75.5t25 59.5q8 20 30.5 30.5t47.5 10.5 q35 0 65.5 -19.5t20.5 -50.5q-4 -12 -26 -56t-50 -107q-35 -76 -76 -167.5t-77 -170t-59 -132.5l-24 -53h-2q12 -6 35 25t51.5 84t60 120.5t62.5 135t57.5 127t45.5 96.5q12 27 38.5 40t53.5 13q29 0 45 -19.5t2 -60.5q-6 -12 -21.5 -56t-36 -104.5t-45 -131t-49.5 -136.5 q-27 -70 -47 -127t-31 -90q45 25 85 65t75 87t61.5 95t43.5 87q0 -27 -19.5 -79t-57.5 -113.5t-94.5 -127t-129.5 -118.5q-18 -49 -41 -115.5t-49.5 -138.5t-58.5 -140.5t-67.5 -123t-77.5 -87.5q-40 -30 -82 -30h-5q-35 2 -52 37q-8 19 -8 48q0 24 6 56zM-100 -537 q-6 -21 -6 -35q0 -20 13 -24q3 -1 6 -1q20 0 50 34q18 18 46 72.5t57.5 122t55 137t38.5 122.5q-18 -10 -56 -59t-79 -114.5t-77 -135t-48 -119.5z" />
<glyph unicode="z" horiz-adv-x="399" d="M-360 -584q6 41 23.5 83t31.5 65q16 35 55 94t92.5 123.5t120 126t137.5 102.5q8 29 10.5 61.5t2.5 65.5q0 29 -2 53.5t-5 42.5q-2 23 -4 41q-27 18 -51 3t-53 -50q-10 -12 -21.5 -9t-20.5 17.5t-15.5 37t-6.5 44.5q0 23 6.5 43.5t22.5 30.5q27 16 50.5 23.5t45.5 11.5 q4 2 9.5 2t9.5 2q6 8 16 22.5t25 32.5q4 6 10 12.5t12 14.5q-61 2 -88.5 31.5t-27.5 72.5q0 29 9 61t25.5 62.5t38 57t45.5 45.5q49 35 96.5 47t86.5 12q20 0 35.5 -2t25.5 -6q16 -4 34.5 -22.5t30.5 -42.5q13 -27 12 -59q0 -28 -13 -52q-10 -16 -30 -41t-44.5 -53.5 t-51 -60.5t-51.5 -60q-41 -47 -70.5 -83t-33.5 -38q10 -14 17.5 -45t11.5 -68t6 -74.5t2 -68.5q0 -23 -1 -28t-1 -13q61 37 107 88t76 98t44 80t14 31q-2 -43 -21 -94t-53 -103.5t-79 -100.5t-96 -83q-12 -70 -46 -157t-77 -167q-35 -66 -80 -130t-96.5 -115.5t-103.5 -84 t-99 -32.5q-41 0 -51 30q-6 19 -7 42q1 14 3 30zM-268 -590q2 -2 5 -1q13 0 50 30q41 35 88 95t90 130t76 138.5t45 121.5q-66 -41 -127 -105.5t-108.5 -131t-79 -125t-37.5 -88.5q-7 -30 -7 -46q0 -14 5 -18zM129 582q0 -27 23 -56q33 45 65.5 86t42.5 58q33 41 33 73 q-1 19 -19 21h-3q-18 0 -50 -21q-35 -18 -63.5 -66t-28.5 -95z" />
<glyph unicode="{" horiz-adv-x="710" d="M107.5 -43q-27.5 76 25.5 186q18 29 34.5 46.5t32 33t27 31.5t17.5 43q6 20 3 40.5t-9.5 40t-10.5 37t2 34.5q41 33 61.5 56t26 46.5t-2 53.5t-19.5 77q-18 80 4.5 138.5t63 95t90 50t84.5 3.5q53 -16 67 -41t4 -48.5t-39.5 -39t-66.5 -9.5q-25 2 -48.5 -5t-39 -27.5 t-19.5 -55t8 -88.5q10 -43 5 -80.5t-21 -68.5t-42 -55.5t-54 -44.5q23 -27 20.5 -67t-16.5 -85t-32.5 -91t-27 -86t-1 -70t46.5 -40q33 -12 41 -38.5t-3.5 -51t-38 -38t-63.5 0.5q-82 41 -109.5 117z" />
<glyph unicode="|" horiz-adv-x="516" d="M190 112v199.5t1.5 230t2.5 232.5t2 209t3 157.5t2 78.5q4 113 20.5 159.5t37 50t40 -26.5t29.5 -73q2 -4 1 -60.5t-2 -144.5t-4.5 -199.5t-7.5 -230.5t-8 -234.5t-8 -211.5t-8 -162t-6 -86q-14 -61 -45 -81.5t-43 -6.5q-2 2 -4.5 57.5t-2.5 142.5z" />
<glyph unicode="}" horiz-adv-x="714" d="M102.5 -72.5q10.5 23.5 40 39t66.5 8.5q25 -2 48.5 5.5t38.5 28t19 55t-8 88.5q-10 43 -5 80.5t21.5 68.5t42 55.5t54.5 44.5q-23 27 -21 67t16.5 85t33 91t26.5 86t1 69.5t-46 40.5q-33 12 -41 38.5t3 51t38 38t64 -0.5q82 -41 109.5 -117t-25.5 -186q-18 -29 -35 -46.5 t-32 -33t-26.5 -31.5t-17.5 -43q-6 -20 -3 -40.5t9 -40t10 -38t-2 -33.5q-41 -35 -61.5 -57t-25.5 -46t2 -53.5t20 -76.5q18 -80 -4.5 -138.5t-63.5 -95t-90 -50t-84 -3.5q-53 14 -67.5 40t-4 49.5z" />
<glyph unicode="&#xa1;" horiz-adv-x="837" d="M111 -277q2 6 30.5 75.5t69.5 173t91.5 223.5t95.5 226.5t82 185.5t51 99q16 16 38.5 25.5t43 12.5t37 0t18.5 -11q2 -6 -20.5 -82t-57.5 -188.5t-78 -243.5t-81.5 -248t-67.5 -202t-35 -103q-10 -29 -54 -43.5t-88 -8t-71 32t-4 76.5zM572 849q4 41 12 80t31 84 q10 20 32.5 26.5t44 0.5t35 -25.5t5.5 -54.5q-8 -33 -20 -65.5t-28 -71.5q-4 -12 -22.5 -15.5t-37.5 0t-35.5 13.5t-16.5 28z" />
<glyph unicode="&#xa2;" horiz-adv-x="614" d="M105.5 495q-5.5 56 9 123.5t38 138t42.5 126.5q23 70 49 128t53 95q29 43 67.5 54t73.5 -5l4 12q29 70 45.5 95.5t22.5 21.5t4 -28.5t-8 -55.5q0 -4 -8.5 -22.5t-20.5 -53.5q4 -4 6 -8t6 -10q6 -18 8.5 -44t-5 -56.5t-24.5 -63.5t-48 -61q-16 -10 -23.5 -2t2.5 24 q16 27 27.5 59.5t11.5 63.5q-27 -68 -57.5 -146.5t-62 -158.5t-61.5 -151.5t-50 -123.5q25 0 56.5 24t64 57.5t62.5 71.5t52.5 69.5t34.5 49t8 11.5q-6 -14 -35.5 -67.5t-71.5 -111.5t-91 -104.5t-99 -44.5q-6 -14 -10 -23t-6 -13q-18 -37 -32.5 -41.5t-14.5 8.5 q0 16 9 36.5t18 41.5q-41 29 -46.5 85zM172 532.5q-8 -45.5 2 -65.5q23 63 53.5 144t62.5 165t61.5 162t51.5 133q-16 -14 -34 -49q-6 -10 -20.5 -40t-35 -76t-45 -105.5t-51.5 -126.5q-37 -96 -45 -141.5z" />
<glyph unicode="&#xa7;" horiz-adv-x="43" d="M-1380 -496q-6 23 111.5 60t321.5 72.5t474 65.5t568 39t605 -10.5t586 -78.5q43 -10 73 -51t39 -86t-7.5 -77t-67.5 -20q-139 41 -329.5 67t-404.5 37t-436.5 10t-424 -10t-371.5 -25.5t-277 -35.5q-94 -12 -176 -15t-143 3t-98 19.5t-43 35.5z" />
<glyph unicode="&#xa8;" horiz-adv-x="645" d="M208 991.5q-3 20.5 6 40t27.5 30.5t43.5 -1q18 -10 22 -29.5t-4 -38t-27.5 -29t-46.5 0.5q-18 6 -21 26.5zM339 974.5q-3 20.5 6 40t27.5 29.5t43.5 -2q18 -8 22 -27.5t-4 -38t-27.5 -28.5t-46.5 0q-18 6 -21 26.5z" />
<glyph unicode="&#xa9;" horiz-adv-x="1507" d="M215 1028q-6 37 4 80t45 72q18 14 38 24t36 21q20 10 42.5 22.5t27.5 46.5q0 2 -1 5.5t-1 7.5v6q8 -6 22 -25.5t6 -38.5q-4 -8 -18.5 -19t-24.5 -20q-18 -12 -38.5 -24t-39 -27.5t-30 -33t-9.5 -40.5q2 -16 12.5 -24t23 -11t26.5 -2t24 3q35 8 59.5 27.5t44 44t36 49 t39.5 42.5q18 16 40.5 32t45.5 22q27 6 58.5 5t61 -11.5t55 -32t42.5 -53.5q16 -39 -0.5 -75t-44.5 -75q-10 -14 -18.5 -23.5t-4.5 -25.5q4 -12 15.5 -20.5t21.5 -10.5q43 -6 96 21q33 16 67 36.5t62 14.5q14 -2 35 -11.5t39 -23.5t32.5 -31.5t18.5 -38.5q6 -41 -4 -75.5 t-10 -69.5q0 -16 17.5 -34.5t17.5 -39.5q0 -10 -12.5 -18t-10.5 -19q2 -8 7 -15t8 -15q4 -12 -9.5 -25.5t-9.5 -21.5q10 -16 19.5 -24.5t-0.5 -23.5q-4 -8 -8.5 -18t-4.5 -20q53 31 84 53t39 57q2 6 0 13.5t-6 11.5t-10 1t-8 -12q-4 -6 -6.5 -13t-6.5 -7q-8 0 -5 15.5 t5 19.5q10 16 25.5 16t23.5 -12q14 -16 4 -42t-20 -36q-8 -10 -21.5 -20.5t-25.5 -18.5q-16 -10 -33.5 -21.5t-38.5 -21.5v-10q35 20 64 -6q16 -16 16 -38t-11 -38t-28.5 -24.5t-38.5 1.5q-8 -43 -52 -68.5t-89 -35.5q-35 -6 -73 -9t-72 -1q-92 6 -136 71q-20 -29 -47 -34 q-31 -6 -46 13t-15 45t13 47.5t42 19.5q-2 8 -3 17t-5 17q-57 16 -102 43q-20 16 -19 39q2 14 12.5 22.5t22.5 7.5t22.5 -9t12.5 -27q-2 -8 -7.5 -4t-12.5 11.5t-15 10.5t-14 -6q-8 -10 -2 -20t18 -18q16 -10 34.5 -16.5t41.5 -14.5q-4 8 -4 10q14 4 13 15.5t-11 21.5 q-8 6 -18.5 8t-14.5 12q-4 8 1 15.5t11 14.5t10.5 14.5t-2.5 17.5q-10 16 -30.5 23.5t-30.5 29.5q-4 16 3 27.5t17 25.5q12 16 5 28.5t-20 22t-29.5 17.5t-24.5 18q-29 29 -30 68t15 68q6 10 17.5 21t21 22.5t13.5 23.5t-6 25q-8 8 -23 6q-27 -4 -48.5 -21.5t-45.5 -33.5 q-37 -23 -77 -25t-75 8q-27 8 -56.5 27.5t-37.5 54.5zM225 1083q-4 -29 3.5 -58.5t37.5 -47.5q37 -25 89.5 -28t95.5 22q14 8 31.5 21.5t36 23.5t34.5 13t29 -9q14 -14 13 -27.5t-10.5 -25t-20.5 -22.5t-19 -23q-16 -25 -16.5 -64t28.5 -67q6 -6 19.5 -13.5t26.5 -14.5 t22.5 -18.5t9.5 -27.5t-17.5 -30.5t-13.5 -35.5q4 -14 19.5 -22.5t25.5 -12.5q0 35 25.5 68t62.5 49q10 4 19.5 8t25.5 2q37 -6 72 -16t70 -39q-4 39 -17.5 76t-48.5 65q-29 23 -59.5 18t-63.5 -9q-18 -4 -38.5 -4t-34.5 4q-27 6 -40.5 30.5t-11.5 49.5q2 23 16.5 43 t33 40.5t36 40t27.5 39.5q16 33 7 60.5t-17 38.5q-20 20 -43 30.5t-47 3.5q-18 -4 -40 -16t-43.5 -27.5t-41 -32t-29.5 -28.5q-23 -29 -56.5 -49.5t-66.5 -24.5q-10 -2 -26.5 -2t-26.5 6q-12 8 -20.5 22.5t-10.5 27.5q0 27 15.5 47t38 36.5t48 31t44.5 32.5q14 12 18 23.5 t-12 33.5q2 -25 -13.5 -41t-38 -29.5t-49 -27.5t-47.5 -33q-37 -35 -41 -80zM492 1139q20 18 43.5 35.5t48 30t50 15.5t50.5 -10q16 -10 35.5 -29.5t17.5 -66.5q0 -23 -12 -43t-29.5 -38.5t-36 -37t-30.5 -39.5q-4 -6 -9.5 -17t-5.5 -19q-2 -14 4.5 -33t14.5 -29q6 -4 16 -9 t21 -7q20 -4 45.5 -1t52.5 7q14 2 31.5 4t29.5 -2q51 -16 73 -66.5t30 -103.5q8 31 21.5 60.5t27.5 54t26.5 43t16.5 26.5q12 16 27.5 31.5t33 24t34 5.5t30.5 -24q-2 12 -4 25.5t-12 23.5q-12 16 -37 30.5t-45 20.5q-39 14 -82 -12q-35 -20 -75 -38.5t-79 -14.5 q-14 2 -32.5 11t-22.5 32q-4 14 7 28.5t21 24.5q20 25 37 55.5t13 57.5q-4 29 -21.5 51.5t-42 36.5t-51.5 21.5t-49 7.5q-23 -2 -44 -6.5t-44 -20.5q-31 -23 -54.5 -45.5t-39.5 -50.5zM646 342q1 -14 9 -25q10 -14 26.5 -16t29.5 8q16 8 30 31q2 4 5.5 -4t7.5 -12 q41 -51 120 -58q70 -6 136.5 6t111.5 47q10 8 20.5 22.5t10.5 31.5q0 8 -3 17t-7 18q-4 12 -4 20q-4 12 -9 33q-29 -16 -57.5 -29.5t-50.5 -23.5q-10 -4 -13 0t7 10q27 16 54.5 28.5t57.5 28.5q0 10 -1 20.5t-1 20.5q-2 10 -2 33q-2 8 -2 16t-2 19q-2 8 -3 16t-5 16 q-4 16 -14.5 23.5t-20.5 15.5q23 16 14.5 43t-18.5 54q-25 -14 -46 -29.5t-46 -34.5q-10 -6 -18.5 -13t-14.5 -11q-10 -8 -18 4q-20 27 -55 41t-64 20q-25 6 -33 4t-18 -18q-10 -25 -2 -51.5t26 -53.5q-29 -35 -37 -76.5t-12 -87.5q12 -4 19 -4q37 -10 86 -16t94 -12 q14 -4 14 -8.5t-10 -6.5q-49 4 -101.5 12.5t-101.5 18.5v-14q-2 -10 -1 -26.5t-5 -20.5q-4 -4 -16.5 3t-16.5 11q-2 4 -6 16q-14 0 -24.5 -8t-15.5 -21.5t-4 -27.5zM652.5 530.5q15.5 -6.5 25.5 -16.5q23 -18 10 -41q-2 -4 -6 -4q2 -4 2 -5t2 -5q10 -2 19.5 -4t19.5 -6 q2 43 12.5 83.5t36.5 79.5q-29 29 -31 63t17 60q-39 -10 -67.5 -41.5t-37.5 -62.5q-4 -10 0 -16.5t11 -16.5q10 -14 5 -25.5t-16 -19.5q-18 -16 -2.5 -22.5zM666 338q-6 14 1 22.5t17 11.5t20.5 -1t14.5 -17q-10 -4 -20.5 -8t-10.5 -24q-6 10 1 21t13 15q-10 12 -24 4 t-12 -24zM690 440q4 -12 6 -24.5t6 -24.5q10 -10 21 -10v51q-12 4 -33 8zM707 197q0 10 6 20q6 6 16 6q6 0 10 -2l6 -6v21q0 2 1.5 3t1.5 3q2 0 2 1t2 1t3 -1t3 -1v-6v-60v-6h-6q-2 0 -4 2l-3 4v2q-2 -2 -2 -3t-2 -3q-2 0 -3 -1t-3 -1h-6q-6 0 -10 2q-2 0 -6 4q-4 8 -4 10 q-2 2 -2 11zM719 197q0 -4 1 -5.5t1 -5.5q4 -4 6 -4q2 -2 6 -2h6q4 4 4 6q2 2 2 11q0 6 -2 8q0 2 -4 6q-2 2 -6 2q-6 0 -8 -2q0 -2 -4 -6q0 -2 -1 -4t-1 -4zM770 197q0 10 2 14t10 8t15 4q6 0 8 -2q4 0 8 -4q4 0 4 -4q2 -2 2 -6l-2 -4h-4h-2q-2 0 -2 1t-2 1q0 6 -4 6 q-2 2 -6 2q-6 0 -11 -4q-4 -8 -4 -12q0 -6 2 -9q0 -4 2 -4q0 -4 5 -4q2 0 3 -1t3 -1t3 1t3 1q4 4 4 6l4 4h2h4q2 -2 2 -4q0 -4 -2 -6q0 -2 -4 -6q-2 0 -6 -4h-12q-12 0 -19 6q-6 6 -6 21zM788 555q6 16 32 23.5t48 7.5q6 -2 15.5 -5t13.5 -8q4 -4 4 -12t-4 -12 q12 -14 9 -35.5t-15 -38.5q-14 -16 -38 -26.5t-44 -6.5q14 4 25.5 7.5t21.5 11.5q-27 -4 -46 13.5t-11 45.5q6 25 39 39q-14 0 -26.5 -2t-23.5 -2zM813 524q-10 -27 2.5 -40t30.5 -15q18 0 31.5 9t18.5 22.5t3 27t-14 19.5q-4 2 -5 2t-6 2q-4 2 -12 2q-16 -2 -30.5 -9 t-18.5 -20zM827 197q0 4 1 6t1 4q2 4 7 8q4 4 8 6t10 2q8 0 12 -2q2 -2 4 -3t4 -3q4 -4 5 -8q2 -4 2 -10q0 -8 -2 -13q0 -4 -5 -8q-2 -2 -4 -3t-4 -3h-12q-8 0 -10 2q-4 0 -8 4q-2 2 -3.5 4t-3.5 4q0 4 -1 6.5t-1 6.5zM842 197q0 -6 2 -11q0 -2 4 -6q2 0 3 -1t3 -1q6 0 10 6 q4 4 4 13q0 4 -4 12q-4 4 -10 4q-4 0 -6 -2q-4 0 -4 -6q-2 -2 -2 -8zM856 508q0 14 12 10q10 0 11 -10q-4 -10 -13 -10q-10 0 -10 10zM870 512q0 -4 2 -4q5 0 5 4q0 2 -5 2q-2 0 -2 -2zM885 174q0 4 2 6l12 17l-10 14q-2 2 -2 4v2v4q2 2 6 2l2 -2q4 0 4 -4l8 -10l11 10 q0 2 2 4t4 2q4 0 4 -2q2 0 2 -4v-2l-2 -4l-10 -14l10 -17q4 -4 4 -6t-1 -2t-1 -2h-4h-4l-4 4l-11 14l-8 -14l-4 -4h-4h-4q-2 2 -2 4zM905 443.5q2 13.5 6 13.5v-15.5t7 -11.5q8 -2 13 3t15 5q6 -20 22.5 -14t22.5 18q14 -8 21 -2q6 6 0 21q12 -10 4 -25q-4 -4 -12.5 -5 t-12.5 3q-4 -4 -8 -10t-14 -6q-14 -2 -19.5 6t-7.5 8q-8 0 -13 -5t-16 -1q-10 4 -8 17.5zM936 156v4h4h2h2h4q2 0 2 2q2 2 2 6l2 2l-16 41q0 2 -1 3t-1 3l2 2q0 2 2 4h2q4 0 6 -2q0 -2 2 -4l11 -33l12 29q0 6 2 6q0 2 2 4h2h4q0 -2 2 -2v-4v-2q0 -2 -1 -2t-1 -2l-16 -45 q-4 -8 -4 -10q-4 -4 -7 -4q-2 -2 -10 -2q-6 0 -8 2q-2 0 -2 4zM942 670q16 18 37.5 43.5t43 49t42 39t37.5 13.5q23 0 37 -20q4 18 11 44.5t-1 49.5q-6 20 -22.5 27.5t-32.5 3.5q-16 -6 -34 -21.5t-24 -26.5q-35 -51 -63.5 -102t-30.5 -100zM954 596v16q4 -12 4 -24.5v-28.5 q5 -51 15 -84q-14 20 -15.5 53t-3.5 68zM963 383q0 12 18 16q21 4 25 -6q0 -4 -6.5 -3t-14.5 -3q-10 -2 -15 -5t-7 1zM963 684q23 18 40 32.5t39 28.5q12 10 28.5 19.5t27.5 1.5q-4 -2 -6 -4q-6 -4 -7 -6q14 -25 17.5 -51.5t-10.5 -49.5q33 -27 35.5 -59.5t7.5 -65.5 q2 -12 2 -24t2 -25l12 6q-2 15 4 31q2 8 6 13.5t4 11.5q2 10 -5 15t-11 13q-8 10 -2 19.5t14 19.5q8 16 -2 24.5t-12 22.5q0 12 12 22.5t10 20.5q-2 14 -14 27.5t-16 30.5q-4 8 -1 15t1 11q-4 12 -20.5 19.5t-26.5 5.5q-12 -2 -31 -17.5t-37 -35t-34.5 -40t-26.5 -32.5z M967 373q0 6 20 10q23 4 23 0t-6.5 -3t-14.5 -1q-23 -8 -22 -6zM987 176q0 2 1 3t1 3q2 0 3 1t3 1t4 -2t2 -6t-2 -4q0 -2 -4 -2t-6 2zM998.5 520q0.5 19 11.5 33q-4 4 -7.5 15.5t7.5 13.5q29 4 58.5 0t39.5 -27q-4 2 -7 2t-7 2l4 -4q10 -16 9 -35.5t-17 -34.5q4 2 13 5.5 t13 7.5q-4 -10 -20 -19q-18 -10 -43 -9t-41 17q-14 14 -13.5 33zM1006.5 528.5q-5.5 -16.5 9.5 -32.5q18 -20 38.5 -18.5t33 16t12.5 34t-25 33.5q-23 2 -47 -4v-2q-16 -10 -21.5 -26.5zM1016 197q0 10 2 14t10 8q4 4 14 4q6 0 9 -2q4 0 8 -4l4 -4q0 -2 1 -3t1 -3l-2 -4h-4 h-4l-2 2l-4 6q-2 2 -9 2q-4 0 -8 -4q-4 -8 -4 -12q0 -6 2 -9q0 -4 2 -4q0 -4 4 -4q2 0 3 -1t3 -1t3.5 1t3.5 1q4 4 4 6l4 4h2h4q2 -2 2 -4q0 -4 -2 -6q0 -2 -4 -6l-8 -4h-11q-12 0 -18 6t-6 21zM1047 518q4 10 12 10q10 0 10 -10t-12 -10q-10 0 -10 10zM1059 522q0 -4 4 -4 l2 4q0 2 -2 4q-4 0 -4 -4zM1073 197q0 8 2 10q2 4 6 8t9 6q2 2 10 2t10 -2q4 -2 5 -3t5 -3q4 -4 4 -8q2 -4 2 -10q0 -8 -2 -13q0 -4 -4 -8q-4 -2 -5 -3t-5 -3h-10q-8 0 -10 2q-4 0 -9 4q-2 2 -3 4t-3 4q-2 4 -2 13zM1087 186l7 -6q2 0 3 -1t3 -1q6 0 10 6q4 4 4 13 q0 4 -4 12q-4 4 -10 4q-4 0 -6 -2q-4 0 -7 -6v-8v-11zM1137 178v37q0 4 2 6q0 2 4 2q2 0 4 -2t2 -4v-2q4 4 8 6q2 2 8 2t9 -2l6 -6l6 6q4 2 10 2t8 -2q4 -2 4 -3t2 -3t2 -12v-25q0 -6 -2 -6q-2 -2 -4 -2q-4 0 -6 2q-2 0 -2 2v4v23v6q0 2 -2 4q0 2 -4 2t-6 -2l-4 -4v-12v-17 q0 -2 -2 -4v-2q-2 -2 -6 -2q-2 0 -5 2q-2 0 -2 6v21v8q0 2 -1 2t-1 2q-2 2 -4 2q-6 0 -10 -4q0 -4 -1 -7t-1 -7v-17v-6q-2 -2 -6 -2t-4 2q-2 0 -2 6zM1141 465l6 -31q4 4 7 6t7 6q-8 16 -10 25q-4 -2 -5 -3t-5 -3zM1147 424q2 -12 8 -23.5t6 -23.5q20 -10 36.5 -2t25 23.5 t6.5 33t-19 27.5q-25 10 -45 -2q4 -14 4 -17q-2 -6 -9 -9t-13 -7zM1167 399q2 18 19.5 27.5t32.5 -2.5q-8 2 -17.5 0t-13.5 -8q12 3 18 -13q-18 10 -39 -4z" />
<glyph unicode="&#xab;" horiz-adv-x="512" d="M102 1061q-2 10 2.5 30.5t14.5 41t27 38t44 23.5q2 -14 3.5 -31.5t5.5 -34.5q2 -20 6 -38q2 -16 8 -60.5t13 -91.5t13.5 -85t10.5 -44q-6 -4 -11.5 -11t-9.5 -14q-4 -6 -13 -9t-13 -3q-4 10 -18.5 23.5t-24.5 42.5q-6 14 -15.5 43.5t-18.5 63.5t-16.5 65.5t-7.5 50.5z M248 1075q0 10 3 30.5t14 41t28.5 38t44.5 23.5q0 -14 2 -32.5t4 -34.5q2 -21 6 -39q2 -16 8.5 -60.5t14.5 -90.5t14 -84t8 -44q-6 -4 -11 -11t-9 -13t-12.5 -9.5t-12.5 -3.5q-6 10 -19.5 23.5t-23.5 42.5q-6 14 -15 44t-18.5 63.5t-17.5 65.5t-8 50z" />
<glyph unicode="&#xad;" horiz-adv-x="673" d="M139 485.5q-2 22.5 10.5 39t36.5 16.5q2 0 32 -1t73 -1t93 -2t94 -2t74 -1.5t34 -1.5q12 -6 -0.5 -38.5t-50.5 -59.5q-14 -16 -57.5 -24.5t-93.5 -11.5t-97 -1t-72 6q-37 12 -55.5 36t-20.5 46.5z" />
<glyph unicode="&#xb0;" horiz-adv-x="350" d="M101 1098.5q-5 31.5 9.5 60.5t43 45t67.5 -2q29 -14 35 -45t-6 -58.5t-42 -44t-71 0.5q-31 12 -36 43.5zM121.5 1106.5q2.5 -23.5 25.5 -31.5q31 -12 52.5 0t31 32.5t5 43.5t-24.5 33q-29 14 -50.5 2t-31.5 -34t-7.5 -45.5z" />
<glyph unicode="&#xb1;" horiz-adv-x="634" d="M99 112.5q-1 14.5 7 30.5q4 4 36 7.5t77 4.5t97.5 2t97.5 0t75.5 -3.5t34.5 -6.5q0 -12 -4 -28q-2 -8 -2 -15q-6 -14 -10 -23t-16.5 -15.5t-38 -9.5t-72.5 -3q-41 0 -84 1t-79 2t-60.5 4t-28.5 6q-4 2 -11 8t-12.5 15t-6.5 23.5zM99 437.5q-1 13.5 7 29.5q6 6 50.5 9 t103.5 5q0 61 2 108.5t6 51.5q6 0 13.5 -1t13.5 -1q8 -2 16 -2q14 -6 23.5 -11t15.5 -17.5t9 -38t3 -72.5v-17q63 0 109.5 -2t50.5 -6v-14t-2 -15q-2 -8 -2 -14q-6 -14 -10 -23.5t-16.5 -15.5t-38 -10t-72.5 -4h-21q-2 -51 -4 -88t-6 -43q-2 -4 -8 -11.5t-15.5 -11.5 t-23.5 -5t-31 7q-4 4 -7 49t-5 105q-51 4 -89 6t-44 6q-4 2 -11 7t-11.5 15.5t-5.5 24z" />
<glyph unicode="&#xb4;" horiz-adv-x="571" d="M209 944q14 6 41 32.5t43 63.5q12 25 27.5 28t27.5 -8t14.5 -30.5t-14.5 -40.5q-23 -29 -66.5 -42t-72.5 -3z" />
<glyph unicode="&#xbb;" horiz-adv-x="512" d="M117 823q2 6 8 44t14 84t14.5 90.5t8.5 60.5q4 18 6 39q2 16 3 34.5t3 32.5q27 -6 44.5 -23.5t28.5 -38t14 -41t3 -30.5q0 -18 -8 -50t-17.5 -65.5t-18.5 -63.5t-15 -44q-10 -29 -23.5 -42t-19.5 -24q-4 0 -12.5 3.5t-12.5 9.5t-9 13t-11 11zM262 809q2 6 9.5 44t14.5 85 t13 91t8 61q2 18 6 38q2 16 4.5 34t4.5 32q27 -6 44 -23.5t27 -38t14.5 -41t2.5 -30.5q0 -18 -7.5 -50t-16.5 -66t-18.5 -63.5t-15.5 -43.5q-10 -29 -24.5 -42.5t-18.5 -23.5q-4 0 -13 3t-13 9t-9.5 13.5t-11.5 11.5z" />
<glyph unicode="&#xbf;" horiz-adv-x="1280" d="M107 -107q10 70 57 161t140 185t237.5 183.5t347.5 154.5q47 18 66.5 60t31.5 104q4 25 25.5 30t45 -4.5t41 -28t13.5 -38.5q-4 -27 -13 -66t-23.5 -75.5t-34 -66.5t-46.5 -38q-119 -39 -210 -87t-160.5 -98t-117.5 -97.5t-79 -81.5q-33 -39 -59.5 -78t-33.5 -71t9 -54.5 t66 -28.5q53 -6 112.5 -5t114.5 9t101 26.5t77 49.5q14 16 16.5 41t-4 49.5t-22.5 46t-39 33.5q113 -14 162 -72.5t46 -129t-50 -137t-127 -95.5q-16 -6 -76.5 -22.5t-143.5 -27t-176.5 -4t-175.5 45.5q-57 25 -93 88t-25 139zM1014 849q6 41 13 80t32 84q10 20 32.5 26.5 t44 0.5t35 -25.5t5.5 -54.5q-10 -33 -22 -65.5t-28 -71.5q-2 -12 -20 -15.5t-37.5 0t-37 13.5t-17.5 28z" />
<glyph unicode="&#xc0;" horiz-adv-x="1142" d="M0 184q6 80 39 141.5t76 102.5t87 59.5t70 14.5q-35 -8 -67.5 -55.5t-49 -101.5t-11 -98t45.5 -46q41 -2 83 26.5t108 87.5q-61 25 -76.5 76t2 98.5t60.5 78t102 16.5q-16 -2 -35.5 -23.5t-19.5 -45t27.5 -41t105.5 -11.5q166 203 270.5 357.5t168 264t94 178t46.5 99.5 q18 35 51 53.5t63 23.5t48.5 -3.5t11.5 -26.5q-4 -12 -20 -72.5t-39.5 -153.5t-53.5 -209t-61.5 -236t-61.5 -236.5t-55.5 -211.5t-43 -159.5t-23.5 -81.5q-16 -37 -47 -46t-59.5 2t-46 40t-7.5 70q10 31 20.5 74.5t26.5 95.5h-70.5h-98h-88h-40.5q-88 -92 -154.5 -150.5 t-123.5 -93.5q-49 -29 -97 -33t-84 14.5t-56.5 59.5t-16.5 102zM680 457q63 -2 116.5 -2h82.5q20 59 42.5 130.5t46 144.5t45 142.5t38.5 126.5q-27 -45 -70 -111.5t-93 -141t-104.5 -150.5t-103.5 -139zM1170 1582q2 20 14 31t27.5 8t27.5 -28q16 -37 43 -63.5t41 -32.5 q-29 -10 -72.5 3.5t-66.5 41.5q-16 20 -14 40z" />
<glyph unicode="&#xc1;" horiz-adv-x="1142" d="M0 184q6 80 39 141.5t76 102.5t87 59.5t70 14.5q-35 -8 -67.5 -55.5t-49 -101.5t-11 -98t45.5 -46q41 -2 83 26.5t108 87.5q-61 25 -76.5 76t2 98.5t60.5 78t102 16.5q-16 -2 -35.5 -23.5t-19.5 -45t27.5 -41t105.5 -11.5q166 203 270.5 357.5t168 264t94 178t46.5 99.5 q18 35 51 53.5t63 23.5t48.5 -3.5t11.5 -26.5q-4 -12 -20 -72.5t-39.5 -153.5t-53.5 -209t-61.5 -236t-61.5 -236.5t-55.5 -211.5t-43 -159.5t-23.5 -81.5q-16 -37 -47 -46t-59.5 2t-46 40t-7.5 70q10 31 20.5 74.5t26.5 95.5h-70.5h-98h-88h-40.5q-88 -92 -154.5 -150.5 t-123.5 -93.5q-49 -29 -97 -33t-84 14.5t-56.5 59.5t-16.5 102zM680 457q63 -2 116.5 -2h82.5q20 59 42.5 130.5t46 144.5t45 142.5t38.5 126.5q-27 -45 -70 -111.5t-93 -141t-104.5 -150.5t-103.5 -139zM1182 1495q14 6 41 32.5t43 63.5q12 25 27.5 28t27.5 -8t14.5 -30.5 t-14.5 -40.5q-23 -29 -66.5 -42t-72.5 -3z" />
<glyph unicode="&#xc2;" horiz-adv-x="1142" d="M0 184q6 80 39 141.5t76 102.5t87 59.5t70 14.5q-35 -8 -67.5 -55.5t-49 -101.5t-11 -98t45.5 -46q41 -2 83 26.5t108 87.5q-61 25 -76.5 76t2 98.5t60.5 78t102 16.5q-16 -2 -35.5 -23.5t-19.5 -45t27.5 -41t105.5 -11.5q166 203 270.5 357.5t168 264t94 178t46.5 99.5 q18 35 51 53.5t63 23.5t48.5 -3.5t11.5 -26.5q-4 -12 -20 -72.5t-39.5 -153.5t-53.5 -209t-61.5 -236t-61.5 -236.5t-55.5 -211.5t-43 -159.5t-23.5 -81.5q-16 -37 -47 -46t-59.5 2t-46 40t-7.5 70q10 31 20.5 74.5t26.5 95.5h-70.5h-98h-88h-40.5q-88 -92 -154.5 -150.5 t-123.5 -93.5q-49 -29 -97 -33t-84 14.5t-56.5 59.5t-16.5 102zM680 457q63 -2 116.5 -2h82.5q20 59 42.5 130.5t46 144.5t45 142.5t38.5 126.5q-27 -45 -70 -111.5t-93 -141t-104.5 -150.5t-103.5 -139zM1175 1584.5q3 15.5 15 19.5q18 4 31.5 15t26 22.5t22.5 18.5t21 5 q10 -4 15 -14t9 -25.5t10.5 -32t18.5 -30.5q12 -12 9 -27.5t-14.5 -27t-24.5 -14.5t-21 9q-6 10 -11.5 32t-15.5 26q-8 2 -17.5 -12.5t-33.5 -24.5q-12 -6 -22.5 4t-15.5 25.5t-2 31z" />
<glyph unicode="&#xc3;" horiz-adv-x="1142" d="M0 184q6 80 39 141.5t76 102.5t87 59.5t70 14.5q-35 -8 -67.5 -55.5t-49 -101.5t-11 -98t45.5 -46q41 -2 83 26.5t108 87.5q-61 25 -76.5 76t2 98.5t60.5 78t102 16.5q-16 -2 -35.5 -23.5t-19.5 -45t27.5 -41t105.5 -11.5q166 203 270.5 357.5t168 264t94 178t46.5 99.5 q18 35 51 53.5t63 23.5t48.5 -3.5t11.5 -26.5q-4 -12 -20 -72.5t-39.5 -153.5t-53.5 -209t-61.5 -236t-61.5 -236.5t-55.5 -211.5t-43 -159.5t-23.5 -81.5q-16 -37 -47 -46t-59.5 2t-46 40t-7.5 70q10 31 20.5 74.5t26.5 95.5h-70.5h-98h-88h-40.5q-88 -92 -154.5 -150.5 t-123.5 -93.5q-49 -29 -97 -33t-84 14.5t-56.5 59.5t-16.5 102zM680 457q63 -2 116.5 -2h82.5q20 59 42.5 130.5t46 144.5t45 142.5t38.5 126.5q-27 -45 -70 -111.5t-93 -141t-104.5 -150.5t-103.5 -139zM1172 1550.5q0 16.5 6 32t18 19.5q18 4 28.5 -2.5t20 -13.5t21 -11 t29.5 4q10 4 18 -5t11 -23.5t-2 -30t-19 -23.5q-16 -8 -29.5 -4t-26 10t-23.5 12.5t-24 0.5q-14 -6 -21 6t-7 28.5z" />
<glyph unicode="&#xc4;" horiz-adv-x="1142" d="M0 184q6 80 39 141.5t76 102.5t87 59.5t70 14.5q-35 -8 -67.5 -55.5t-49 -101.5t-11 -98t45.5 -46q41 -2 83 26.5t108 87.5q-61 25 -76.5 76t2 98.5t60.5 78t102 16.5q-16 -2 -35.5 -23.5t-19.5 -45t27.5 -41t105.5 -11.5q166 203 270.5 357.5t168 264t94 178t46.5 99.5 q18 35 51 53.5t63 23.5t48.5 -3.5t11.5 -26.5q-4 -12 -20 -72.5t-39.5 -153.5t-53.5 -209t-61.5 -236t-61.5 -236.5t-55.5 -211.5t-43 -159.5t-23.5 -81.5q-16 -37 -47 -46t-59.5 2t-46 40t-7.5 70q10 31 20.5 74.5t26.5 95.5h-70.5h-98h-88h-40.5q-88 -92 -154.5 -150.5 t-123.5 -93.5q-49 -29 -97 -33t-84 14.5t-56.5 59.5t-16.5 102zM680 457q63 -2 116.5 -2h82.5q20 59 42.5 130.5t46 144.5t45 142.5t38.5 126.5q-27 -45 -70 -111.5t-93 -141t-104.5 -150.5t-103.5 -139zM1156 1542.5q-3 20.5 6 40t27.5 30.5t43.5 -1q18 -10 22 -29.5 t-4 -38t-27.5 -29t-46.5 0.5q-18 6 -21 26.5zM1287 1525.5q-3 20.5 6 40t27.5 29.5t43.5 -2q18 -8 22 -27.5t-4 -38t-27.5 -28.5t-46.5 0q-18 6 -21 26.5z" />
<glyph unicode="&#xc5;" horiz-adv-x="1142" d="M0 184q6 80 39 141.5t76 102.5t87 59.5t70 14.5q-35 -8 -67.5 -55.5t-49 -101.5t-11 -98t45.5 -46q41 -2 83 26.5t108 87.5q-61 25 -76.5 76t2 98.5t60.5 78t102 16.5q-16 -2 -35.5 -23.5t-19.5 -45t27.5 -41t105.5 -11.5q166 203 270.5 357.5t168 264t94 178t46.5 99.5 q18 35 51 53.5t63 23.5t48.5 -3.5t11.5 -26.5q-4 -12 -20 -72.5t-39.5 -153.5t-53.5 -209t-61.5 -236t-61.5 -236.5t-55.5 -211.5t-43 -159.5t-23.5 -81.5q-16 -37 -47 -46t-59.5 2t-46 40t-7.5 70q10 31 20.5 74.5t26.5 95.5h-70.5h-98h-88h-40.5q-88 -92 -154.5 -150.5 t-123.5 -93.5q-49 -29 -97 -33t-84 14.5t-56.5 59.5t-16.5 102zM680 457q63 -2 116.5 -2h82.5q20 59 42.5 130.5t46 144.5t45 142.5t38.5 126.5q-27 -45 -70 -111.5t-93 -141t-104.5 -150.5t-103.5 -139zM1185 1541q-5 32 9 61.5t43 46t68 -1.5q29 -14 35 -45t-6.5 -59.5 t-42 -45t-70.5 -0.5q-31 12 -36 44zM1220 1555.5q3 -17.5 19 -23.5q23 -10 39 -1t23.5 24.5t3.5 33t-19 25.5q-23 10 -39 1t-23 -25.5t-4 -34z" />
<glyph unicode="&#xc6;" horiz-adv-x="1644" d="M0 180q6 80 39 141.5t76 102.5t87 59.5t70 12.5q-35 -6 -67.5 -53.5t-49 -101.5t-11 -98t45.5 -46q41 -2 83 26.5t108 87.5q-61 25 -76.5 76t2 98t60.5 78t102 15q-16 0 -35.5 -21.5t-19.5 -45.5t27.5 -41t105.5 -11q166 203 270.5 357.5t168 264t94 178t46.5 99.5 q18 33 51 52.5t63 23.5t48.5 -4.5t11.5 -26.5q-4 -15 -16 -64q72 2 213 20.5t387 65.5q2 -43 -9 -81.5t-27.5 -69.5t-35 -51.5t-30.5 -26.5q-16 -8 -55 -14t-88.5 -11.5t-103.5 -9.5t-102.5 -7t-84 -4t-48.5 -1q-6 -18 -21 -61.5t-33.5 -95.5t-36 -102t-27.5 -81h38.5 t73.5 1t92.5 2t94.5 3t79.5 4t49.5 6q4 -6 2 -24.5t-9.5 -39t-16.5 -38.5t-19 -25q-41 -23 -101.5 -33t-124 -14t-121 -3t-90.5 5q-2 -8 -13 -40.5t-25.5 -78t-32 -97.5t-31.5 -98t-25.5 -81t-13.5 -45q70 0 144.5 8t146.5 21.5t136.5 28t111.5 24.5q6 -6 2 -37t-17.5 -66.5 t-33 -70.5t-41.5 -51q-16 -8 -71.5 -22.5t-130.5 -26t-159 -15.5t-157 8q-23 -18 -49.5 -18t-50 14.5t-36 40t-2.5 60.5q10 29 20.5 73.5t26.5 96.5h-70.5h-98h-88h-40.5q-88 -92 -154.5 -150.5t-123.5 -93.5q-49 -29 -97 -33t-84 14.5t-56.5 59.5t-16.5 102zM680 453 q63 -2 116.5 -2h82.5q20 59 42.5 130.5t46 144.5t45 142.5t38.5 126.5q-27 -45 -70 -111.5t-93 -141t-104.5 -150.5t-103.5 -139z" />
<glyph unicode="&#xc7;" horiz-adv-x="776" d="M1 345q-5 93 15.5 213t87.5 257q106 221 243 375t274 217q43 18 99 21.5t101 -13t67.5 -53.5t0.5 -96q-45 -121 -122 -180.5t-151 -77.5q53 78 90 170t48 163q2 20 -28 12.5t-85 -55.5q-104 -92 -201.5 -232t-165 -299t-94 -321.5t12.5 -300.5q8 -18 66 11.5t134 93 t153 150.5t124 182q12 -12 0.5 -70.5t-46 -136.5t-96 -162t-153.5 -147q-53 -35 -92 -49.5t-72 -14.5l-12 -31q27 -14 32 -39.5t-7.5 -49t-38 -35t-56.5 0.5q-18 8 -18 18.5t8 20t18 14.5t15 3q14 -10 27.5 -6t16.5 13t-7.5 20.5t-38.5 17.5q4 16 10 29.5t12 27.5 q-35 10 -57.5 33.5t-42.5 50.5q-20 31 -43 96.5t-28 158.5z" />
<glyph unicode="&#xc8;" horiz-adv-x="905" d="M1 172q7 57 48 104q-8 -27 5.5 -40t31.5 -19q23 -8 51 -6l11 34q12 34 28.5 84t35.5 108.5t36.5 108.5t29 85t13.5 39q-49 31 -56.5 71.5t-3.5 65.5q8 0 24.5 -1t33 -1t31 -1t18.5 -1q18 45 36.5 96t35 98t30 86t21.5 62q-47 2 -80 19.5t-51.5 45t-24.5 60.5t2 67 q16 55 47 75t66 18q37 0 61.5 -8.5t37.5 -17.5t16.5 -16.5t-0.5 -5.5q-29 12 -53.5 9.5t-37 -12t-10.5 -22t25 -18.5q23 -4 67.5 -4t124.5 7.5t200 25.5t292 53q2 -43 -9.5 -82t-29 -69.5t-35.5 -51t-29 -26.5q-16 -8 -55 -14.5t-88 -11.5t-103.5 -9t-102.5 -7t-84 -4 t-48 -1q-6 -18 -21.5 -61.5t-34 -95.5t-36.5 -102t-29 -81q12 0 72.5 1t133.5 2t137.5 4t84.5 9q6 -6 3 -24.5t-9 -40t-16 -40t-19 -22.5q-41 -23 -101 -34t-124.5 -14t-122 -2t-88.5 5q-6 -18 -26.5 -77.5t-46 -130t-48 -137t-30.5 -95.5q70 -2 145.5 7t149 21.5t139 28 t114.5 25.5q6 -6 2 -37t-17 -66.5t-32.5 -70.5t-42.5 -51q-14 -8 -60 -20.5t-109.5 -24t-138.5 -18.5t-144.5 -2t-128 22.5t-90.5 56.5q-31 35 -24 92zM656 1582q2 20 14 31t27.5 8t27.5 -28q16 -37 43 -63.5t41 -32.5q-29 -10 -72.5 3.5t-66.5 41.5q-16 20 -14 40z" />
<glyph unicode="&#xc9;" horiz-adv-x="905" d="M1 172q7 57 48 104q-8 -27 5.5 -40t31.5 -19q23 -8 51 -6l11 34q12 34 28.5 84t35.5 108.5t36.5 108.5t29 85t13.5 39q-49 31 -56.5 71.5t-3.5 65.5q8 0 24.5 -1t33 -1t31 -1t18.5 -1q18 45 36.5 96t35 98t30 86t21.5 62q-47 2 -80 19.5t-51.5 45t-24.5 60.5t2 67 q16 55 47 75t66 18q37 0 61.5 -8.5t37.5 -17.5t16.5 -16.5t-0.5 -5.5q-29 12 -53.5 9.5t-37 -12t-10.5 -22t25 -18.5q23 -4 67.5 -4t124.5 7.5t200 25.5t292 53q2 -43 -9.5 -82t-29 -69.5t-35.5 -51t-29 -26.5q-16 -8 -55 -14.5t-88 -11.5t-103.5 -9t-102.5 -7t-84 -4 t-48 -1q-6 -18 -21.5 -61.5t-34 -95.5t-36.5 -102t-29 -81q12 0 72.5 1t133.5 2t137.5 4t84.5 9q6 -6 3 -24.5t-9 -40t-16 -40t-19 -22.5q-41 -23 -101 -34t-124.5 -14t-122 -2t-88.5 5q-6 -18 -26.5 -77.5t-46 -130t-48 -137t-30.5 -95.5q70 -2 145.5 7t149 21.5t139 28 t114.5 25.5q6 -6 2 -37t-17 -66.5t-32.5 -70.5t-42.5 -51q-14 -8 -60 -20.5t-109.5 -24t-138.5 -18.5t-144.5 -2t-128 22.5t-90.5 56.5q-31 35 -24 92zM627 1495q14 6 41 32.5t43 63.5q12 25 27.5 28t27.5 -8t14.5 -30.5t-14.5 -40.5q-23 -29 -66.5 -42t-72.5 -3z" />
<glyph unicode="&#xca;" horiz-adv-x="905" d="M1 172q7 57 48 104q-8 -27 5.5 -40t31.5 -19q23 -8 51 -6l11 34q12 34 28.5 84t35.5 108.5t36.5 108.5t29 85t13.5 39q-49 31 -56.5 71.5t-3.5 65.5q8 0 24.5 -1t33 -1t31 -1t18.5 -1q18 45 36.5 96t35 98t30 86t21.5 62q-47 2 -80 19.5t-51.5 45t-24.5 60.5t2 67 q16 55 47 75t66 18q37 0 61.5 -8.5t37.5 -17.5t16.5 -16.5t-0.5 -5.5q-29 12 -53.5 9.5t-37 -12t-10.5 -22t25 -18.5q23 -4 67.5 -4t124.5 7.5t200 25.5t292 53q2 -43 -9.5 -82t-29 -69.5t-35.5 -51t-29 -26.5q-16 -8 -55 -14.5t-88 -11.5t-103.5 -9t-102.5 -7t-84 -4 t-48 -1q-6 -18 -21.5 -61.5t-34 -95.5t-36.5 -102t-29 -81q12 0 72.5 1t133.5 2t137.5 4t84.5 9q6 -6 3 -24.5t-9 -40t-16 -40t-19 -22.5q-41 -23 -101 -34t-124.5 -14t-122 -2t-88.5 5q-6 -18 -26.5 -77.5t-46 -130t-48 -137t-30.5 -95.5q70 -2 145.5 7t149 21.5t139 28 t114.5 25.5q6 -6 2 -37t-17 -66.5t-32.5 -70.5t-42.5 -51q-14 -8 -60 -20.5t-109.5 -24t-138.5 -18.5t-144.5 -2t-128 22.5t-90.5 56.5q-31 35 -24 92zM632 1584.5q3 15.5 15 19.5q18 4 31.5 15t26 22.5t22.5 18.5t21 5q10 -4 15 -14t9 -25.5t10.5 -32t18.5 -30.5 q12 -12 9 -27.5t-14.5 -27t-24.5 -14.5t-21 9q-6 10 -11.5 32t-15.5 26q-8 2 -17.5 -12.5t-33.5 -24.5q-12 -6 -22.5 4t-15.5 25.5t-2 31z" />
<glyph unicode="&#xcb;" horiz-adv-x="905" d="M1 172q7 57 48 104q-8 -27 5.5 -40t31.5 -19q23 -8 51 -6l11 34q12 34 28.5 84t35.5 108.5t36.5 108.5t29 85t13.5 39q-49 31 -56.5 71.5t-3.5 65.5q8 0 24.5 -1t33 -1t31 -1t18.5 -1q18 45 36.5 96t35 98t30 86t21.5 62q-47 2 -80 19.5t-51.5 45t-24.5 60.5t2 67 q16 55 47 75t66 18q37 0 61.5 -8.5t37.5 -17.5t16.5 -16.5t-0.5 -5.5q-29 12 -53.5 9.5t-37 -12t-10.5 -22t25 -18.5q23 -4 67.5 -4t124.5 7.5t200 25.5t292 53q2 -43 -9.5 -82t-29 -69.5t-35.5 -51t-29 -26.5q-16 -8 -55 -14.5t-88 -11.5t-103.5 -9t-102.5 -7t-84 -4 t-48 -1q-6 -18 -21.5 -61.5t-34 -95.5t-36.5 -102t-29 -81q12 0 72.5 1t133.5 2t137.5 4t84.5 9q6 -6 3 -24.5t-9 -40t-16 -40t-19 -22.5q-41 -23 -101 -34t-124.5 -14t-122 -2t-88.5 5q-6 -18 -26.5 -77.5t-46 -130t-48 -137t-30.5 -95.5q70 -2 145.5 7t149 21.5t139 28 t114.5 25.5q6 -6 2 -37t-17 -66.5t-32.5 -70.5t-42.5 -51q-14 -8 -60 -20.5t-109.5 -24t-138.5 -18.5t-144.5 -2t-128 22.5t-90.5 56.5q-31 35 -24 92zM603 1542.5q-3 20.5 6 40t27.5 30.5t43.5 -1q18 -10 22 -29.5t-4 -38t-27.5 -29t-46.5 0.5q-18 6 -21 26.5zM734 1525.5 q-3 20.5 6 40t27.5 29.5t43.5 -2q18 -8 22 -27.5t-4 -38t-27.5 -28.5t-46.5 0q-18 6 -21 26.5z" />
<glyph unicode="&#xcc;" horiz-adv-x="864" d="M1 227q5 90 65 189q-4 -29 -9.5 -67t-2.5 -75.5t17.5 -69.5t49.5 -46q31 -12 59.5 -5t57 28.5t58.5 53t60 66.5q49 55 93.5 113.5t97.5 144.5q-55 76 -69.5 159t-3.5 167t45 162.5t75 145.5t84 115t78 72q39 27 91 44.5t99 14.5t78 -30t27 -84q-2 -29 -20.5 -90 t-47.5 -141t-63.5 -170t-68.5 -172t-64 -148.5t-48 -101.5q16 -10 22.5 -24.5t1.5 -25t-21.5 -15.5t-41.5 5q-8 -14 -25.5 -41.5t-37 -58.5t-39.5 -59.5t-35 -44.5q-31 -39 -63.5 -78t-67.5 -73t-69.5 -59.5t-67.5 -35.5q-92 -29 -160.5 -3.5t-103.5 87t-30 151.5z M562 765.5q5 -65.5 38 -114.5q14 25 44 87.5t69 149.5t80 193.5t77 223.5q-47 -8 -95 -46t-88 -94.5t-70.5 -125t-45 -138.5t-9.5 -135.5zM863 1582q2 20 14 31t27.5 8t27.5 -28q16 -37 43 -63.5t41 -32.5q-29 -10 -72.5 3.5t-66.5 41.5q-16 20 -14 40z" />
<glyph unicode="&#xcd;" horiz-adv-x="864" d="M1 227q5 90 65 189q-4 -29 -9.5 -67t-2.5 -75.5t17.5 -69.5t49.5 -46q31 -12 59.5 -5t57 28.5t58.5 53t60 66.5q49 55 93.5 113.5t97.5 144.5q-55 76 -69.5 159t-3.5 167t45 162.5t75 145.5t84 115t78 72q39 27 91 44.5t99 14.5t78 -30t27 -84q-2 -29 -20.5 -90 t-47.5 -141t-63.5 -170t-68.5 -172t-64 -148.5t-48 -101.5q16 -10 22.5 -24.5t1.5 -25t-21.5 -15.5t-41.5 5q-8 -14 -25.5 -41.5t-37 -58.5t-39.5 -59.5t-35 -44.5q-31 -39 -63.5 -78t-67.5 -73t-69.5 -59.5t-67.5 -35.5q-92 -29 -160.5 -3.5t-103.5 87t-30 151.5z M562 765.5q5 -65.5 38 -114.5q14 25 44 87.5t69 149.5t80 193.5t77 223.5q-47 -8 -95 -46t-88 -94.5t-70.5 -125t-45 -138.5t-9.5 -135.5zM836 1495q14 6 41 32.5t43 63.5q12 25 27.5 28t27.5 -8t14.5 -30.5t-14.5 -40.5q-23 -29 -66.5 -42t-72.5 -3z" />
<glyph unicode="&#xce;" horiz-adv-x="864" d="M1 227q5 90 65 189q-4 -29 -9.5 -67t-2.5 -75.5t17.5 -69.5t49.5 -46q31 -12 59.5 -5t57 28.5t58.5 53t60 66.5q49 55 93.5 113.5t97.5 144.5q-55 76 -69.5 159t-3.5 167t45 162.5t75 145.5t84 115t78 72q39 27 91 44.5t99 14.5t78 -30t27 -84q-2 -29 -20.5 -90 t-47.5 -141t-63.5 -170t-68.5 -172t-64 -148.5t-48 -101.5q16 -10 22.5 -24.5t1.5 -25t-21.5 -15.5t-41.5 5q-8 -14 -25.5 -41.5t-37 -58.5t-39.5 -59.5t-35 -44.5q-31 -39 -63.5 -78t-67.5 -73t-69.5 -59.5t-67.5 -35.5q-92 -29 -160.5 -3.5t-103.5 87t-30 151.5z M562 765.5q5 -65.5 38 -114.5q14 25 44 87.5t69 149.5t80 193.5t77 223.5q-47 -8 -95 -46t-88 -94.5t-70.5 -125t-45 -138.5t-9.5 -135.5zM886 1584.5q3 15.5 15 19.5q18 4 31.5 15t26 22.5t22.5 18.5t21 5q10 -4 15 -14t9 -25.5t10.5 -32t18.5 -30.5q12 -12 9 -27.5 t-14.5 -27t-24.5 -14.5t-21 9q-6 10 -11.5 32t-15.5 26q-8 2 -17.5 -12.5t-33.5 -24.5q-12 -6 -22.5 4t-15.5 25.5t-2 31z" />
<glyph unicode="&#xcf;" horiz-adv-x="864" d="M1 227q5 90 65 189q-4 -29 -9.5 -67t-2.5 -75.5t17.5 -69.5t49.5 -46q31 -12 59.5 -5t57 28.5t58.5 53t60 66.5q49 55 93.5 113.5t97.5 144.5q-55 76 -69.5 159t-3.5 167t45 162.5t75 145.5t84 115t78 72q39 27 91 44.5t99 14.5t78 -30t27 -84q-2 -29 -20.5 -90 t-47.5 -141t-63.5 -170t-68.5 -172t-64 -148.5t-48 -101.5q16 -10 22.5 -24.5t1.5 -25t-21.5 -15.5t-41.5 5q-8 -14 -25.5 -41.5t-37 -58.5t-39.5 -59.5t-35 -44.5q-31 -39 -63.5 -78t-67.5 -73t-69.5 -59.5t-67.5 -35.5q-92 -29 -160.5 -3.5t-103.5 87t-30 151.5z M562 765.5q5 -65.5 38 -114.5q14 25 44 87.5t69 149.5t80 193.5t77 223.5q-47 -8 -95 -46t-88 -94.5t-70.5 -125t-45 -138.5t-9.5 -135.5zM857 1542.5q-3 20.5 6 40t27.5 30.5t43.5 -1q18 -10 22 -29.5t-4 -38t-27.5 -29t-46.5 0.5q-18 6 -21 26.5zM988 1525.5q-3 20.5 6 40 t27.5 29.5t43.5 -2q18 -8 22 -27.5t-4 -38t-27.5 -28.5t-46.5 0q-18 6 -21 26.5z" />
<glyph unicode="&#xd0;" horiz-adv-x="1083" d="M4 228q-8 40 1 85t52 95q-8 -37 9.5 -78t56.5 -62q4 14 27.5 86t58.5 170q-16 0 -31.5 2t-25.5 4q-37 12 -55.5 42t-20.5 58.5t10 51.5t37 23q2 0 45 -1.5t102 -3.5q33 94 65 185.5t57.5 164t41.5 118.5l15 46q-29 14 -47.5 12.5t-26.5 -17t-4 -39t20 -48.5 q-23 2 -45 18.5t-39.5 42t-28 57.5t-8.5 67q4 70 46 103.5t135 23.5q27 -2 60.5 -9.5t73.5 -30t87 -64.5t102 -111q39 -51 87 -125t82 -174.5t41 -225.5t-32 -278q-43 -129 -137 -220.5t-207.5 -140.5t-229.5 -56t-200 30q-6 -25 -31.5 -31t-50 5t-39 39t1.5 69 q-12 18 -29.5 47.5t-25.5 69.5zM231 236q94 -35 204 -27t203 43t158.5 89.5t75.5 113.5q12 78 0 183t-54 211.5t-115.5 198t-184.5 140.5q-4 -12 -17.5 -58.5t-32.5 -113t-44 -149.5t-51 -169q57 -2 101 -2h48q6 -4 6 -20.5t-6 -38t-19.5 -43t-31.5 -33.5q-16 -18 -58 -26.5 t-94 -12.5q-29 -94 -52 -170t-36 -116z" />
<glyph unicode="&#xd1;" horiz-adv-x="942" d="M33 1106q6 35 20.5 55.5t30.5 32.5q18 14 39 20q-2 -6 -10.5 -21t-14.5 -32.5t-6 -34t14 -22.5q23 -10 56 22.5t64.5 84t57 107.5t31.5 91q2 18 29 19.5t57.5 -10t56 -33t25.5 -48.5q-2 -16 -20.5 -80.5t-45 -152.5t-58 -187.5t-59.5 -184.5t-47.5 -142.5t-21.5 -61.5 q6 6 31 45t60.5 98.5t81 133.5t91.5 151.5t92 154.5t85 139.5t68.5 106.5t41.5 58t41 12t57.5 -13t49 -29.5t16.5 -36.5q-4 -10 -24.5 -65.5t-50 -138.5t-65.5 -186.5t-72 -211t-66.5 -211t-49 -186.5t-21.5 -137t15 -62q43 -20 106.5 50t141.5 253q0 2 -9 -31t-29.5 -83 t-48.5 -110.5t-63.5 -111.5t-77.5 -85t-87 -34q-43 0 -71 27.5t-40 74.5t-8 109.5t25 134.5q8 29 30.5 106.5t53 177t65.5 207t68 195.5q-8 -8 -52.5 -74.5t-103.5 -163t-126 -206t-125 -205.5t-97 -161.5t-43 -74.5q-16 -23 -33.5 -7t-30 48.5t-17.5 73.5t7 70 q4 10 22.5 64.5t43 131t53.5 166.5t53.5 172t39.5 145.5t17 88.5q-35 -59 -80.5 -82t-85.5 -19t-63.5 33t-13.5 76zM533 1550.5q0 16.5 6 32t18 19.5q18 4 28.5 -2.5t20 -13.5t21 -11t29.5 4q10 4 18 -5t11 -23.5t-2 -30t-19 -23.5q-16 -8 -29.5 -4t-26 10t-23.5 12.5 t-24 0.5q-14 -6 -21 6t-7 28.5z" />
<glyph unicode="&#xd2;" horiz-adv-x="831" d="M1 318.5q-3 74.5 8 167t42 194.5q55 184 142.5 330.5t187.5 247t201.5 149.5t185.5 35q59 -10 98 -73.5t50.5 -173.5t-8 -257t-74.5 -322q-41 -129 -93.5 -224t-109 -162.5t-111.5 -110.5t-102 -68.5t-84 -37t-53 -13.5q-27 -6 -60 5t-65.5 29.5t-60 39t-44.5 37.5 q-18 25 -32.5 79t-17.5 128.5zM202 357q1 -83 18 -141t46 -83q98 20 178 89t140.5 161t103.5 194.5t68 190.5q-37 27 -76 72t-62.5 108.5t-22.5 145.5t42 182q-35 -25 -79 -62.5t-93 -98t-98.5 -147.5t-92.5 -208q-41 -115 -57 -217.5t-15 -185.5zM679 998.5 q9 -62.5 33.5 -109.5t53.5 -80q35 137 40 243.5t-9 198.5q-8 53 -20.5 60.5t-28.5 -2.5q-51 -92 -64.5 -170t-4.5 -140.5zM707 1582q2 20 14 31t27.5 8t27.5 -28q16 -37 43 -63.5t41 -32.5q-29 -10 -72.5 3.5t-66.5 41.5q-16 20 -14 40z" />
<glyph unicode="&#xd3;" horiz-adv-x="831" d="M1 318.5q-3 74.5 8 167t42 194.5q55 184 142.5 330.5t187.5 247t201.5 149.5t185.5 35q59 -10 98 -73.5t50.5 -173.5t-8 -257t-74.5 -322q-41 -129 -93.5 -224t-109 -162.5t-111.5 -110.5t-102 -68.5t-84 -37t-53 -13.5q-27 -6 -60 5t-65.5 29.5t-60 39t-44.5 37.5 q-18 25 -32.5 79t-17.5 128.5zM202 357q1 -83 18 -141t46 -83q98 20 178 89t140.5 161t103.5 194.5t68 190.5q-37 27 -76 72t-62.5 108.5t-22.5 145.5t42 182q-35 -25 -79 -62.5t-93 -98t-98.5 -147.5t-92.5 -208q-41 -115 -57 -217.5t-15 -185.5zM674 1495q14 6 41 32.5 t43 63.5q12 25 27.5 28t27.5 -8t14.5 -30.5t-14.5 -40.5q-23 -29 -66.5 -42t-72.5 -3zM679 998.5q9 -62.5 33.5 -109.5t53.5 -80q35 137 40 243.5t-9 198.5q-8 53 -20.5 60.5t-28.5 -2.5q-51 -92 -64.5 -170t-4.5 -140.5z" />
<glyph unicode="&#xd4;" horiz-adv-x="831" d="M1 318.5q-3 74.5 8 167t42 194.5q55 184 142.5 330.5t187.5 247t201.5 149.5t185.5 35q59 -10 98 -73.5t50.5 -173.5t-8 -257t-74.5 -322q-41 -129 -93.5 -224t-109 -162.5t-111.5 -110.5t-102 -68.5t-84 -37t-53 -13.5q-27 -6 -60 5t-65.5 29.5t-60 39t-44.5 37.5 q-18 25 -32.5 79t-17.5 128.5zM202 357q1 -83 18 -141t46 -83q98 20 178 89t140.5 161t103.5 194.5t68 190.5q-37 27 -76 72t-62.5 108.5t-22.5 145.5t42 182q-35 -25 -79 -62.5t-93 -98t-98.5 -147.5t-92.5 -208q-41 -115 -57 -217.5t-15 -185.5zM679 998.5 q9 -62.5 33.5 -109.5t53.5 -80q35 137 40 243.5t-9 198.5q-8 53 -20.5 60.5t-28.5 -2.5q-51 -92 -64.5 -170t-4.5 -140.5zM683 1584.5q3 15.5 15 19.5q18 4 31.5 15t26 22.5t22.5 18.5t21 5q10 -4 15 -14t9 -25.5t10.5 -32t18.5 -30.5q12 -12 9 -27.5t-14.5 -27t-24.5 -14.5 t-21 9q-6 10 -11.5 32t-15.5 26q-8 2 -17.5 -12.5t-33.5 -24.5q-12 -6 -22.5 4t-15.5 25.5t-2 31z" />
<glyph unicode="&#xd5;" horiz-adv-x="831" d="M1 318.5q-3 74.5 8 167t42 194.5q55 184 142.5 330.5t187.5 247t201.5 149.5t185.5 35q59 -10 98 -73.5t50.5 -173.5t-8 -257t-74.5 -322q-41 -129 -93.5 -224t-109 -162.5t-111.5 -110.5t-102 -68.5t-84 -37t-53 -13.5q-27 -6 -60 5t-65.5 29.5t-60 39t-44.5 37.5 q-18 25 -32.5 79t-17.5 128.5zM202 357q1 -83 18 -141t46 -83q98 20 178 89t140.5 161t103.5 194.5t68 190.5q-37 27 -76 72t-62.5 108.5t-22.5 145.5t42 182q-35 -25 -79 -62.5t-93 -98t-98.5 -147.5t-92.5 -208q-41 -115 -57 -217.5t-15 -185.5zM679 998.5 q9 -62.5 33.5 -109.5t53.5 -80q35 137 40 243.5t-9 198.5q-8 53 -20.5 60.5t-28.5 -2.5q-51 -92 -64.5 -170t-4.5 -140.5zM688 1550.5q0 16.5 6 32t18 19.5q18 4 28.5 -2.5t20 -13.5t21 -11t29.5 4q10 4 18 -5t11 -23.5t-2 -30t-19 -23.5q-16 -8 -29.5 -4t-26 10t-23.5 12.5 t-24 0.5q-14 -6 -21 6t-7 28.5z" />
<glyph unicode="&#xd6;" horiz-adv-x="831" d="M1 318.5q-3 74.5 8 167t42 194.5q55 184 142.5 330.5t187.5 247t201.5 149.5t185.5 35q59 -10 98 -73.5t50.5 -173.5t-8 -257t-74.5 -322q-41 -129 -93.5 -224t-109 -162.5t-111.5 -110.5t-102 -68.5t-84 -37t-53 -13.5q-27 -6 -60 5t-65.5 29.5t-60 39t-44.5 37.5 q-18 25 -32.5 79t-17.5 128.5zM202 357q1 -83 18 -141t46 -83q98 20 178 89t140.5 161t103.5 194.5t68 190.5q-37 27 -76 72t-62.5 108.5t-22.5 145.5t42 182q-35 -25 -79 -62.5t-93 -98t-98.5 -147.5t-92.5 -208q-41 -115 -57 -217.5t-15 -185.5zM654 1542.5q-3 20.5 6 40 t27.5 30.5t43.5 -1q18 -10 22 -29.5t-4 -38t-27.5 -29t-46.5 0.5q-18 6 -21 26.5zM679 998.5q9 -62.5 33.5 -109.5t53.5 -80q35 137 40 243.5t-9 198.5q-8 53 -20.5 60.5t-28.5 -2.5q-51 -92 -64.5 -170t-4.5 -140.5zM785 1525.5q-3 20.5 6 40t27.5 29.5t43.5 -2 q18 -8 22 -27.5t-4 -38t-27.5 -28.5t-46.5 0q-18 6 -21 26.5z" />
<glyph unicode="&#xd7;" horiz-adv-x="550" d="M96 37q0 8 30 42t71 77q-35 39 -58.5 67.5t-27.5 34.5q-4 10 0 33.5t39 36.5q8 0 41.5 -29t76.5 -70q43 43 78 75t41 32q4 -4 9 -10.5t10 -10.5l8 -12q6 -14 10 -24.5t-1 -23.5t-20.5 -33.5t-48.5 -53.5l-12 -12q43 -43 75 -78t32 -41q-10 -10 -23 -19q-8 -6 -12 -8 q-14 -6 -23.5 -10t-23 1t-34 20.5t-52.5 48.5l-15 14q-37 -35 -65.5 -58.5t-34.5 -27.5q-4 -2 -13.5 -2t-19.5 3t-20.5 12t-16.5 26z" />
<glyph unicode="&#xd8;" horiz-adv-x="935" d="M1 318.5q-3 74.5 8 167t42 194.5q55 184 142.5 330.5t187.5 247t201.5 149.5t185.5 35q59 -10 98 -73.5t50.5 -173.5t-8 -257t-74.5 -322q-41 -129 -93.5 -224t-109 -162.5t-111.5 -110.5t-102 -68.5t-84 -37t-53 -13.5q-14 -2 -33 0q-16 -8 -29.5 -6t-17.5 10v8 q-45 16 -86 46t-64 53q-18 25 -32.5 79t-17.5 128.5zM202 390q-1 -79 10 -139.5t34 -92.5q25 80 61.5 186.5t75.5 222t79 230t72.5 209t56.5 159t30 78.5q4 8 5 15.5t5 13.5q-35 -25 -79 -63t-92 -98t-96.5 -146t-89.5 -205q-37 -102 -54 -196.5t-18 -173.5zM354 162 q80 39 143.5 108.5t114 154.5t86 175t58.5 168q-33 23 -65 57.5t-56 81.5q-37 -98 -77 -204.5t-77 -207t-69.5 -186.5t-57.5 -147zM676 1020q6 -72 32.5 -124t57.5 -87q35 137 40 243.5t-9 198.5q-4 29 -9.5 42.5t-11.5 19.5v-6q-2 -8 -29.5 -87t-70.5 -200z" />
<glyph unicode="&#xd9;" horiz-adv-x="800" d="M8 213q10 35 36 118t57.5 186.5t66.5 217t64.5 208.5t50 159.5t22.5 73.5q8 29 7 52t-10 34.5t-27.5 7.5t-45.5 -29q-18 -16 -31.5 -40.5t-21.5 -47.5q-10 -27 -16 -53q-14 76 0 139.5t47 110.5t81 74.5t103 27.5q45 0 77 -17.5t50.5 -46t22.5 -64.5t-4 -73 q-6 -25 -37 -112.5t-72 -207.5t-87 -252t-84 -246t-60.5 -189.5t-18.5 -81.5q14 -18 47 1t74 63t88 105.5t92 128t84 131t66 114.5q23 39 54.5 103t66 137t69.5 148.5t63.5 140t48 111t25.5 58.5q14 31 35 32t39.5 -11.5t29.5 -32t5 -33.5q-6 -16 -33.5 -78.5t-65.5 -155 t-84 -205t-91.5 -229.5t-83 -228.5t-62 -200.5t-31 -148.5t14.5 -71.5q41 -23 94 33.5t113 154.5q-29 -82 -66 -143q-31 -53 -75 -95t-99 -36q-63 6 -81.5 57t-9.5 126t37.5 162t61.5 165q-35 -51 -78 -116.5t-88 -127t-87 -112t-75 -70.5q-53 -35 -108 -38t-97 20.5 t-61.5 72.5t-1.5 119zM654 1582q2 20 14 31t27.5 8t27.5 -28q16 -37 43 -63.5t41 -32.5q-29 -10 -72.5 3.5t-66.5 41.5q-16 20 -14 40z" />
<glyph unicode="&#xda;" horiz-adv-x="800" d="M8 213q10 35 36 118t57.5 186.5t66.5 217t64.5 208.5t50 159.5t22.5 73.5q8 29 7 52t-10 34.5t-27.5 7.5t-45.5 -29q-18 -16 -31.5 -40.5t-21.5 -47.5q-10 -27 -16 -53q-14 76 0 139.5t47 110.5t81 74.5t103 27.5q45 0 77 -17.5t50.5 -46t22.5 -64.5t-4 -73 q-6 -25 -37 -112.5t-72 -207.5t-87 -252t-84 -246t-60.5 -189.5t-18.5 -81.5q14 -18 47 1t74 63t88 105.5t92 128t84 131t66 114.5q23 39 54.5 103t66 137t69.5 148.5t63.5 140t48 111t25.5 58.5q14 31 35 32t39.5 -11.5t29.5 -32t5 -33.5q-6 -16 -33.5 -78.5t-65.5 -155 t-84 -205t-91.5 -229.5t-83 -228.5t-62 -200.5t-31 -148.5t14.5 -71.5q41 -23 94 33.5t113 154.5q-29 -82 -66 -143q-31 -53 -75 -95t-99 -36q-63 6 -81.5 57t-9.5 126t37.5 162t61.5 165q-35 -51 -78 -116.5t-88 -127t-87 -112t-75 -70.5q-53 -35 -108 -38t-97 20.5 t-61.5 72.5t-1.5 119zM649 1495q14 6 41 32.5t43 63.5q12 25 27.5 28t27.5 -8t14.5 -30.5t-14.5 -40.5q-23 -29 -66.5 -42t-72.5 -3z" />
<glyph unicode="&#xdb;" horiz-adv-x="800" d="M8 213q10 35 36 118t57.5 186.5t66.5 217t64.5 208.5t50 159.5t22.5 73.5q8 29 7 52t-10 34.5t-27.5 7.5t-45.5 -29q-18 -16 -31.5 -40.5t-21.5 -47.5q-10 -27 -16 -53q-14 76 0 139.5t47 110.5t81 74.5t103 27.5q45 0 77 -17.5t50.5 -46t22.5 -64.5t-4 -73 q-6 -25 -37 -112.5t-72 -207.5t-87 -252t-84 -246t-60.5 -189.5t-18.5 -81.5q14 -18 47 1t74 63t88 105.5t92 128t84 131t66 114.5q23 39 54.5 103t66 137t69.5 148.5t63.5 140t48 111t25.5 58.5q14 31 35 32t39.5 -11.5t29.5 -32t5 -33.5q-6 -16 -33.5 -78.5t-65.5 -155 t-84 -205t-91.5 -229.5t-83 -228.5t-62 -200.5t-31 -148.5t14.5 -71.5q41 -23 94 33.5t113 154.5q-29 -82 -66 -143q-31 -53 -75 -95t-99 -36q-63 6 -81.5 57t-9.5 126t37.5 162t61.5 165q-35 -51 -78 -116.5t-88 -127t-87 -112t-75 -70.5q-53 -35 -108 -38t-97 20.5 t-61.5 72.5t-1.5 119zM657 1584.5q3 15.5 15 19.5q18 4 31.5 15t26 22.5t22.5 18.5t21 5q10 -4 15 -14t9 -25.5t10.5 -32t18.5 -30.5q12 -12 9 -27.5t-14.5 -27t-24.5 -14.5t-21 9q-6 10 -11.5 32t-15.5 26q-8 2 -17.5 -12.5t-33.5 -24.5q-12 -6 -22.5 4t-15.5 25.5t-2 31z " />
<glyph unicode="&#xdc;" horiz-adv-x="800" d="M8 213q10 35 36 118t57.5 186.5t66.5 217t64.5 208.5t50 159.5t22.5 73.5q8 29 7 52t-10 34.5t-27.5 7.5t-45.5 -29q-18 -16 -31.5 -40.5t-21.5 -47.5q-10 -27 -16 -53q-14 76 0 139.5t47 110.5t81 74.5t103 27.5q45 0 77 -17.5t50.5 -46t22.5 -64.5t-4 -73 q-6 -25 -37 -112.5t-72 -207.5t-87 -252t-84 -246t-60.5 -189.5t-18.5 -81.5q14 -18 47 1t74 63t88 105.5t92 128t84 131t66 114.5q23 39 54.5 103t66 137t69.5 148.5t63.5 140t48 111t25.5 58.5q14 31 35 32t39.5 -11.5t29.5 -32t5 -33.5q-6 -16 -33.5 -78.5t-65.5 -155 t-84 -205t-91.5 -229.5t-83 -228.5t-62 -200.5t-31 -148.5t14.5 -71.5q41 -23 94 33.5t113 154.5q-29 -82 -66 -143q-31 -53 -75 -95t-99 -36q-63 6 -81.5 57t-9.5 126t37.5 162t61.5 165q-35 -51 -78 -116.5t-88 -127t-87 -112t-75 -70.5q-53 -35 -108 -38t-97 20.5 t-61.5 72.5t-1.5 119zM634 1542.5q-3 20.5 6 40t27.5 30.5t43.5 -1q18 -10 22 -29.5t-4 -38t-27.5 -29t-46.5 0.5q-18 6 -21 26.5zM765 1525.5q-3 20.5 6 40t27.5 29.5t43.5 -2q18 -8 22 -27.5t-4 -38t-27.5 -28.5t-46.5 0q-18 6 -21 26.5z" />
<glyph unicode="&#xdd;" horiz-adv-x="657" d="M2 109.5q6 50.5 47 115.5q-4 -43 2 -73q4 -29 15.5 -49.5t35.5 -16.5q18 2 41 19.5t45.5 46t45 64.5t42.5 73q47 86 95 194q-12 37 -27.5 105.5t-32 157t-30 190.5t-21.5 205q-4 49 -24.5 63.5t-39 4t-23.5 -41t22 -73.5q-63 18 -79 81.5t9 137.5q23 55 67 82.5t91 31 t87 -18.5t56 -62q4 -10 9 -62.5t12.5 -124.5t13.5 -155.5t12 -158.5t9 -130.5t5 -73.5q10 16 33 57t51.5 95.5t62.5 118t64.5 124t58 112.5t44.5 87q18 41 16 67.5t-15.5 30.5t-33 -19.5t-33.5 -80.5q-16 72 -0.5 119t48 72.5t73.5 30.5t76 -8t53.5 -44t5.5 -78 q-12 -47 -61 -149.5t-115.5 -229.5t-142.5 -266t-144.5 -259t-121 -209t-70.5 -116q-39 -55 -86 -85.5t-93 -38t-84 7t-57.5 47t-13.5 83zM500 1495q14 6 41 32.5t43 63.5q12 25 27.5 28t27.5 -8t14.5 -30.5t-14.5 -40.5q-23 -29 -66.5 -42t-72.5 -3z" />
<glyph unicode="&#xe0;" horiz-adv-x="497" d="M-41 59q-6 35 1 87.5t22.5 112.5t37 126t43.5 129q53 147 127 313q20 39 54.5 58.5t68.5 19.5q55 0 100.5 -34.5t49.5 -88.5q31 12 53.5 -2t22.5 -57q0 -47 -29 -117q-16 -39 -42 -102.5t-50.5 -130t-46 -125t-29.5 -86.5q-4 -16 -8 -29.5t-4 -23.5q0 -23 12 -25t35 20h2 q45 45 77.5 90.5t52 84t30 65.5t14.5 37q-16 -94 -59 -198.5t-117 -180.5q-35 -39 -78 -39q-31 0 -53.5 31t-22.5 102q0 14 1 29.5t3 32.5q-23 -33 -46 -67t-42 -54q-39 -39 -94 -39q-31 0 -56.5 15.5t-29.5 45.5zM68.5 158q-7.5 -47 5.5 -62q10 -6 28.5 12.5t39 50t43 70.5 t41 75t31.5 62.5t15 32.5q12 27 26.5 60t27 63.5t22.5 54t12 33.5q14 53 -6 85t-53 14q-16 -14 -43 -61.5t-56.5 -111t-58 -134t-48 -134t-27 -110.5zM301 1031q2 20 14 31t27.5 8t27.5 -28q16 -37 43 -63.5t41 -32.5q-29 -10 -72.5 3.5t-66.5 41.5q-16 20 -14 40z" />
<glyph unicode="&#xe1;" horiz-adv-x="497" d="M-41 59q-6 35 1 87.5t22.5 112.5t37 126t43.5 129q53 147 127 313q20 39 54.5 58.5t68.5 19.5q55 0 100.5 -34.5t49.5 -88.5q31 12 53.5 -2t22.5 -57q0 -47 -29 -117q-16 -39 -42 -102.5t-50.5 -130t-46 -125t-29.5 -86.5q-4 -16 -8 -29.5t-4 -23.5q0 -23 12 -25t35 20h2 q45 45 77.5 90.5t52 84t30 65.5t14.5 37q-16 -94 -59 -198.5t-117 -180.5q-35 -39 -78 -39q-31 0 -53.5 31t-22.5 102q0 14 1 29.5t3 32.5q-23 -33 -46 -67t-42 -54q-39 -39 -94 -39q-31 0 -56.5 15.5t-29.5 45.5zM68.5 158q-7.5 -47 5.5 -62q10 -6 28.5 12.5t39 50t43 70.5 t41 75t31.5 62.5t15 32.5q12 27 26.5 60t27 63.5t22.5 54t12 33.5q14 53 -6 85t-53 14q-16 -14 -43 -61.5t-56.5 -111t-58 -134t-48 -134t-27 -110.5zM309 944q14 6 41 32.5t43 63.5q12 25 27.5 28t27.5 -8t14.5 -30.5t-14.5 -40.5q-23 -29 -66.5 -42t-72.5 -3z" />
<glyph unicode="&#xe2;" horiz-adv-x="497" d="M-41 59q-6 35 1 87.5t22.5 112.5t37 126t43.5 129q53 147 127 313q20 39 54.5 58.5t68.5 19.5q55 0 100.5 -34.5t49.5 -88.5q31 12 53.5 -2t22.5 -57q0 -47 -29 -117q-16 -39 -42 -102.5t-50.5 -130t-46 -125t-29.5 -86.5q-4 -16 -8 -29.5t-4 -23.5q0 -23 12 -25t35 20h2 q45 45 77.5 90.5t52 84t30 65.5t14.5 37q-16 -94 -59 -198.5t-117 -180.5q-35 -39 -78 -39q-31 0 -53.5 31t-22.5 102q0 14 1 29.5t3 32.5q-23 -33 -46 -67t-42 -54q-39 -39 -94 -39q-31 0 -56.5 15.5t-29.5 45.5zM68.5 158q-7.5 -47 5.5 -62q10 -6 28.5 12.5t39 50t43 70.5 t41 75t31.5 62.5t15 32.5q12 27 26.5 60t27 63.5t22.5 54t12 33.5q14 53 -6 85t-53 14q-16 -14 -43 -61.5t-56.5 -111t-58 -134t-48 -134t-27 -110.5zM296 1033.5q3 15.5 15 19.5q18 4 31.5 15t26 22.5t22.5 18.5t21 5q10 -4 15 -14t9 -25.5t10.5 -32t18.5 -30.5 q12 -12 9 -27.5t-14.5 -27t-24.5 -14.5t-21 9q-6 10 -11.5 32t-15.5 26q-8 2 -17.5 -12.5t-33.5 -24.5q-12 -6 -22.5 4t-15.5 25.5t-2 31z" />
<glyph unicode="&#xe3;" horiz-adv-x="497" d="M-41 59q-6 35 1 87.5t22.5 112.5t37 126t43.5 129q53 147 127 313q20 39 54.5 58.5t68.5 19.5q55 0 100.5 -34.5t49.5 -88.5q31 12 53.5 -2t22.5 -57q0 -47 -29 -117q-16 -39 -42 -102.5t-50.5 -130t-46 -125t-29.5 -86.5q-4 -16 -8 -29.5t-4 -23.5q0 -23 12 -25t35 20h2 q45 45 77.5 90.5t52 84t30 65.5t14.5 37q-16 -94 -59 -198.5t-117 -180.5q-35 -39 -78 -39q-31 0 -53.5 31t-22.5 102q0 14 1 29.5t3 32.5q-23 -33 -46 -67t-42 -54q-39 -39 -94 -39q-31 0 -56.5 15.5t-29.5 45.5zM68.5 158q-7.5 -47 5.5 -62q10 -6 28.5 12.5t39 50t43 70.5 t41 75t31.5 62.5t15 32.5q12 27 26.5 60t27 63.5t22.5 54t12 33.5q14 53 -6 85t-53 14q-16 -14 -43 -61.5t-56.5 -111t-58 -134t-48 -134t-27 -110.5zM320 999.5q0 16.5 6 32t18 19.5q18 4 28.5 -2.5t20 -13.5t21 -11t29.5 4q10 4 18 -5t11 -23.5t-2 -30t-19 -23.5 q-16 -8 -29.5 -4t-26 10t-23.5 12.5t-24 0.5q-14 -6 -21 6t-7 28.5z" />
<glyph unicode="&#xe4;" horiz-adv-x="497" d="M-41 59q-6 35 1 87.5t22.5 112.5t37 126t43.5 129q53 147 127 313q20 39 54.5 58.5t68.5 19.5q55 0 100.5 -34.5t49.5 -88.5q31 12 53.5 -2t22.5 -57q0 -47 -29 -117q-16 -39 -42 -102.5t-50.5 -130t-46 -125t-29.5 -86.5q-4 -16 -8 -29.5t-4 -23.5q0 -23 12 -25t35 20h2 q45 45 77.5 90.5t52 84t30 65.5t14.5 37q-16 -94 -59 -198.5t-117 -180.5q-35 -39 -78 -39q-31 0 -53.5 31t-22.5 102q0 14 1 29.5t3 32.5q-23 -33 -46 -67t-42 -54q-39 -39 -94 -39q-31 0 -56.5 15.5t-29.5 45.5zM68.5 158q-7.5 -47 5.5 -62q10 -6 28.5 12.5t39 50t43 70.5 t41 75t31.5 62.5t15 32.5q12 27 26.5 60t27 63.5t22.5 54t12 33.5q14 53 -6 85t-53 14q-16 -14 -43 -61.5t-56.5 -111t-58 -134t-48 -134t-27 -110.5zM261 991.5q-3 20.5 6 40t27.5 30.5t43.5 -1q18 -10 22 -29.5t-4 -38t-27.5 -29t-46.5 0.5q-18 6 -21 26.5zM392 974.5 q-3 20.5 6 40t27.5 29.5t43.5 -2q18 -8 22 -27.5t-4 -38t-27.5 -28.5t-46.5 0q-18 6 -21 26.5z" />
<glyph unicode="&#xe5;" horiz-adv-x="497" d="M-41 59q-6 35 1 87.5t22.5 112.5t37 126t43.5 129q53 147 127 313q20 39 54.5 58.5t68.5 19.5q55 0 100.5 -34.5t49.5 -88.5q31 12 53.5 -2t22.5 -57q0 -47 -29 -117q-16 -39 -42 -102.5t-50.5 -130t-46 -125t-29.5 -86.5q-4 -16 -8 -29.5t-4 -23.5q0 -23 12 -25t35 20h2 q45 45 77.5 90.5t52 84t30 65.5t14.5 37q-16 -94 -59 -198.5t-117 -180.5q-35 -39 -78 -39q-31 0 -53.5 31t-22.5 102q0 14 1 29.5t3 32.5q-23 -33 -46 -67t-42 -54q-39 -39 -94 -39q-31 0 -56.5 15.5t-29.5 45.5zM68.5 158q-7.5 -47 5.5 -62q10 -6 28.5 12.5t39 50t43 70.5 t41 75t31.5 62.5t15 32.5q12 27 26.5 60t27 63.5t22.5 54t12 33.5q14 53 -6 85t-53 14q-16 -14 -43 -61.5t-56.5 -111t-58 -134t-48 -134t-27 -110.5zM329 990q-5 32 9 61.5t43 46t68 -1.5q29 -14 35 -45t-6.5 -59.5t-42 -45t-70.5 -0.5q-31 12 -36 44zM364 1004.5 q3 -17.5 19 -23.5q23 -10 39 -1t23.5 24.5t3.5 33t-19 25.5q-23 10 -39 1t-23 -25.5t-4 -34z" />
<glyph unicode="&#xe6;" horiz-adv-x="712" d="M-43 63q-6 35 2 87.5t23.5 112t37 125t43.5 128.5q53 147 127 313q20 39 54.5 59.5t68.5 20.5q47 0 90 -27.5t56 -70.5q31 49 72.5 78t103.5 22q72 -10 96.5 -48t24.5 -85q0 -31 -6.5 -58.5t-14.5 -45.5q-31 -72 -68.5 -134.5t-81.5 -109.5t-90 -77.5t-92 -37.5 q-8 -16 -23 -51t-27.5 -72.5t-14.5 -69.5t16 -42q35 -18 82 1t97.5 66.5t97.5 113t82 138.5q-6 -16 -23.5 -63t-48.5 -104.5t-77 -115t-109 -93.5h2q-35 -23 -90 -23q-25 0 -50.5 7t-44 23.5t-29 44t-5.5 68.5v16.5t4 28.5q-23 -41 -53.5 -85t-51.5 -62q-37 -39 -94 -39 q-29 0 -55.5 15.5t-30.5 45.5zM65 157.5q-7 -47.5 7 -59.5q10 -8 28.5 9.5t39 49t43 71.5t42 76t31.5 63.5t16 33.5q14 29 29.5 63t27 64.5t19.5 54t12 31.5q18 53 -3 85t-56 12q-16 -8 -43 -54.5t-57.5 -110t-59 -137t-49 -139t-27.5 -113zM440 408q29 14 54.5 37.5t48 52 t41 59.5t32.5 59q33 72 33 107q0 33 -20.5 33t-38.5 -33q-12 -16 -33.5 -58t-45.5 -91.5t-43 -95.5t-28 -70z" />
<glyph unicode="&#xe7;" horiz-adv-x="350" d="M-45 160q0 61 22.5 154.5t55.5 191.5t71.5 188t73.5 148q51 70 127 69q37 0 71 -18.5t46 -52.5q27 -78 0 -147.5t-86 -127.5q-29 -23 -42 -7.5t7 44.5q12 20 23.5 51t18.5 59.5t5 50t-16 25.5q-35 4 -89.5 -119.5t-136.5 -340.5q-25 -63 -38 -106.5t-18 -71t-2 -43 t11 -23.5q37 -29 90.5 3t105.5 88t97 119.5t66 98.5q-4 -18 -22.5 -57t-46 -84t-63.5 -91t-75 -83t-81 -59.5t-81 -16.5l-2 -4q27 -8 32 -32.5t-5.5 -48t-33 -36t-50.5 3.5q25 0 39 13.5t18 29t-2 27.5t-22 10q-27 -2 -34 2t-5 12.5t9 19.5t11 24q-29 23 -39 59.5t-10 77.5z " />
<glyph unicode="&#xe8;" horiz-adv-x="385" d="M-43 143q4 61 27.5 149.5t51 175.5t54.5 156.5t39 94.5q20 39 40.5 75.5t47.5 64.5t59.5 42t75.5 10q72 -10 96.5 -48t24.5 -85q0 -31 -6 -58.5t-14 -45.5q-31 -72 -69 -134.5t-81 -109.5t-89 -77.5t-91 -37.5q-10 -16 -25.5 -51t-28 -72.5t-14 -69.5t16.5 -42 q35 -18 85 6.5t102 76.5t102.5 122.5t84.5 144.5q-6 -16 -25.5 -68.5t-54 -116t-82.5 -125t-112 -97.5h2q-33 -23 -88 -23q-49 0 -91 30.5t-38 112.5zM156 406q31 14 57.5 38.5t49 53t42 59.5t35.5 59q27 43 35 79t2 54.5t-23.5 14.5t-44.5 -41q-12 -16 -33.5 -58t-46 -91.5 t-45 -95.5t-28.5 -72zM287 1031q2 20 14 31t27.5 8t27.5 -28q16 -37 43 -63.5t41 -32.5q-29 -10 -72.5 3.5t-66.5 41.5q-16 20 -14 40z" />
<glyph unicode="&#xe9;" horiz-adv-x="385" d="M-43 143q4 61 27.5 149.5t51 175.5t54.5 156.5t39 94.5q20 39 40.5 75.5t47.5 64.5t59.5 42t75.5 10q72 -10 96.5 -48t24.5 -85q0 -31 -6 -58.5t-14 -45.5q-31 -72 -69 -134.5t-81 -109.5t-89 -77.5t-91 -37.5q-10 -16 -25.5 -51t-28 -72.5t-14 -69.5t16.5 -42 q35 -18 85 6.5t102 76.5t102.5 122.5t84.5 144.5q-6 -16 -25.5 -68.5t-54 -116t-82.5 -125t-112 -97.5h2q-33 -23 -88 -23q-49 0 -91 30.5t-38 112.5zM156 406q31 14 57.5 38.5t49 53t42 59.5t35.5 59q27 43 35 79t2 54.5t-23.5 14.5t-44.5 -41q-12 -16 -33.5 -58t-46 -91.5 t-45 -95.5t-28.5 -72zM285 944q14 6 41 32.5t43 63.5q12 25 27.5 28t27.5 -8t14.5 -30.5t-14.5 -40.5q-23 -29 -66.5 -42t-72.5 -3z" />
<glyph unicode="&#xea;" horiz-adv-x="385" d="M-43 143q4 61 27.5 149.5t51 175.5t54.5 156.5t39 94.5q20 39 40.5 75.5t47.5 64.5t59.5 42t75.5 10q72 -10 96.5 -48t24.5 -85q0 -31 -6 -58.5t-14 -45.5q-31 -72 -69 -134.5t-81 -109.5t-89 -77.5t-91 -37.5q-10 -16 -25.5 -51t-28 -72.5t-14 -69.5t16.5 -42 q35 -18 85 6.5t102 76.5t102.5 122.5t84.5 144.5q-6 -16 -25.5 -68.5t-54 -116t-82.5 -125t-112 -97.5h2q-33 -23 -88 -23q-49 0 -91 30.5t-38 112.5zM156 406q31 14 57.5 38.5t49 53t42 59.5t35.5 59q27 43 35 79t2 54.5t-23.5 14.5t-44.5 -41q-12 -16 -33.5 -58t-46 -91.5 t-45 -95.5t-28.5 -72zM259 1033.5q3 15.5 15 19.5q18 4 31.5 15t26 22.5t22.5 18.5t21 5q10 -4 15 -14t9 -25.5t10.5 -32t18.5 -30.5q12 -12 9 -27.5t-14.5 -27t-24.5 -14.5t-21 9q-6 10 -11.5 32t-15.5 26q-8 2 -17.5 -12.5t-33.5 -24.5q-12 -6 -22.5 4t-15.5 25.5t-2 31z " />
<glyph unicode="&#xeb;" horiz-adv-x="385" d="M-43 143q4 61 27.5 149.5t51 175.5t54.5 156.5t39 94.5q20 39 40.5 75.5t47.5 64.5t59.5 42t75.5 10q72 -10 96.5 -48t24.5 -85q0 -31 -6 -58.5t-14 -45.5q-31 -72 -69 -134.5t-81 -109.5t-89 -77.5t-91 -37.5q-10 -16 -25.5 -51t-28 -72.5t-14 -69.5t16.5 -42 q35 -18 85 6.5t102 76.5t102.5 122.5t84.5 144.5q-6 -16 -25.5 -68.5t-54 -116t-82.5 -125t-112 -97.5h2q-33 -23 -88 -23q-49 0 -91 30.5t-38 112.5zM156 406q31 14 57.5 38.5t49 53t42 59.5t35.5 59q27 43 35 79t2 54.5t-23.5 14.5t-44.5 -41q-12 -16 -33.5 -58t-46 -91.5 t-45 -95.5t-28.5 -72zM237 991.5q-3 20.5 6 40t27.5 30.5t43.5 -1q18 -10 22 -29.5t-4 -38t-27.5 -29t-46.5 0.5q-18 6 -21 26.5zM368 974.5q-3 20.5 6 40t27.5 29.5t43.5 -2q18 -8 22 -27.5t-4 -38t-27.5 -28.5t-46.5 0q-18 6 -21 26.5z" />
<glyph unicode="&#xec;" horiz-adv-x="231" d="M-72 137q14 68 46 163t66 191.5t63.5 177t43.5 117.5q10 25 28 36.5t40 11.5q18 0 36.5 -9.5t31 -25t16.5 -37t-6 -45.5q-4 -10 -13.5 -30.5t-21.5 -49.5q-18 -45 -43 -104.5t-51.5 -126t-52 -136t-45.5 -133.5q-12 -35 -5 -53t29 4q37 29 65.5 74t50 91t39 85t31.5 57 q0 -18 -19 -75.5t-51 -122t-72 -122t-83 -73.5q-20 -8 -45.5 -5t-45 18.5t-30 45t-2.5 76.5zM191 1031q2 20 14 31t27.5 8t27.5 -28q16 -37 43 -63.5t41 -32.5q-29 -10 -73 3.5t-66 41.5q-16 20 -14 40z" />
<glyph unicode="&#xed;" horiz-adv-x="231" d="M-72 137q-8 -47 2.5 -76.5t30 -45t45 -18.5t45.5 5q43 16 83 73.5t72 122t51 122t19 75.5q-14 -18 -31.5 -57t-39 -85t-50 -91t-65.5 -74q-23 -23 -30 -4.5t6 53.5q20 63 45.5 133t52 136.5t51.5 126t43 104.5q12 29 21.5 49.5t13.5 30.5q10 25 6 46t-16.5 36.5t-31 25 t-36.5 9.5q-23 0 -40.5 -11.5t-27.5 -36.5q-14 -37 -43.5 -117.5t-63.5 -177t-65.5 -191.5t-46.5 -163zM207 944q14 6 41 32.5t43 63.5q12 25 27.5 28t27.5 -8t14 -30.5t-14 -40.5q-23 -29 -66.5 -42t-72.5 -3z" />
<glyph unicode="&#xee;" horiz-adv-x="231" d="M-72 137q14 68 46 163t66 191.5t63.5 177t43.5 117.5q10 25 28 36.5t40 11.5q18 0 36.5 -9.5t31 -25t16.5 -37t-6 -45.5q-4 -10 -13.5 -30.5t-21.5 -49.5q-18 -45 -43 -104.5t-51.5 -126t-52 -136t-45.5 -133.5q-12 -35 -5 -53t29 4q37 29 65.5 74t50 91t39 85t31.5 57 q0 -18 -19 -75.5t-51 -122t-72 -122t-83 -73.5q-20 -8 -45.5 -5t-45 18.5t-30 45t-2.5 76.5zM196 1033.5q3 15.5 15 19.5q18 4 31.5 15t26 22.5t22.5 18.5t20 5q10 -4 15.5 -14t9.5 -25.5t10.5 -32t18.5 -30.5q12 -12 9 -27.5t-14.5 -27t-24.5 -14.5t-22 9q-6 10 -11 32 t-15 26q-8 2 -17.5 -12.5t-33.5 -24.5q-12 -6 -22.5 4t-15.5 25.5t-2 31z" />
<glyph unicode="&#xef;" horiz-adv-x="231" d="M-72 137q14 68 46 163t66 191.5t63.5 177t43.5 117.5q10 25 28 36.5t40 11.5q18 0 36.5 -9.5t31 -25t16.5 -37t-6 -45.5q-4 -10 -13.5 -30.5t-21.5 -49.5q-18 -45 -43 -104.5t-51.5 -126t-52 -136t-45.5 -133.5q-12 -35 -5 -53t29 4q37 29 65.5 74t50 91t39 85t31.5 57 q0 -18 -19 -75.5t-51 -122t-72 -122t-83 -73.5q-20 -8 -45.5 -5t-45 18.5t-30 45t-2.5 76.5zM169 991.5q-3 20.5 6 40t27.5 30.5t43.5 -1q18 -10 22 -29.5t-4 -38t-27.5 -29t-46.5 0.5q-18 6 -21 26.5zM300.5 974.5q-3.5 20.5 5.5 40t27.5 29.5t43.5 -2q18 -8 22 -27.5 t-4 -38t-27.5 -28.5t-45.5 0q-18 6 -21.5 26.5z" />
<glyph unicode="&#xf1;" d="M-63 74q0 35 14 69q23 59 51.5 139t56.5 158q25 70 48.5 136.5t44 122t36 93t23.5 52.5h-2q12 25 31.5 35t40.5 10q33 0 57 -17.5t24 -42.5q0 -10 -11 -44.5t-30.5 -84t-43 -109t-46.5 -116.5q-16 -41 -27 -65.5t-17.5 -39t-8.5 -22.5l-4 -16q45 88 91 181t83 169 q43 88 82 172q16 25 37.5 36t46.5 11q35 0 63.5 -21.5t24.5 -54.5q-4 -23 -23.5 -78t-46.5 -126q-29 -80 -61.5 -171.5t-59 -171t-39 -135t-1.5 -61.5h-2q18 -10 47.5 25.5t61.5 88t59.5 107.5t44.5 86q-2 -10 -12.5 -45t-27 -80t-39 -93t-49 -88t-56 -64.5t-60.5 -20.5 q-43 4 -58.5 44t-15.5 99q0 66 13.5 146t25.5 139q0 4 1 6t1 4v4q-12 -23 -27.5 -58.5t-29.5 -62.5h2q-35 -72 -74 -146.5t-76 -133.5q-14 -23 -36.5 -37t-49.5 -14q-31 0 -54 21.5t-23 64.5zM338 999.5q0 16.5 6 32t18 19.5q18 4 28.5 -2.5t20 -13.5t21 -11t29.5 4 q10 4 18 -5t11 -23.5t-2 -30t-19 -23.5q-16 -8 -29.5 -4t-26 10t-23.5 12.5t-24 0.5q-14 -6 -21 6t-7 28.5z" />
<glyph unicode="&#xf2;" horiz-adv-x="366" d="M-51 164q0 45 11 115.5t30 142.5q23 76 47 144.5t46.5 122.5t42 94t30.5 59q18 35 55 51t72 16q27 0 50 -7t40.5 -21.5t25 -35t-1.5 -44.5q-4 -12 -10 -27q-12 -33 -25.5 -71.5t-17.5 -75.5q-6 -72 8.5 -92.5t39 -11.5t54 38t52.5 53q-27 -66 -56.5 -96.5t-56.5 -40.5 q-31 -12 -61 -6q-8 -35 -24.5 -93.5t-40 -123t-54.5 -123.5t-64 -96q-35 -35 -86 -35q-29 0 -56.5 17.5t-37.5 48.5q-12 33 -12 98zM59 125q0 -23 3.5 -38t13.5 -19v-2q14 -8 42.5 34.5t57.5 111.5t54.5 154t37.5 160q-10 16 -17 45t-7 66q0 27 2 51.5t12 52.5 q-6 -16 -18.5 -37.5t-22.5 -41.5h2q-41 -82 -70.5 -170.5t-52.5 -161.5q-10 -41 -23.5 -100.5t-13.5 -104.5zM234 1031q2 20 14 31t27.5 8t27.5 -28q16 -37 43 -63.5t41 -32.5q-29 -10 -72.5 3.5t-66.5 41.5q-16 20 -14 40z" />
<glyph unicode="&#xf3;" horiz-adv-x="366" d="M-51 164q0 45 11 115.5t30 142.5q23 76 47 144.5t46.5 122.5t42 94t30.5 59q18 35 55 51t72 16q27 0 50 -7t40.5 -21.5t25 -35t-1.5 -44.5q-4 -12 -10 -27q-12 -33 -25.5 -71.5t-17.5 -75.5q-6 -72 8.5 -92.5t39 -11.5t54 38t52.5 53q-27 -66 -56.5 -96.5t-56.5 -40.5 q-31 -12 -61 -6q-8 -35 -24.5 -93.5t-40 -123t-54.5 -123.5t-64 -96q-35 -35 -86 -35q-29 0 -56.5 17.5t-37.5 48.5q-12 33 -12 98zM59 125q0 -23 3.5 -38t13.5 -19v-2q14 -8 42.5 34.5t57.5 111.5t54.5 154t37.5 160q-10 16 -17 45t-7 66q0 27 2 51.5t12 52.5 q-6 -16 -18.5 -37.5t-22.5 -41.5h2q-41 -82 -70.5 -170.5t-52.5 -161.5q-10 -41 -23.5 -100.5t-13.5 -104.5zM236 944q14 6 41 32.5t43 63.5q12 25 27.5 28t27.5 -8t14.5 -30.5t-14.5 -40.5q-23 -29 -66.5 -42t-72.5 -3z" />
<glyph unicode="&#xf4;" horiz-adv-x="366" d="M-51 164q0 45 11 115.5t30 142.5q23 76 47 144.5t46.5 122.5t42 94t30.5 59q18 35 55 51t72 16q27 0 50 -7t40.5 -21.5t25 -35t-1.5 -44.5q-4 -12 -10 -27q-12 -33 -25.5 -71.5t-17.5 -75.5q-6 -72 8.5 -92.5t39 -11.5t54 38t52.5 53q-27 -66 -56.5 -96.5t-56.5 -40.5 q-31 -12 -61 -6q-8 -35 -24.5 -93.5t-40 -123t-54.5 -123.5t-64 -96q-35 -35 -86 -35q-29 0 -56.5 17.5t-37.5 48.5q-12 33 -12 98zM59 125q0 -23 3.5 -38t13.5 -19v-2q14 -8 42.5 34.5t57.5 111.5t54.5 154t37.5 160q-10 16 -17 45t-7 66q0 27 2 51.5t12 52.5 q-6 -16 -18.5 -37.5t-22.5 -41.5h2q-41 -82 -70.5 -170.5t-52.5 -161.5q-10 -41 -23.5 -100.5t-13.5 -104.5zM231 1033.5q3 15.5 15 19.5q18 4 31.5 15t26 22.5t22.5 18.5t21 5q10 -4 15 -14t9 -25.5t10.5 -32t18.5 -30.5q12 -12 9 -27.5t-14.5 -27t-24.5 -14.5t-21 9 q-6 10 -11.5 32t-15.5 26q-8 2 -17.5 -12.5t-33.5 -24.5q-12 -6 -22.5 4t-15.5 25.5t-2 31z" />
<glyph unicode="&#xf5;" horiz-adv-x="366" d="M-51 164q0 45 11 115.5t30 142.5q23 76 47 144.5t46.5 122.5t42 94t30.5 59q18 35 55 51t72 16q27 0 50 -7t40.5 -21.5t25 -35t-1.5 -44.5q-4 -12 -10 -27q-12 -33 -25.5 -71.5t-17.5 -75.5q-6 -72 8.5 -92.5t39 -11.5t54 38t52.5 53q-27 -66 -56.5 -96.5t-56.5 -40.5 q-31 -12 -61 -6q-8 -35 -24.5 -93.5t-40 -123t-54.5 -123.5t-64 -96q-35 -35 -86 -35q-29 0 -56.5 17.5t-37.5 48.5q-12 33 -12 98zM59 125q0 -23 3.5 -38t13.5 -19v-2q14 -8 42.5 34.5t57.5 111.5t54.5 154t37.5 160q-10 16 -17 45t-7 66q0 27 2 51.5t12 52.5 q-6 -16 -18.5 -37.5t-22.5 -41.5h2q-41 -82 -70.5 -170.5t-52.5 -161.5q-10 -41 -23.5 -100.5t-13.5 -104.5zM252 999.5q0 16.5 6 32t18 19.5q18 4 28.5 -2.5t20 -13.5t21 -11t29.5 4q10 4 18 -5t11 -23.5t-2 -30t-19 -23.5q-16 -8 -29.5 -4t-26 10t-23.5 12.5t-24 0.5 q-14 -6 -21 6t-7 28.5z" />
<glyph unicode="&#xf6;" horiz-adv-x="366" d="M-51 164q0 45 11 115.5t30 142.5q23 76 47 144.5t46.5 122.5t42 94t30.5 59q18 35 55 51t72 16q27 0 50 -7t40.5 -21.5t25 -35t-1.5 -44.5q-4 -12 -10 -27q-12 -33 -25.5 -71.5t-17.5 -75.5q-6 -72 8.5 -92.5t39 -11.5t54 38t52.5 53q-27 -66 -56.5 -96.5t-56.5 -40.5 q-31 -12 -61 -6q-8 -35 -24.5 -93.5t-40 -123t-54.5 -123.5t-64 -96q-35 -35 -86 -35q-29 0 -56.5 17.5t-37.5 48.5q-12 33 -12 98zM59 125q0 -23 3.5 -38t13.5 -19v-2q14 -8 42.5 34.5t57.5 111.5t54.5 154t37.5 160q-10 16 -17 45t-7 66q0 27 2 51.5t12 52.5 q-6 -16 -18.5 -37.5t-22.5 -41.5h2q-41 -82 -70.5 -170.5t-52.5 -161.5q-10 -41 -23.5 -100.5t-13.5 -104.5zM208 991.5q-3 20.5 6 40t27.5 30.5t43.5 -1q18 -10 22 -29.5t-4 -38t-27.5 -29t-46.5 0.5q-18 6 -21 26.5zM339 974.5q-3 20.5 6 40t27.5 29.5t43.5 -2 q18 -8 22 -27.5t-4 -38t-27.5 -28.5t-46.5 0q-18 6 -21 26.5z" />
<glyph unicode="&#xf7;" horiz-adv-x="442" d="M106 31q-6 14 1.5 29.5t23.5 28.5t38.5 25.5t47.5 18.5q12 4 26.5 0t21.5 -16.5t5 -29.5t-22 -38q-41 -41 -80 -48t-62 30zM180 225q-10 35 25 62t86 41q12 6 25.5 1t21.5 -17.5t6 -30t-22 -37.5q-41 -41 -80 -47.5t-62 28.5z" />
<glyph unicode="&#xf8;" horiz-adv-x="366" d="M-51 164q0 45 11 115.5t30 142.5q23 76 47 144.5t46.5 122.5t42 94t30.5 59q18 35 55 51t72 16h10q18 49 32.5 63.5t23.5 7.5t14.5 -31.5t3.5 -53.5q0 -2 -1 -3t-1 -5q47 -31 32 -86q-4 -12 -10 -27q-12 -33 -25.5 -71.5t-17.5 -75.5q-6 -72 8.5 -92.5t39 -11.5t54 38 t52.5 53q-27 -66 -56.5 -96.5t-56.5 -40.5q-31 -12 -61 -6q-8 -35 -24.5 -93.5t-40 -123t-54.5 -123.5t-64 -96q-12 -12 -32 -23q-6 -20 -11.5 -34.5t-7.5 -20.5q-20 -41 -40.5 -47t-24.5 4q-4 8 18 86q-27 4 -49.5 20.5t-32.5 45.5q-12 33 -12 98zM59 125q0 -33 4 -43 q16 63 37 140t42.5 157t43 156.5t39.5 142.5q-4 -4 -5 -8t-3 -8h2q-41 -82 -70.5 -170.5t-52.5 -161.5q-10 -41 -23.5 -100.5t-13.5 -104.5zM156 168q16 37 33.5 80t33 90t27.5 95t18 93q-4 4 -4 6q-29 -92 -56.5 -187t-51.5 -177z" />
<glyph unicode="&#xf9;" d="M-41 117q0 51 18 106q16 43 38 100.5t44 116.5q20 55 44 112.5t43.5 112t34 102.5t18.5 87q4 29 21.5 41t37.5 12q29 0 58.5 -23.5t41.5 -58.5q2 -16 -10 -53t-31.5 -86t-45 -105.5t-50.5 -113.5q-29 -66 -55.5 -126t-42.5 -105q-10 -23 -9 -37.5t10 -17.5t25.5 7.5 t36.5 38.5q43 53 84 133t78 166t66.5 165t46.5 128q10 23 28.5 34t40.5 11q31 0 54.5 -22.5t11.5 -65.5v-2q-4 -14 -19.5 -50t-33.5 -87q-25 -61 -54.5 -136t-58.5 -148.5t-52.5 -139.5t-35.5 -109q-8 -23 -6 -35t9 -18t17.5 -5t22.5 5q23 8 50.5 42t54 81t51 103.5 t41.5 111.5q-14 -84 -39 -162q-23 -66 -61 -134t-97 -109q-14 -10 -32.5 -15.5t-33.5 -5.5q-43 0 -67.5 41t-7.5 115q4 33 20 86q-29 -49 -59.5 -89t-61 -68t-62.5 -40t-65 -2q-57 27 -57 111zM353 1031q2 20 14 31t27.5 8t27.5 -28q16 -37 43 -63.5t41 -32.5 q-29 -10 -72.5 3.5t-66.5 41.5q-16 20 -14 40z" />
<glyph unicode="&#xfa;" d="M-41 117q0 51 18 106q16 43 38 100.5t44 116.5q20 55 44 112.5t43.5 112t34 102.5t18.5 87q4 29 21.5 41t37.5 12q29 0 58.5 -23.5t41.5 -58.5q2 -16 -10 -53t-31.5 -86t-45 -105.5t-50.5 -113.5q-29 -66 -55.5 -126t-42.5 -105q-10 -23 -9 -37.5t10 -17.5t25.5 7.5 t36.5 38.5q43 53 84 133t78 166t66.5 165t46.5 128q10 23 28.5 34t40.5 11q31 0 54.5 -22.5t11.5 -65.5v-2q-4 -14 -19.5 -50t-33.5 -87q-25 -61 -54.5 -136t-58.5 -148.5t-52.5 -139.5t-35.5 -109q-8 -23 -6 -35t9 -18t17.5 -5t22.5 5q23 8 50.5 42t54 81t51 103.5 t41.5 111.5q-14 -84 -39 -162q-23 -66 -61 -134t-97 -109q-14 -10 -32.5 -15.5t-33.5 -5.5q-43 0 -67.5 41t-7.5 115q4 33 20 86q-29 -49 -59.5 -89t-61 -68t-62.5 -40t-65 -2q-57 27 -57 111zM346 944q14 6 41 32.5t43 63.5q12 25 27.5 28t27.5 -8t14.5 -30.5t-14.5 -40.5 q-23 -29 -66.5 -42t-72.5 -3z" />
<glyph unicode="&#xfb;" d="M-41 117q0 51 18 106q16 43 38 100.5t44 116.5q20 55 44 112.5t43.5 112t34 102.5t18.5 87q4 29 21.5 41t37.5 12q29 0 58.5 -23.5t41.5 -58.5q2 -16 -10 -53t-31.5 -86t-45 -105.5t-50.5 -113.5q-29 -66 -55.5 -126t-42.5 -105q-10 -23 -9 -37.5t10 -17.5t25.5 7.5 t36.5 38.5q43 53 84 133t78 166t66.5 165t46.5 128q10 23 28.5 34t40.5 11q31 0 54.5 -22.5t11.5 -65.5v-2q-4 -14 -19.5 -50t-33.5 -87q-25 -61 -54.5 -136t-58.5 -148.5t-52.5 -139.5t-35.5 -109q-8 -23 -6 -35t9 -18t17.5 -5t22.5 5q23 8 50.5 42t54 81t51 103.5 t41.5 111.5q-14 -84 -39 -162q-23 -66 -61 -134t-97 -109q-14 -10 -32.5 -15.5t-33.5 -5.5q-43 0 -67.5 41t-7.5 115q4 33 20 86q-29 -49 -59.5 -89t-61 -68t-62.5 -40t-65 -2q-57 27 -57 111zM353 1033.5q3 15.5 15 19.5q18 4 31.5 15t26 22.5t22.5 18.5t21 5q10 -4 15 -14 t9 -25.5t10.5 -32t18.5 -30.5q12 -12 9 -27.5t-14.5 -27t-24.5 -14.5t-21 9q-6 10 -11.5 32t-15.5 26q-8 2 -17.5 -12.5t-33.5 -24.5q-12 -6 -22.5 4t-15.5 25.5t-2 31z" />
<glyph unicode="&#xfc;" d="M-41 117q0 51 18 106q16 43 38 100.5t44 116.5q20 55 44 112.5t43.5 112t34 102.5t18.5 87q4 29 21.5 41t37.5 12q29 0 58.5 -23.5t41.5 -58.5q2 -16 -10 -53t-31.5 -86t-45 -105.5t-50.5 -113.5q-29 -66 -55.5 -126t-42.5 -105q-10 -23 -9 -37.5t10 -17.5t25.5 7.5 t36.5 38.5q43 53 84 133t78 166t66.5 165t46.5 128q10 23 28.5 34t40.5 11q31 0 54.5 -22.5t11.5 -65.5v-2q-4 -14 -19.5 -50t-33.5 -87q-25 -61 -54.5 -136t-58.5 -148.5t-52.5 -139.5t-35.5 -109q-8 -23 -6 -35t9 -18t17.5 -5t22.5 5q23 8 50.5 42t54 81t51 103.5 t41.5 111.5q-14 -84 -39 -162q-23 -66 -61 -134t-97 -109q-14 -10 -32.5 -15.5t-33.5 -5.5q-43 0 -67.5 41t-7.5 115q4 33 20 86q-29 -49 -59.5 -89t-61 -68t-62.5 -40t-65 -2q-57 27 -57 111zM319 991.5q-3 20.5 6 40t27.5 30.5t43.5 -1q18 -10 22 -29.5t-4 -38t-27.5 -29 t-46.5 0.5q-18 6 -21 26.5zM450 974.5q-3 20.5 6 40t27.5 29.5t43.5 -2q18 -8 22 -27.5t-4 -38t-27.5 -28.5t-46.5 0q-18 6 -21 26.5z" />
<glyph unicode="&#xfd;" d="M-154 -543q10 39 38 103.5t70 137.5t96 144.5t118 124.5q8 20 20.5 58t26.5 80t25.5 81t17.5 62q-66 -125 -117 -187.5t-104 -62.5q-33 0 -61.5 23.5t-20.5 76.5q2 18 26.5 87t59.5 160t75 191.5t74 182.5q16 41 31 75.5t25 59.5q8 20 30.5 30.5t47.5 10.5 q35 0 65.5 -19.5t20.5 -50.5q-4 -12 -26 -56t-50 -107q-35 -76 -76 -167.5t-77 -170t-59 -132.5l-24 -53h-2q12 -6 35 25t51.5 84t60 120.5t62.5 135t57.5 127t45.5 96.5q12 27 38.5 40t53.5 13q29 0 45 -19.5t2 -60.5q-6 -12 -21.5 -56t-36 -104.5t-45 -131t-49.5 -136.5 q-27 -70 -47 -127t-31 -90q45 25 85 65t75 87t61.5 95t43.5 87q0 -27 -19.5 -79t-57.5 -113.5t-94.5 -127t-129.5 -118.5q-18 -49 -41 -115.5t-49.5 -138.5t-58.5 -140.5t-67.5 -123t-77.5 -87t-87 -30.5q-35 2 -51.5 37t-2.5 104zM-100 -537q-14 -53 7 -59t56 33 q18 18 46 72.5t57.5 122t55 137t38.5 122.5q-18 -10 -56 -59t-79 -114.5t-77 -135t-48 -119.5zM379 944q14 6 41 32.5t43 63.5q12 25 27.5 28t27.5 -8t14.5 -30.5t-14.5 -40.5q-23 -29 -66.5 -42t-72.5 -3z" />
<glyph unicode="&#xff;" d="M-154 -543q10 39 38 103.5t70 137.5t96 144.5t118 124.5q8 20 20.5 58t26.5 80t25.5 81t17.5 62q-66 -125 -117 -187.5t-104 -62.5q-33 0 -61.5 23.5t-20.5 76.5q2 18 26.5 87t59.5 160t75 191.5t74 182.5q16 41 31 75.5t25 59.5q8 20 30.5 30.5t47.5 10.5 q35 0 65.5 -19.5t20.5 -50.5q-4 -12 -26 -56t-50 -107q-35 -76 -76 -167.5t-77 -170t-59 -132.5l-24 -53h-2q12 -6 35 25t51.5 84t60 120.5t62.5 135t57.5 127t45.5 96.5q12 27 38.5 40t53.5 13q29 0 45 -19.5t2 -60.5q-6 -12 -21.5 -56t-36 -104.5t-45 -131t-49.5 -136.5 q-27 -70 -47 -127t-31 -90q45 25 85 65t75 87t61.5 95t43.5 87q0 -27 -19.5 -79t-57.5 -113.5t-94.5 -127t-129.5 -118.5q-18 -49 -41 -115.5t-49.5 -138.5t-58.5 -140.5t-67.5 -123t-77.5 -87t-87 -30.5q-35 2 -51.5 37t-2.5 104zM-100 -537q-14 -53 7 -59t56 33 q18 18 46 72.5t57.5 122t55 137t38.5 122.5q-18 -10 -56 -59t-79 -114.5t-77 -135t-48 -119.5zM343 991.5q-3 20.5 6 40t27.5 30.5t43.5 -1q18 -10 22 -29.5t-4 -38t-27.5 -29t-46.5 0.5q-18 6 -21 26.5zM474 974.5q-3 20.5 6 40t27.5 29.5t43.5 -2q18 -8 22 -27.5t-4 -38 t-27.5 -28.5t-46.5 0q-18 6 -21 26.5z" />
<glyph unicode="&#x152;" horiz-adv-x="1349" d="M1 306q-3 75 8 167t42 195q55 184 142.5 330.5t187.5 247t201.5 149.5t185.5 35q31 -6 49 -21q29 20 70 21q37 0 60.5 -8.5t36.5 -17.5t17.5 -17.5t-0.5 -6.5q-29 12 -53 9t-36.5 -12t-10.5 -20.5t25 -17.5q23 -4 67.5 -5t123.5 7.5t200 26.5t293 53q2 -45 -9.5 -84 t-29 -69.5t-35.5 -51t-31 -26.5q-16 -8 -55 -14.5t-88 -11.5t-103.5 -9t-102.5 -7t-84 -4t-48 -1q-6 -18 -21.5 -61.5t-34 -94.5t-36 -102t-27.5 -82h39t74 1t92 2t94 3t80 4t49 6q6 -4 3 -22.5t-9 -40t-16.5 -40t-20.5 -24.5q-39 -23 -100.5 -33t-125 -13t-120.5 -2t-90 3 q-6 -16 -26.5 -76.5t-45 -131t-48 -136t-32.5 -94.5q70 -2 147 6t150.5 20.5t139 28t114.5 25.5q6 -6 1 -37t-18 -66.5t-32.5 -70.5t-42.5 -52q-14 -6 -60 -18t-109.5 -23.5t-137.5 -18.5t-144.5 -2t-129 22.5t-91.5 56.5l-2 2q-72 -51 -128 -70.5t-78 -23.5q-27 -6 -60 5 t-65.5 29.5t-60 39t-44.5 36.5q-18 25 -32.5 79t-17.5 129zM202 345q1 -83 18.5 -141.5t45.5 -82.5q90 18 164 75.5t131 137.5t99 172t71 178q10 29 1 56.5t-30 43.5q-31 33 -57.5 81t-39.5 109.5t-8 134.5t40 155q-35 -25 -79 -63t-93 -98.5t-98.5 -147.5t-92.5 -207 q-41 -115 -57 -217.5t-15 -185.5zM680 983q12 -61 38.5 -106t49.5 -78q2 0 0 2t0 2q33 135 38 239.5t-9 196.5q-8 53 -20.5 60.5t-28.5 -3.5q-55 -98 -67.5 -175t-0.5 -138z" />
<glyph unicode="&#x153;" horiz-adv-x="669" d="M-43 166q0 47 9 111.5t32 144.5q47 170 97 277.5t67 142.5q20 35 56 51t75 16q27 0 50.5 -7t39.5 -21.5t23.5 -35t-0.5 -44.5q-2 -6 -5.5 -13.5t-5.5 -15.5q-8 -16 -10 -27q35 72 83 122.5t128 45.5q70 -10 95.5 -47t25.5 -84q0 -29 -6 -57.5t-15 -46.5 q-31 -72 -68.5 -134.5t-79.5 -109.5t-88 -76.5t-91 -38.5q-2 -2 -2 -4q-2 -2 -2 -4q-10 -20 -24.5 -54t-26 -69.5t-13.5 -64.5t14 -39q35 -18 82 1t97.5 66.5t97.5 113t82 138.5q-4 -12 -21.5 -60t-49.5 -107.5t-79 -118t-108 -92.5h2q-33 -23 -90 -23q-43 0 -81 22.5 t-46 81.5q-12 -23 -25.5 -40t-25.5 -31q-35 -35 -89 -35q-29 0 -54 17.5t-38 48.5q-12 33 -12 100zM68 125q0 -23 4 -38t14 -19v-2q14 -8 42 34.5t56.5 111.5t55 154t39.5 160q-10 16 -18.5 45t-8.5 66q0 27 2 51.5t14 52.5q-8 -16 -20 -37.5t-23 -41.5h2 q-39 -82 -68.5 -170.5t-52.5 -161.5q-6 -20 -12 -47t-12 -54.5t-10 -54.5t-4 -49zM401 412q59 29 103.5 90t75.5 116q14 35 22 62t8 45q0 33 -19.5 34t-39.5 -32q-10 -16 -32.5 -58t-45 -91.5t-43 -95.5t-29.5 -70zM674 403q0 2 1 2.5t1 2.5q0 -2 -1 -2t-1 -3z" />
<glyph unicode="&#x178;" horiz-adv-x="657" d="M2 109.5q6 50.5 47 115.5q-4 -43 2 -73q4 -29 15.5 -49.5t35.5 -16.5q18 2 41 19.5t45.5 46t45 64.5t42.5 73q47 86 95 194q-12 37 -27.5 105.5t-32 157t-30 190.5t-21.5 205q-4 49 -24.5 63.5t-39 4t-23.5 -41t22 -73.5q-63 18 -79 81.5t9 137.5q23 55 67 82.5t91 31 t87 -18.5t56 -62q4 -10 9 -62.5t12.5 -124.5t13.5 -155.5t12 -158.5t9 -130.5t5 -73.5q10 16 33 57t51.5 95.5t62.5 118t64.5 124t58 112.5t44.5 87q18 41 16 67.5t-15.5 30.5t-33 -19.5t-33.5 -80.5q-16 72 -0.5 119t48 72.5t73.5 30.5t76 -8t53.5 -44t5.5 -78 q-12 -47 -61 -149.5t-115.5 -229.5t-142.5 -266t-144.5 -259t-121 -209t-70.5 -116q-39 -55 -86 -85.5t-93 -38t-84 7t-57.5 47t-13.5 83zM448 1542.5q-3 20.5 6 40t27.5 30.5t43.5 -1q18 -10 22 -29.5t-4 -38t-27.5 -29t-46.5 0.5q-18 6 -21 26.5zM579 1525.5q-3 20.5 6 40 t27.5 29.5t43.5 -2q18 -8 22 -27.5t-4 -38t-27.5 -28.5t-46.5 0q-18 6 -21 26.5z" />
<glyph unicode="&#x2c6;" horiz-adv-x="561" d="M206 1033.5q3 15.5 15 19.5q18 4 31.5 15t26 22.5t22.5 18.5t21 5q10 -4 15 -14t9 -25.5t10.5 -32t18.5 -30.5q12 -12 9 -27.5t-14.5 -27t-24.5 -14.5t-21 9q-6 10 -11.5 32t-15.5 26q-8 2 -17.5 -12.5t-33.5 -24.5q-12 -6 -22.5 4t-15.5 25.5t-2 31z" />
<glyph unicode="&#x2dc;" d="M201 999.5q0 16.5 6 32t18 19.5q18 4 28.5 -2.5t20 -13.5t21 -11t29.5 4q10 4 18 -5t11 -23.5t-2 -30t-19 -23.5q-16 -8 -29.5 -4t-26 10t-23.5 12.5t-24 0.5q-14 -6 -21 6t-7 28.5z" />
<glyph unicode="&#x2000;" horiz-adv-x="832" />
<glyph unicode="&#x2001;" horiz-adv-x="1665" />
<glyph unicode="&#x2002;" horiz-adv-x="832" />
<glyph unicode="&#x2003;" horiz-adv-x="1665" />
<glyph unicode="&#x2004;" horiz-adv-x="555" />
<glyph unicode="&#x2005;" horiz-adv-x="416" />
<glyph unicode="&#x2006;" horiz-adv-x="277" />
<glyph unicode="&#x2007;" horiz-adv-x="277" />
<glyph unicode="&#x2008;" horiz-adv-x="208" />
<glyph unicode="&#x2009;" horiz-adv-x="333" />
<glyph unicode="&#x200a;" horiz-adv-x="92" />
<glyph unicode="&#x2010;" horiz-adv-x="673" d="M139 485.5q-2 22.5 10.5 39t36.5 16.5q2 0 32 -1t73 -1t93 -2t94 -2t74 -1.5t34 -1.5q12 -6 -0.5 -38.5t-50.5 -59.5q-14 -16 -57.5 -24.5t-93.5 -11.5t-97 -1t-72 6q-37 12 -55.5 36t-20.5 46.5z" />
<glyph unicode="&#x2011;" horiz-adv-x="673" d="M139 485.5q-2 22.5 10.5 39t36.5 16.5q2 0 32 -1t73 -1t93 -2t94 -2t74 -1.5t34 -1.5q12 -6 -0.5 -38.5t-50.5 -59.5q-14 -16 -57.5 -24.5t-93.5 -11.5t-97 -1t-72 6q-37 12 -55.5 36t-20.5 46.5z" />
<glyph unicode="&#x2012;" horiz-adv-x="673" d="M139 485.5q-2 22.5 10.5 39t36.5 16.5q2 0 32 -1t73 -1t93 -2t94 -2t74 -1.5t34 -1.5q12 -6 -0.5 -38.5t-50.5 -59.5q-14 -16 -57.5 -24.5t-93.5 -11.5t-97 -1t-72 6q-37 12 -55.5 36t-20.5 46.5z" />
<glyph unicode="&#x2013;" horiz-adv-x="915" d="M102 456.5q-2 28.5 10.5 51t37.5 22.5q2 0 50 -1t120.5 -1t155.5 -2t156 -2t122 -1t53 -1q6 -4 6 -20.5t-6 -38t-19.5 -43t-31.5 -33.5q-4 -4 -34 -8t-74 -9t-97 -8.5t-104.5 -6.5t-96.5 -5t-69 -2q-27 0 -52.5 2t-50.5 6q-37 12 -55.5 42t-20.5 58.5z" />
<glyph unicode="&#x2014;" horiz-adv-x="1300" d="M104 467q-2 29 10.5 51.5t37.5 22.5h46t116.5 -1t164.5 -2t187.5 -1t187.5 -1t165 -2.5t119 -1.5h48q6 -4 6 -20t-6 -37.5t-19.5 -43t-31.5 -34.5q-4 -4 -61.5 -8t-143.5 -9t-188.5 -8t-195.5 -6.5t-166 -5.5t-97 -2q-27 0 -52.5 2.5t-50.5 6.5q-37 12 -55.5 41.5 t-20.5 58.5z" />
<glyph unicode="&#x2022;" horiz-adv-x="518" d="M126.5 571.5q-9.5 59.5 17 115.5t81.5 88t129 -3q51 -27 62.5 -85t-12 -112.5t-79 -84t-132.5 -1.5q-57 23 -66.5 82.5z" />
<glyph unicode="&#x2026;" horiz-adv-x="1241" d="M111 14q-18 43 4 74t63 62q10 8 24.5 9t26 -7.5t15.5 -25.5t-8 -44q-23 -53 -57 -73.5t-68 5.5zM524 14q-18 43 4.5 74t63.5 62q10 8 24.5 9t25.5 -7.5t15.5 -25.5t-8.5 -44q-23 -53 -56.5 -73.5t-68.5 5.5zM938 14q-18 43 4.5 74t63.5 62q10 8 24 9t25.5 -7.5 t15.5 -25.5t-8 -44q-23 -53 -56.5 -73.5t-68.5 5.5z" />
<glyph unicode="&#x202f;" horiz-adv-x="333" />
<glyph unicode="&#x205f;" horiz-adv-x="416" />
<glyph unicode="&#x20ac;" horiz-adv-x="1280" d="M102 574.5q-4 15.5 0 36t21 42.5q10 4 64.5 -3t129.5 -21q18 63 45 127q-80 20 -138 37.5t-64 25.5q-6 27 -1 47.5t16 33.5t23.5 19.5t18.5 8.5q10 2 70.5 -6.5t144.5 -24.5q102 188 225 319.5t248 186.5q43 20 99.5 23.5t101.5 -14t67.5 -54.5t0.5 -96 q-47 -121 -124 -179.5t-151 -76.5q27 37 50.5 80.5t42 88t30.5 86.5t16 78q2 18 -28.5 10t-83.5 -55q-90 -78 -174 -190.5t-150 -243.5q68 -16 102.5 -28.5t50 -25.5t18.5 -28.5t7 -38.5v-22q0 -10 -2 -21.5t-4 -19.5q-8 -6 -76.5 6t-158.5 31q-27 -63 -41 -121 q94 -23 165.5 -41.5t77.5 -28.5q-4 -10 -7 -19t-7 -20l-8 -20q-14 -18 -23.5 -31.5t-30 -18.5t-59.5 -1t-108 18q-8 2 -16.5 3t-16.5 5q-12 -78 -10 -153.5t22 -143.5q4 -12 34 -3t72 37t94 71t103 95t96.5 112.5t75.5 124.5q12 -12 2 -69.5t-46 -135.5t-97 -162t-152 -148 q-68 -45 -115.5 -58t-82.5 -4t-59.5 33.5t-45.5 53.5q-29 41 -56.5 142.5t-10.5 250.5q-66 16 -109 31.5t-51 19.5q-6 4 -14.5 15.5t-12.5 27z" />
<glyph unicode="&#x2122;" horiz-adv-x="591" d="M105 944q12 51 35.5 112.5t48 117t30.5 69.5q-8 0 -15 -1t-18 1q-10 -2 -5 11.5t12 13.5q8 0 18 1t18 -1q10 23 16.5 41t12.5 30q6 14 12 25q2 8 13.5 12t22.5 2t18.5 -7t1.5 -15q-6 -14 -18.5 -39t-26.5 -49h73q12 0 13.5 -12.5t-15.5 -12.5h-82q0 -2 -17 -39t-38.5 -87 t-43 -99t-30.5 -76q-10 -29 0.5 -34t28.5 18q10 10 17.5 23.5t13.5 25.5q8 27 19 57.5t20.5 57t15.5 45t6 20.5q4 14 25.5 17.5t19.5 -17.5q-2 -12 -11 -38.5t-18.5 -54.5t-17.5 -48.5t-6 -18.5q2 4 13.5 23.5t25.5 43t26.5 43t16.5 23.5q16 23 32.5 12.5t16.5 -16.5 q0 -10 -7 -36.5t-15.5 -54t-14.5 -49.5l-6 -21q0 -2 13.5 26.5t29.5 64.5t29.5 67.5t15.5 35.5q10 23 29.5 18.5t23.5 -20.5q0 -6 -14 -47t-30.5 -87t-29 -84t-6.5 -36q12 2 27.5 18.5t28 37t20.5 36t8 13.5q-2 -8 -12 -30t-23.5 -43.5t-29.5 -38.5t-29 -17 q-23 0 -21.5 30.5t11.5 69.5q10 45 33 102q-4 -6 -17.5 -36.5t-30 -67.5t-31.5 -69t-22 -40q-10 -8 -26.5 -1t-12.5 20q2 6 11.5 37.5t19.5 68.5t20.5 69t12.5 38q-2 0 -16.5 -23.5t-33 -56.5t-38 -69t-33.5 -60q-14 -25 -30.5 -10.5t-6.5 47.5l11 20q-16 -29 -39 -50.5 t-45 -10.5q-16 8 -4 59z" />
<glyph unicode="&#x25fc;" horiz-adv-x="911" d="M0 0v911h911v-911h-911z" />
</font>
</defs>
</svg>
